<svg xmlns="http://www.w3.org/2000/svg" xmlns:xlink="http://www.w3.org/1999/xlink" width="332" zoomAndPan="magnify" viewBox="0 0 249 219.75" height="293" preserveAspectRatio="xMidYMid meet" version="1.2"><defs><clipPath id="cb80b4683a"><path d="M 7 2 L 241 2 L 241 219.5 L 7 219.5 Z M 7 2 "/></clipPath><clipPath id="d6d1a538ac"><path d="M 84 23 L 194 23 L 194 219.5 L 84 219.5 Z M 84 23 "/></clipPath><clipPath id="a84fbe0e78"><path d="M 7 120 L 113 120 L 113 219.5 L 7 219.5 Z M 7 120 "/></clipPath><clipPath id="f031b52d46"><path d="M 7 2 L 241 2 L 241 219.5 L 7 219.5 Z M 7 2 "/></clipPath><clipPath id="cc69f34d97"><path d="M 84 23 L 194 23 L 194 219.5 L 84 219.5 Z M 84 23 "/></clipPath><clipPath id="61124093cf"><path d="M 7 120 L 113 120 L 113 219.5 L 7 219.5 Z M 7 120 "/></clipPath></defs><g id="57ca05ec8c"><g clip-rule="nonzero" clip-path="url(#cb80b4683a)"><path style=" stroke:none;fill-rule:nonzero;fill:#0c5745;fill-opacity:1;" d="M 61.851562 219.289062 L 188.117188 219.289062 C 196.992188 219.289062 205.71875 217.015625 213.46875 212.679688 C 239.835938 197.925781 248.183594 163.835938 231.621094 138.515625 L 227.289062 131.890625 C 220.066406 120.847656 218.546875 107.003906 223.199219 94.648438 L 229.019531 79.191406 C 237.441406 56.816406 218.90625 33.558594 195.28125 36.867188 C 188.15625 37.863281 180.910156 36.378906 174.746094 32.664062 L 140.757812 12.167969 C 124.933594 2.625 105.894531 0.015625 88.097656 4.945312 L 73.050781 9.117188 C 44.082031 17.140625 27.722656 47.855469 37.179688 76.460938 L 40.230469 85.683594 C 45.828125 102.617188 39.519531 121.21875 24.78125 131.21875 C 8.105469 142.53125 2.503906 164.566406 11.746094 182.503906 L 16.40625 191.542969 C 25.1875 208.585938 42.71875 219.289062 61.851562 219.289062 Z M 61.851562 219.289062 "/></g><path style=" stroke:none;fill-rule:nonzero;fill:#698780;fill-opacity:1;" d="M 231.371094 187.144531 C 231.566406 201.851562 221.585938 214.273438 216.519531 218.621094 L 208.753906 218.621094 C 214.527344 198.996094 224.070312 189.238281 229.421875 185.992188 C 230.3125 185.449219 231.359375 186.097656 231.371094 187.144531 Z M 231.371094 187.144531 "/><path style=" stroke:none;fill-rule:nonzero;fill:#ffffff;fill-opacity:1;" d="M 232.195312 138.882812 C 240.148438 168.960938 220.09375 204.582031 211.472656 217.839844 L 193.996094 217.839844 C 201.503906 161.09375 214.085938 147.300781 229.996094 137.980469 C 230.851562 137.480469 231.9375 137.921875 232.195312 138.882812 Z M 232.195312 138.882812 "/><path style=" stroke:none;fill-rule:evenodd;fill:#698780;fill-opacity:1;" d="M 230.386719 138.65625 C 230.804688 138.410156 231.324219 138.632812 231.441406 139.085938 C 235.363281 153.902344 232.394531 170.148438 227.320312 184.40625 C 222.339844 198.398438 215.363281 210.382812 211.050781 217.058594 L 194.882812 217.058594 C 198.617188 189.238281 203.585938 171.953125 209.535156 160.488281 C 215.523438 148.941406 222.527344 143.261719 230.386719 138.65625 Z M 232.945312 138.683594 C 232.554688 137.214844 230.894531 136.550781 229.605469 137.308594 C 221.554688 142.023438 214.3125 147.898438 208.15625 159.765625 C 202.019531 171.589844 196.984375 189.332031 193.226562 217.738281 L 193.109375 218.621094 L 211.890625 218.621094 L 212.121094 218.269531 C 216.453125 211.609375 223.65625 199.332031 228.78125 184.929688 C 233.902344 170.542969 236.980469 153.941406 232.945312 138.683594 Z M 232.945312 138.683594 "/><path style=" stroke:none;fill-rule:nonzero;fill:#698780;fill-opacity:1;" d="M 204.015625 157.386719 C 210.890625 182.589844 203.023438 208.785156 197.878906 218.621094 L 185.066406 218.621094 C 182.183594 187.90625 193.898438 165.566406 201.601562 156.785156 C 202.359375 155.917969 203.714844 156.273438 204.015625 157.386719 Z M 204.015625 157.386719 "/><path style=" stroke:none;fill-rule:evenodd;fill:#698780;fill-opacity:1;" d="M 221.316406 160.285156 L 225.496094 148.476562 L 226.960938 149 L 217.382812 176.046875 L 223.675781 174.148438 L 224.121094 175.644531 L 216.738281 177.871094 L 208.027344 202.472656 L 215.867188 199.539062 L 216.410156 201.003906 L 207.347656 204.390625 L 202.496094 218.101562 L 201.03125 217.578125 L 210.890625 189.730469 L 207.246094 179.453125 L 208.707031 178.929688 L 211.714844 187.40625 L 220.433594 162.773438 L 217.71875 153.648438 L 219.207031 153.199219 Z M 221.316406 160.285156 "/><path style=" stroke:none;fill-rule:evenodd;fill:#ffffff;fill-opacity:1;" d="M 197.464844 177.511719 L 199.445312 166.558594 L 200.972656 166.835938 L 196.953125 189.074219 L 202.179688 186.308594 L 202.902344 187.691406 L 196.597656 191.027344 L 193.152344 210.097656 L 197.472656 206.6875 L 198.429688 207.914062 L 192.730469 212.417969 L 191.652344 218.371094 L 190.125 218.09375 L 192.890625 202.816406 L 188.332031 196.84375 L 189.566406 195.894531 L 193.265625 200.742188 L 197.117188 179.433594 L 193.425781 175.425781 L 194.566406 174.367188 Z M 197.464844 177.511719 "/><path style=" stroke:none;fill-rule:nonzero;fill:#ffffff;fill-opacity:1;" d="M 211.003906 65.003906 L 213.324219 61.792969 C 213.738281 61.222656 214.644531 61.515625 214.640625 62.222656 L 214.621094 66.09375 C 214.621094 66.328125 214.734375 66.546875 214.921875 66.683594 L 218.355469 69.164062 C 218.910156 69.566406 218.65625 70.4375 217.976562 70.476562 L 213.703125 70.734375 C 213.492188 70.746094 213.300781 70.847656 213.171875 71.011719 L 210.277344 74.71875 C 209.847656 75.269531 208.964844 74.953125 208.980469 74.257812 L 209.078125 69.847656 C 209.082031 69.632812 208.992188 69.425781 208.828125 69.285156 L 205.222656 66.125 C 204.691406 65.660156 205.070312 64.785156 205.769531 64.855469 L 210.34375 65.304688 C 210.601562 65.328125 210.851562 65.214844 211.003906 65.003906 Z M 211.003906 65.003906 "/><path style=" stroke:none;fill-rule:nonzero;fill:#698780;fill-opacity:1;" d="M 234.53125 107.886719 L 235.652344 107.269531 C 236.273438 106.933594 236.960938 107.585938 236.65625 108.222656 L 236.117188 109.34375 C 236.015625 109.554688 236.023438 109.800781 236.132812 110.003906 L 236.878906 111.367188 C 237.207031 111.964844 236.601562 112.644531 235.972656 112.390625 L 234.488281 111.789062 C 234.296875 111.710938 234.078125 111.722656 233.894531 111.8125 L 232.292969 112.613281 C 231.667969 112.925781 231.007812 112.261719 231.320312 111.636719 L 232.042969 110.203125 C 232.140625 110.007812 232.148438 109.785156 232.0625 109.585938 L 231.34375 107.925781 C 231.066406 107.277344 231.78125 106.652344 232.386719 107.015625 L 233.808594 107.871094 C 234.027344 108.003906 234.304688 108.007812 234.53125 107.886719 Z M 234.53125 107.886719 "/><path style=" stroke:none;fill-rule:nonzero;fill:#ffffff;fill-opacity:1;" d="M 65.121094 57.371094 C 65.121094 67.128906 57.210938 75.039062 47.457031 75.039062 C 37.699219 75.039062 29.789062 67.128906 29.789062 57.371094 C 29.789062 47.617188 37.699219 39.707031 47.457031 39.707031 C 57.210938 39.707031 65.121094 47.617188 65.121094 57.371094 Z M 65.121094 57.371094 "/><path style=" stroke:none;fill-rule:evenodd;fill:#698780;fill-opacity:1;" d="M 47.457031 40.105469 C 37.921875 40.105469 30.191406 47.835938 30.191406 57.371094 C 30.191406 66.90625 37.921875 74.636719 47.457031 74.636719 C 56.992188 74.636719 64.722656 66.90625 64.722656 57.371094 C 64.722656 47.835938 56.992188 40.105469 47.457031 40.105469 Z M 29.390625 57.371094 C 29.390625 47.394531 37.480469 39.308594 47.457031 39.308594 C 57.433594 39.308594 65.519531 47.394531 65.519531 57.371094 C 65.519531 67.347656 57.433594 75.4375 47.457031 75.4375 C 37.480469 75.4375 29.390625 67.347656 29.390625 57.371094 Z M 29.390625 57.371094 "/><path style=" stroke:none;fill-rule:nonzero;fill:#698780;fill-opacity:1;" d="M 44.960938 62.925781 C 44.960938 61.34375 45.148438 60.082031 45.53125 59.144531 C 45.914062 58.207031 46.605469 57.285156 47.613281 56.378906 C 48.632812 55.464844 49.3125 54.722656 49.648438 54.160156 C 49.984375 53.582031 50.152344 52.976562 50.152344 52.34375 C 50.152344 50.433594 49.277344 49.476562 47.53125 49.476562 C 46.703125 49.476562 46.035156 49.738281 45.53125 50.257812 C 45.039062 50.765625 44.78125 51.472656 44.757812 52.378906 L 39.882812 52.378906 C 39.90625 50.21875 40.597656 48.527344 41.953125 47.304688 C 43.320312 46.085938 45.179688 45.476562 47.53125 45.476562 C 49.90625 45.476562 51.75 46.058594 53.058594 47.222656 C 54.371094 48.375 55.027344 50.007812 55.027344 52.125 C 55.027344 53.085938 54.8125 53.996094 54.386719 54.855469 C 53.960938 55.703125 53.21875 56.644531 52.152344 57.6875 L 50.792969 58.992188 C 49.941406 59.816406 49.453125 60.785156 49.328125 61.890625 L 49.261719 62.925781 Z M 44.472656 68.132812 C 44.472656 67.375 44.722656 66.753906 45.230469 66.269531 C 45.742188 65.769531 46.398438 65.523438 47.195312 65.523438 C 47.992188 65.523438 48.640625 65.769531 49.144531 66.269531 C 49.660156 66.753906 49.917969 67.375 49.917969 68.132812 C 49.917969 68.878906 49.664062 69.496094 49.160156 69.980469 C 48.667969 70.46875 48.011719 70.710938 47.195312 70.710938 C 46.378906 70.710938 45.714844 70.46875 45.210938 69.980469 C 44.71875 69.496094 44.472656 68.878906 44.472656 68.132812 Z M 44.472656 68.132812 "/><path style=" stroke:none;fill-rule:nonzero;fill:#ffffff;fill-opacity:1;" d="M 85.59375 31.957031 C 85.59375 27.523438 89.1875 23.929688 93.621094 23.929688 L 184.96875 23.929688 C 189.402344 23.929688 192.996094 27.523438 192.996094 31.957031 L 192.996094 210.566406 C 192.996094 215 189.402344 218.597656 184.96875 218.597656 L 93.621094 218.597656 C 89.1875 218.597656 85.59375 215 85.59375 210.566406 Z M 85.59375 31.957031 "/><g clip-rule="nonzero" clip-path="url(#d6d1a538ac)"><path style=" stroke:none;fill-rule:evenodd;fill:#698780;fill-opacity:1;" d="M 84.925781 31.957031 C 84.925781 27.15625 88.816406 23.261719 93.621094 23.261719 L 184.964844 23.261719 C 189.769531 23.261719 193.664062 27.15625 193.664062 31.957031 L 193.664062 210.566406 C 193.664062 215.371094 189.769531 219.265625 184.964844 219.265625 L 93.621094 219.265625 C 88.816406 219.265625 84.925781 215.371094 84.925781 210.566406 Z M 93.621094 24.597656 C 89.558594 24.597656 86.261719 27.894531 86.261719 31.957031 L 86.261719 210.566406 C 86.261719 214.632812 89.558594 217.925781 93.621094 217.925781 L 184.964844 217.925781 C 189.03125 217.925781 192.324219 214.632812 192.324219 210.566406 L 192.324219 31.957031 C 192.324219 27.894531 189.03125 24.597656 184.964844 24.597656 Z M 93.621094 24.597656 "/></g><path style=" stroke:none;fill-rule:nonzero;fill:#0c5745;fill-opacity:1;" d="M 172.574219 95.511719 C 172.574219 113.988281 157.597656 128.964844 139.121094 128.964844 C 120.644531 128.964844 105.667969 113.988281 105.667969 95.511719 C 105.667969 77.035156 120.644531 62.054688 139.121094 62.054688 C 157.597656 62.054688 172.574219 77.035156 172.574219 95.511719 Z M 172.574219 95.511719 "/><path style=" stroke:none;fill-rule:nonzero;fill:#ffffff;fill-opacity:1;" d="M 186.625 72.761719 C 186.625 81.261719 179.738281 88.148438 171.238281 88.148438 C 162.738281 88.148438 155.847656 81.261719 155.847656 72.761719 C 155.847656 64.261719 162.738281 57.371094 171.238281 57.371094 C 179.738281 57.371094 186.625 64.261719 186.625 72.761719 Z M 186.625 72.761719 "/><path style=" stroke:none;fill-rule:evenodd;fill:#698780;fill-opacity:1;" d="M 171.238281 58.042969 C 163.105469 58.042969 156.515625 64.632812 156.515625 72.761719 C 156.515625 80.890625 163.105469 87.480469 171.238281 87.480469 C 179.367188 87.480469 185.957031 80.890625 185.957031 72.761719 C 185.957031 64.632812 179.367188 58.042969 171.238281 58.042969 Z M 155.179688 72.761719 C 155.179688 63.890625 162.367188 56.703125 171.238281 56.703125 C 180.105469 56.703125 187.292969 63.890625 187.292969 72.761719 C 187.292969 81.628906 180.105469 88.820312 171.238281 88.820312 C 162.367188 88.820312 155.179688 81.628906 155.179688 72.761719 Z M 155.179688 72.761719 "/><path style=" stroke:none;fill-rule:evenodd;fill:#698780;fill-opacity:1;" d="M 167.054688 72.425781 L 162.539062 76.941406 L 167.054688 81.460938 L 171.570312 76.941406 L 176.085938 81.460938 L 180.605469 76.941406 L 176.085938 72.425781 L 180.605469 67.910156 L 176.089844 63.394531 L 171.570312 67.910156 L 167.054688 63.394531 L 162.539062 67.910156 Z M 167.054688 72.425781 "/><path style=" stroke:none;fill-rule:nonzero;fill:#698780;fill-opacity:1;" d="M 117.941406 30.457031 L 114.457031 23.929688 L 164.132812 23.929688 L 160.039062 30.75 C 158.832031 32.765625 156.652344 34 154.300781 34 L 123.84375 34 C 121.371094 34 119.101562 32.636719 117.941406 30.457031 Z M 117.941406 30.457031 "/><path style=" stroke:none;fill-rule:nonzero;fill:#698780;fill-opacity:1;" d="M 191.679688 27.957031 L 86.226562 27.957031 C 89.71875 24.464844 93.050781 23.816406 94.28125 23.929688 L 183.625 23.929688 C 187.921875 23.929688 190.785156 26.613281 191.679688 27.957031 Z M 191.679688 27.957031 "/><path style=" stroke:none;fill-rule:nonzero;fill:#698780;fill-opacity:1;" d="M 191.597656 214.777344 L 86.933594 214.777344 C 90.558594 218.324219 92.65625 218.984375 93.933594 218.871094 L 184.59375 218.871094 C 189.058594 218.871094 190.667969 216.144531 191.597656 214.777344 Z M 191.597656 214.777344 "/><path style=" stroke:none;fill-rule:nonzero;fill:#698780;fill-opacity:1;" d="M 100.984375 49.34375 C 100.984375 48.605469 101.582031 48.003906 102.320312 48.003906 L 137.953125 48.003906 C 138.691406 48.003906 139.292969 48.605469 139.292969 49.34375 L 139.292969 50.769531 C 139.292969 51.511719 138.691406 52.109375 137.953125 52.109375 L 102.320312 52.109375 C 101.582031 52.109375 100.984375 51.511719 100.984375 50.769531 Z M 100.984375 49.34375 "/><path style=" stroke:none;fill-rule:nonzero;fill:#698780;fill-opacity:1;" d="M 100.984375 139.667969 C 100.984375 138.929688 101.582031 138.332031 102.320312 138.332031 L 137.953125 138.332031 C 138.691406 138.332031 139.292969 138.929688 139.292969 139.667969 L 139.292969 141.097656 C 139.292969 141.835938 138.691406 142.4375 137.953125 142.4375 L 102.320312 142.4375 C 101.582031 142.4375 100.984375 141.835938 100.984375 141.097656 Z M 100.984375 139.667969 "/><path style=" stroke:none;fill-rule:nonzero;fill:#698780;fill-opacity:1;" d="M 100.984375 175.132812 C 100.984375 174.390625 101.582031 173.792969 102.320312 173.792969 L 123.730469 173.792969 C 124.472656 173.792969 125.070312 174.390625 125.070312 175.132812 L 125.070312 176.46875 C 125.070312 177.207031 124.472656 177.808594 123.730469 177.808594 L 102.320312 177.808594 C 101.582031 177.808594 100.984375 177.207031 100.984375 176.46875 Z M 100.984375 175.132812 "/><path style=" stroke:none;fill-rule:evenodd;fill:#0c5745;fill-opacity:1;" d="M 100.3125 149.707031 C 100.3125 148.597656 101.210938 147.699219 102.320312 147.699219 L 173.914062 147.699219 C 175.023438 147.699219 175.921875 148.597656 175.921875 149.707031 L 175.921875 163.089844 C 175.921875 164.195312 175.023438 165.09375 173.914062 165.09375 L 102.320312 165.09375 C 101.210938 165.09375 100.3125 164.195312 100.3125 163.089844 Z M 102.320312 149.035156 C 101.953125 149.035156 101.652344 149.335938 101.652344 149.707031 L 101.652344 163.089844 C 101.652344 163.457031 101.953125 163.757812 102.320312 163.757812 L 173.914062 163.757812 C 174.28125 163.757812 174.582031 163.457031 174.582031 163.089844 L 174.582031 149.707031 C 174.582031 149.335938 174.28125 149.035156 173.914062 149.035156 Z M 102.320312 149.035156 "/><path style=" stroke:none;fill-rule:evenodd;fill:#0c5745;fill-opacity:1;" d="M 100.3125 184.5 C 100.3125 183.390625 101.210938 182.492188 102.320312 182.492188 L 173.914062 182.492188 C 175.023438 182.492188 175.921875 183.390625 175.921875 184.5 L 175.921875 197.878906 C 175.921875 198.988281 175.023438 199.886719 173.914062 199.886719 L 102.320312 199.886719 C 101.210938 199.886719 100.3125 198.988281 100.3125 197.878906 Z M 102.320312 183.828125 C 101.953125 183.828125 101.652344 184.128906 101.652344 184.5 L 101.652344 197.878906 C 101.652344 198.25 101.953125 198.550781 102.320312 198.550781 L 173.914062 198.550781 C 174.28125 198.550781 174.582031 198.25 174.582031 197.878906 L 174.582031 184.5 C 174.582031 184.128906 174.28125 183.828125 173.914062 183.828125 Z M 102.320312 183.828125 "/><path style=" stroke:none;fill-rule:evenodd;fill:#698780;fill-opacity:1;" d="M 184.117188 33.496094 L 185.453125 33.496094 L 185.453125 38.96875 L 184.117188 38.96875 Z M 184.117188 33.496094 "/><path style=" stroke:none;fill-rule:evenodd;fill:#698780;fill-opacity:1;" d="M 180.695312 34.179688 L 182.035156 34.179688 L 182.035156 38.96875 L 180.695312 38.96875 Z M 180.695312 34.179688 "/><path style=" stroke:none;fill-rule:evenodd;fill:#698780;fill-opacity:1;" d="M 177.277344 35.546875 L 178.613281 35.546875 L 178.613281 38.96875 L 177.277344 38.96875 Z M 177.277344 35.546875 "/><path style=" stroke:none;fill-rule:evenodd;fill:#698780;fill-opacity:1;" d="M 173.855469 36.914062 L 175.195312 36.914062 L 175.195312 38.96875 L 173.855469 38.96875 Z M 173.855469 36.914062 "/><path style=" stroke:none;fill-rule:evenodd;fill:#698780;fill-opacity:1;" d="M 139.105469 75.882812 C 133.015625 75.882812 128.082031 80.898438 128.082031 87.089844 L 128.082031 94.761719 C 128.082031 95.671875 128.816406 96.410156 129.726562 96.410156 C 130.640625 96.410156 131.378906 95.671875 131.378906 94.761719 L 131.378906 86.878906 C 131.378906 82.542969 134.835938 79.023438 139.105469 79.023438 C 143.375 79.023438 146.832031 82.542969 146.832031 86.878906 L 146.832031 94.351562 C 146.832031 95.261719 147.570312 96 148.480469 96 C 149.390625 96 150.128906 95.261719 150.128906 94.351562 L 150.128906 87.089844 C 150.128906 80.898438 145.195312 75.882812 139.105469 75.882812 Z M 139.105469 75.882812 "/><path style=" stroke:none;fill-rule:nonzero;fill:#698780;fill-opacity:1;" d="M 125.039062 94.617188 C 125.039062 93.507812 125.9375 92.609375 127.046875 92.609375 L 151.164062 92.609375 C 152.273438 92.609375 153.171875 93.507812 153.171875 94.617188 L 153.171875 112.652344 C 153.171875 113.761719 152.273438 114.660156 151.164062 114.660156 L 127.046875 114.660156 C 125.9375 114.660156 125.039062 113.761719 125.039062 112.652344 Z M 125.039062 94.617188 "/><path style=" stroke:none;fill-rule:evenodd;fill:#ffffff;fill-opacity:1;" d="M 140.898438 104.546875 C 141.550781 104.023438 141.96875 103.21875 141.96875 102.316406 C 141.96875 100.734375 140.6875 99.453125 139.105469 99.453125 C 137.523438 99.453125 136.242188 100.734375 136.242188 102.316406 C 136.242188 103.296875 136.738281 104.164062 137.492188 104.679688 L 136.855469 107.363281 C 136.757812 107.765625 137.0625 108.148438 137.472656 108.148438 L 140.953125 108.148438 C 141.363281 108.148438 141.667969 107.765625 141.570312 107.363281 Z M 140.898438 104.546875 "/><path style=" stroke:none;fill-rule:nonzero;fill:#698780;fill-opacity:1;" d="M 181.046875 154.390625 L 164.769531 154.390625 C 163.761719 154.390625 163.113281 153.3125 163.589844 152.421875 L 171.730469 137.195312 C 172.234375 136.25 173.585938 136.25 174.089844 137.195312 L 182.226562 152.421875 C 182.703125 153.3125 182.058594 154.390625 181.046875 154.390625 Z M 181.046875 154.390625 "/><path style=" stroke:none;fill-rule:nonzero;fill:#ffffff;fill-opacity:1;" d="M 172.164062 148.667969 L 173.628906 148.667969 L 173.859375 142.347656 L 171.933594 142.347656 Z M 173.914062 150.640625 C 173.914062 150.324219 173.816406 150.070312 173.628906 149.871094 C 173.433594 149.667969 173.195312 149.566406 172.910156 149.566406 C 172.625 149.566406 172.386719 149.667969 172.195312 149.871094 C 172.003906 150.070312 171.90625 150.324219 171.90625 150.640625 C 171.90625 150.953125 172.003906 151.210938 172.195312 151.414062 C 172.386719 151.613281 172.625 151.714844 172.910156 151.714844 C 173.195312 151.714844 173.433594 151.613281 173.628906 151.414062 C 173.816406 151.210938 173.914062 150.953125 173.914062 150.640625 Z M 173.914062 150.640625 "/><path style=" stroke:none;fill-rule:nonzero;fill:#0c5745;fill-opacity:1;" d="M 111.082031 156.09375 C 111.082031 157.035156 110.320312 157.796875 109.378906 157.796875 C 108.4375 157.796875 107.675781 157.035156 107.675781 156.09375 C 107.675781 155.152344 108.4375 154.390625 109.378906 154.390625 C 110.320312 154.390625 111.082031 155.152344 111.082031 156.09375 Z M 111.082031 156.09375 "/><path style=" stroke:none;fill-rule:nonzero;fill:#0c5745;fill-opacity:1;" d="M 119.261719 156.09375 C 119.261719 157.035156 118.496094 157.796875 117.554688 157.796875 C 116.617188 157.796875 115.851562 157.035156 115.851562 156.09375 C 115.851562 155.152344 116.617188 154.390625 117.554688 154.390625 C 118.496094 154.390625 119.261719 155.152344 119.261719 156.09375 Z M 119.261719 156.09375 "/><path style=" stroke:none;fill-rule:nonzero;fill:#0c5745;fill-opacity:1;" d="M 127.4375 156.09375 C 127.4375 157.035156 126.675781 157.796875 125.734375 157.796875 C 124.792969 157.796875 124.03125 157.035156 124.03125 156.09375 C 124.03125 155.152344 124.792969 154.390625 125.734375 154.390625 C 126.675781 154.390625 127.4375 155.152344 127.4375 156.09375 Z M 127.4375 156.09375 "/><path style=" stroke:none;fill-rule:nonzero;fill:#0c5745;fill-opacity:1;" d="M 135.617188 156.09375 C 135.617188 157.035156 134.851562 157.796875 133.914062 157.796875 C 132.972656 157.796875 132.207031 157.035156 132.207031 156.09375 C 132.207031 155.152344 132.972656 154.390625 133.914062 154.390625 C 134.851562 154.390625 135.617188 155.152344 135.617188 156.09375 Z M 135.617188 156.09375 "/><path style=" stroke:none;fill-rule:nonzero;fill:#0c5745;fill-opacity:1;" d="M 143.792969 156.09375 C 143.792969 157.035156 143.03125 157.796875 142.089844 157.796875 C 141.148438 157.796875 140.386719 157.035156 140.386719 156.09375 C 140.386719 155.152344 141.148438 154.390625 142.089844 154.390625 C 143.03125 154.390625 143.792969 155.152344 143.792969 156.09375 Z M 143.792969 156.09375 "/><path style=" stroke:none;fill-rule:nonzero;fill:#0c5745;fill-opacity:1;" d="M 151.972656 156.09375 C 151.972656 157.035156 151.210938 157.796875 150.269531 157.796875 C 149.328125 157.796875 148.566406 157.035156 148.566406 156.09375 C 148.566406 155.152344 149.328125 154.390625 150.269531 154.390625 C 151.210938 154.390625 151.972656 155.152344 151.972656 156.09375 Z M 151.972656 156.09375 "/><path style=" stroke:none;fill-rule:nonzero;fill:#ffffff;fill-opacity:1;" d="M 61.214844 90.367188 C 51.726562 97.082031 55.714844 109.015625 57.503906 113.640625 L 56.71875 123.078125 C 57.53125 126.046875 60.472656 131.988281 65.753906 131.988281 C 71.035156 131.988281 73.453125 126.917969 74.003906 124.382812 L 73.179688 117.222656 C 79.367188 114.984375 79.777344 106.03125 79.367188 98.871094 C 78.875 90.367188 69.574219 84.453125 61.214844 90.367188 Z M 61.214844 90.367188 "/><path style=" stroke:none;fill-rule:evenodd;fill:#698780;fill-opacity:1;" d="M 72.972656 89.726562 C 69.734375 88.027344 65.554688 88.007812 61.550781 90.839844 C 57.003906 94.058594 55.675781 98.515625 55.710938 102.78125 C 55.742188 107.074219 57.15625 111.132812 58.042969 113.433594 L 58.089844 113.554688 L 57.304688 123.023438 C 57.707031 124.445312 58.605469 126.542969 60.011719 128.285156 C 61.445312 130.066406 63.351562 131.410156 65.753906 131.410156 C 68.183594 131.410156 69.957031 130.25 71.207031 128.765625 C 72.4375 127.300781 73.140625 125.542969 73.417969 124.351562 L 72.550781 116.832031 L 72.980469 116.675781 C 75.808594 115.652344 77.378906 113.085938 78.183594 109.757812 C 78.988281 106.429688 78.992188 102.472656 78.789062 98.90625 C 78.554688 94.859375 76.222656 91.433594 72.972656 89.726562 Z M 56.144531 123.023438 L 56.914062 113.726562 C 56.011719 111.375 54.585938 107.222656 54.550781 102.792969 C 54.515625 98.257812 55.941406 93.390625 60.882812 89.894531 C 65.234375 86.816406 69.882812 86.796875 73.511719 88.699219 C 77.121094 90.597656 79.6875 94.382812 79.945312 98.839844 C 80.152344 102.433594 80.15625 106.53125 79.308594 110.027344 C 78.5 113.375 76.882812 116.289062 73.804688 117.597656 L 74.589844 124.410156 L 74.570312 124.503906 C 74.277344 125.847656 73.5 127.839844 72.09375 129.511719 C 70.679688 131.191406 68.605469 132.570312 65.753906 132.570312 C 62.871094 132.570312 60.667969 130.945312 59.109375 129.011719 C 57.621094 127.167969 56.667969 124.980469 56.21875 123.441406 L 56.101562 123.429688 Z M 56.144531 123.023438 "/><path style=" stroke:none;fill-rule:nonzero;fill:#698780;fill-opacity:1;" d="M 57.800781 111.300781 L 56.980469 119.414062 C 56.703125 118.816406 56.074219 117.070312 55.746094 114.90625 C 55.335938 112.203125 48.757812 101.832031 50.8125 94.171875 C 52.457031 88.039062 56.980469 88.308594 59.035156 89.210938 C 60.265625 86.957031 67.664062 79.292969 78.351562 80.195312 C 89.035156 81.097656 90.269531 96.425781 81.636719 98.679688 C 74.734375 100.480469 66.980469 99.429688 63.964844 98.679688 C 63.691406 99.277344 62.898438 101.292969 61.910156 104.539062 C 60.679688 108.597656 60.679688 109.496094 60.265625 106.792969 C 59.855469 104.089844 58.210938 99.128906 56.15625 104.089844 C 54.511719 108.054688 56.566406 110.550781 57.800781 111.300781 Z M 57.800781 111.300781 "/><path style=" stroke:none;fill-rule:nonzero;fill:#698780;fill-opacity:1;" d="M 63.769531 117.058594 C 66.597656 118.722656 70.96875 117.753906 72.804688 117.058594 L 73.195312 119.972656 C 69.109375 120.972656 65.210938 118.445312 63.769531 117.058594 Z M 63.769531 117.058594 "/><path style=" stroke:none;fill-rule:nonzero;fill:#ffffff;fill-opacity:1;" d="M 65.390625 126.984375 C 71.308594 126.984375 74.175781 123.6875 75.035156 121.722656 C 75.136719 121.492188 75.351562 121.332031 75.601562 121.34375 C 78.867188 121.507812 83.5 123.488281 84.664062 123.890625 C 84.695312 123.898438 84.722656 123.910156 84.75 123.925781 C 93.878906 128.832031 102.535156 137.511719 107.960938 168.824219 C 109.71875 181.886719 112.859375 209.152344 111.351562 213.675781 C 109.84375 218.199219 99.421875 218.824219 94.398438 218.574219 L 28.472656 218.574219 C 26.726562 218.574219 27.269531 215.820312 28.007812 213.730469 C 28.171875 213.261719 27.722656 212.742188 27.230469 212.8125 C 24.226562 213.230469 18.492188 212.6875 12.273438 208.019531 C 0.21875 198.222656 14.15625 159.023438 23.199219 140.554688 C 30.304688 126.042969 47.195312 121.734375 55.171875 121.347656 C 55.429688 121.335938 55.648438 121.5 55.753906 121.734375 C 56.621094 123.703125 59.484375 126.984375 65.390625 126.984375 Z M 65.390625 126.984375 "/><g clip-rule="nonzero" clip-path="url(#a84fbe0e78)"><path style=" stroke:none;fill-rule:evenodd;fill:#698780;fill-opacity:1;" d="M 75.582031 121.929688 C 75.574219 121.9375 75.570312 121.945312 75.566406 121.953125 C 74.621094 124.117188 71.558594 127.566406 65.390625 127.566406 C 59.238281 127.566406 56.175781 124.128906 55.222656 121.96875 C 55.210938 121.945312 55.199219 121.933594 55.195312 121.929688 C 51.273438 122.117188 45.136719 123.277344 39.109375 126.175781 C 33.082031 129.078125 27.199219 133.703125 23.71875 140.808594 C 19.210938 150.015625 13.484375 164.390625 10.390625 177.671875 C 8.839844 184.3125 7.957031 190.648438 8.203125 195.914062 C 8.445312 201.195312 9.816406 205.269531 12.628906 207.5625 C 18.722656 212.132812 24.296875 212.636719 27.148438 212.238281 C 27.625 212.171875 28.046875 212.390625 28.304688 212.695312 C 28.566406 213 28.71875 213.457031 28.550781 213.925781 C 28.1875 214.953125 27.894531 216.089844 27.886719 216.941406 C 27.882812 217.371094 27.953125 217.648438 28.050781 217.800781 C 28.117188 217.910156 28.21875 217.996094 28.472656 217.996094 L 94.425781 217.996094 C 96.90625 218.121094 100.71875 218.027344 104.078125 217.347656 C 105.757812 217.007812 107.296875 216.527344 108.496094 215.875 C 109.695312 215.21875 110.488281 214.429688 110.800781 213.492188 C 110.960938 213.007812 111.074219 212.15625 111.128906 210.957031 C 111.183594 209.777344 111.179688 208.304688 111.125 206.613281 C 111.015625 203.234375 110.710938 199.007812 110.300781 194.503906 C 109.488281 185.507812 108.265625 175.4375 107.386719 168.910156 C 104.679688 153.296875 101.179688 143.378906 97.246094 136.769531 C 93.324219 130.179688 88.964844 126.851562 84.476562 124.4375 C 84.476562 124.4375 84.472656 124.4375 84.476562 124.4375 C 84.273438 124.367188 83.964844 124.25 83.589844 124.105469 C 83.410156 124.039062 83.21875 123.964844 83.011719 123.886719 C 82.367188 123.644531 81.585938 123.359375 80.738281 123.078125 C 79.042969 122.515625 77.136719 122.003906 75.585938 121.921875 C 75.585938 121.925781 75.582031 121.925781 75.582031 121.929688 Z M 74.503906 121.488281 C 74.683594 121.082031 75.097656 120.738281 75.632812 120.761719 C 77.347656 120.851562 79.382812 121.40625 81.105469 121.976562 C 81.96875 122.265625 82.769531 122.558594 83.421875 122.804688 C 83.644531 122.886719 83.847656 122.964844 84.03125 123.035156 C 84.390625 123.171875 84.664062 123.277344 84.851562 123.339844 C 84.910156 123.359375 84.96875 123.386719 85.023438 123.417969 C 89.664062 125.910156 94.195312 129.375 98.242188 136.175781 C 102.277344 142.960938 105.8125 153.035156 108.53125 168.722656 L 108.53125 168.734375 L 108.535156 168.746094 C 109.414062 175.285156 110.640625 185.375 111.457031 194.398438 C 111.863281 198.910156 112.171875 203.164062 112.28125 206.578125 C 112.339844 208.28125 112.34375 209.785156 112.289062 211.011719 C 112.234375 212.21875 112.117188 213.210938 111.898438 213.859375 C 111.457031 215.183594 110.382812 216.164062 109.050781 216.894531 C 107.710938 217.621094 106.046875 218.132812 104.308594 218.484375 C 100.832031 219.183594 96.925781 219.28125 94.382812 219.152344 L 28.472656 219.152344 C 27.855469 219.152344 27.367188 218.894531 27.070312 218.421875 C 26.796875 217.992188 26.722656 217.449219 26.730469 216.929688 C 26.738281 215.882812 27.085938 214.597656 27.460938 213.539062 C 27.460938 213.535156 27.46875 213.5 27.421875 213.445312 C 27.375 213.390625 27.328125 213.382812 27.308594 213.386719 C 24.15625 213.824219 18.265625 213.242188 11.925781 208.484375 L 11.917969 208.476562 L 11.910156 208.472656 C 8.703125 205.863281 7.296875 201.367188 7.046875 195.96875 C 6.792969 190.550781 7.703125 184.097656 9.261719 177.40625 C 12.382812 164.019531 18.144531 149.5625 22.679688 140.300781 C 26.304688 132.894531 32.417969 128.109375 38.605469 125.132812 C 44.792969 122.15625 51.085938 120.96875 55.144531 120.769531 C 55.679688 120.746094 56.101562 121.085938 56.28125 121.5 C 57.066406 123.277344 59.734375 126.40625 65.390625 126.40625 C 71.058594 126.40625 73.726562 123.265625 74.503906 121.488281 Z M 74.503906 121.488281 "/></g><path style=" stroke:none;fill-rule:nonzero;fill:#698780;fill-opacity:1;" d="M 25.847656 212.113281 C 21.703125 203.304688 12.921875 194.59375 8.230469 190.636719 C 7.875 190.332031 7.335938 190.570312 7.324219 191.039062 C 7.210938 195.089844 7.753906 202.503906 10.765625 206.890625 C 13.84375 211.367188 21.265625 212.726562 25.328125 212.902344 C 25.746094 212.917969 26.023438 212.492188 25.847656 212.113281 Z M 25.847656 212.113281 "/><path style=" stroke:none;fill-rule:nonzero;fill:#698780;fill-opacity:1;" d="M 64.261719 189.554688 C 47.082031 207.042969 32.742188 212.671875 27.71875 213.296875 L 26.964844 216.691406 C 41.734375 214.277344 57.980469 197.59375 64.261719 189.554688 Z M 64.261719 189.554688 "/><path style=" stroke:none;fill-rule:nonzero;fill:#ffffff;fill-opacity:1;" d="M 68.40625 183.925781 L 68.40625 158.382812 C 68.40625 158.101562 68.609375 157.859375 68.886719 157.8125 L 81.28125 155.746094 C 81.636719 155.6875 81.960938 155.964844 81.957031 156.324219 L 81.597656 181.183594 C 81.59375 181.449219 81.40625 181.679688 81.144531 181.738281 L 69.113281 184.492188 C 68.75 184.574219 68.40625 184.296875 68.40625 183.925781 Z M 68.40625 183.925781 "/><path style=" stroke:none;fill-rule:evenodd;fill:#698780;fill-opacity:1;" d="M 81.1875 155.171875 C 81.898438 155.054688 82.546875 155.609375 82.535156 156.332031 L 82.175781 181.191406 C 82.167969 181.726562 81.796875 182.183594 81.273438 182.304688 L 69.242188 185.054688 C 68.515625 185.222656 67.824219 184.671875 67.824219 183.925781 L 67.824219 158.382812 C 67.824219 157.816406 68.234375 157.332031 68.792969 157.238281 Z M 81.375 156.316406 L 68.984375 158.382812 L 68.886719 157.8125 L 68.984375 158.382812 L 68.984375 183.925781 L 81.015625 181.171875 Z M 81.375 156.316406 "/><path style=" stroke:none;fill-rule:nonzero;fill:#698780;fill-opacity:1;" d="M 36.007812 176.359375 C 35.402344 177.566406 28.972656 180.632812 25.835938 182.015625 C 29.148438 181.109375 48.5625 174.351562 57.855469 171.082031 C 55.21875 171.082031 39.773438 175.605469 39.398438 174.851562 C 39.09375 174.25 40.277344 166.5625 40.902344 162.792969 C 39.523438 166.8125 36.609375 175.15625 36.007812 176.359375 Z M 36.007812 176.359375 "/><path style=" stroke:none;fill-rule:nonzero;fill:#ffffff;fill-opacity:1;" d="M 63.507812 169.578125 C 62 171.988281 60.367188 173.09375 59.742188 173.34375 L 62.378906 182.015625 C 65.769531 180.128906 71.417969 180.507812 75.5625 178.246094 C 79.707031 175.984375 78.953125 165.054688 76.691406 165.808594 C 74.882812 166.410156 70.414062 168.320312 68.40625 169.199219 L 68.40625 163.921875 C 65.769531 165.054688 65.390625 166.5625 63.507812 169.578125 Z M 63.507812 169.578125 "/><path style=" stroke:none;fill-rule:evenodd;fill:#698780;fill-opacity:1;" d="M 68.984375 163.042969 L 68.984375 168.316406 C 71.207031 167.355469 74.890625 165.796875 76.507812 165.257812 C 77.050781 165.078125 77.53125 165.277344 77.875 165.625 C 78.191406 165.945312 78.425781 166.417969 78.601562 166.929688 C 78.953125 167.964844 79.132812 169.402344 79.109375 170.90625 C 79.085938 172.410156 78.855469 174.03125 78.351562 175.4375 C 77.851562 176.832031 77.054688 178.09375 75.839844 178.753906 C 73.671875 179.9375 71.132812 180.421875 68.789062 180.84375 C 68.703125 180.855469 68.621094 180.871094 68.535156 180.886719 C 66.246094 181.300781 64.195312 181.667969 62.660156 182.519531 L 62.03125 182.871094 L 59.03125 173.003906 L 59.523438 172.808594 C 60.011719 172.613281 61.558594 171.605469 63.015625 169.269531 C 63.390625 168.667969 63.707031 168.128906 63.996094 167.632812 C 64.0625 167.515625 64.128906 167.398438 64.195312 167.285156 C 64.539062 166.703125 64.859375 166.175781 65.207031 165.699219 C 65.925781 164.722656 66.761719 163.996094 68.175781 163.390625 Z M 65 168.210938 C 64.710938 168.707031 64.386719 169.265625 64 169.882812 C 62.714844 171.941406 61.316406 173.121094 60.4375 173.640625 L 62.730469 181.1875 C 64.339844 180.460938 66.296875 180.109375 68.238281 179.761719 C 68.355469 179.742188 68.46875 179.722656 68.585938 179.699219 C 70.953125 179.273438 73.308594 178.816406 75.285156 177.734375 C 76.144531 177.269531 76.804688 176.3125 77.257812 175.046875 C 77.710938 173.789062 77.925781 172.300781 77.949219 170.886719 C 77.972656 169.46875 77.800781 168.171875 77.503906 167.300781 C 77.355469 166.859375 77.191406 166.582031 77.050781 166.441406 C 76.945312 166.332031 76.902344 166.347656 76.878906 166.355469 C 76.878906 166.355469 76.878906 166.355469 76.875 166.355469 C 75.097656 166.949219 70.65625 168.847656 68.636719 169.730469 L 67.824219 170.085938 L 67.824219 164.855469 C 67.085938 165.285156 66.59375 165.773438 66.140625 166.386719 C 65.832031 166.808594 65.539062 167.289062 65.195312 167.871094 C 65.132812 167.984375 65.066406 168.09375 65 168.210938 Z M 65 168.210938 "/><path style=" stroke:none;fill-rule:nonzero;fill:#ffffff;fill-opacity:1;" d="M 87.320312 122.597656 C 84.382812 122.597656 77.195312 129.457031 77.195312 132.726562 C 76.542969 135.339844 93.851562 172.585938 106.585938 179.449219 C 119.324219 186.308594 129.773438 177.816406 128.792969 164.746094 C 127.765625 151.023438 90.730469 122.597656 87.320312 122.597656 Z M 87.320312 122.597656 "/><path style=" stroke:none;fill-rule:evenodd;fill:#698780;fill-opacity:1;" d="M 78.851562 130.082031 C 78.144531 131.164062 77.777344 132.085938 77.777344 132.726562 L 77.777344 132.796875 L 77.757812 132.863281 C 77.757812 132.863281 77.757812 132.863281 77.761719 132.863281 C 77.761719 132.863281 77.753906 132.90625 77.765625 133.015625 C 77.773438 133.128906 77.800781 133.285156 77.84375 133.476562 C 77.933594 133.867188 78.082031 134.382812 78.296875 135.015625 C 78.726562 136.277344 79.390625 137.957031 80.253906 139.933594 C 81.976562 143.882812 84.46875 148.980469 87.378906 154.210938 C 90.289062 159.445312 93.609375 164.800781 96.992188 169.269531 C 100.386719 173.757812 103.792969 177.285156 106.863281 178.9375 C 113.078125 182.285156 118.632812 181.847656 122.5 179.097656 C 126.382812 176.339844 128.695312 171.164062 128.21875 164.789062 C 128.097656 163.1875 127.445312 161.324219 126.347656 159.269531 C 125.25 157.21875 123.730469 155.011719 121.90625 152.730469 C 118.265625 148.171875 113.457031 143.355469 108.5625 138.957031 C 103.671875 134.558594 98.707031 130.589844 94.753906 127.722656 C 92.777344 126.289062 91.0625 125.132812 89.742188 124.34375 C 89.082031 123.945312 88.527344 123.644531 88.09375 123.445312 C 87.878906 123.347656 87.703125 123.277344 87.5625 123.230469 C 87.414062 123.183594 87.339844 123.175781 87.320312 123.175781 C 86.765625 123.175781 85.886719 123.523438 84.8125 124.207031 C 83.765625 124.875 82.621094 125.808594 81.5625 126.851562 C 80.503906 127.890625 79.542969 129.023438 78.851562 130.082031 Z M 84.1875 123.230469 C 85.285156 122.527344 86.410156 122.015625 87.320312 122.015625 C 87.515625 122.015625 87.71875 122.066406 87.914062 122.125 C 88.113281 122.191406 88.335938 122.28125 88.578125 122.394531 C 89.066406 122.617188 89.65625 122.941406 90.335938 123.347656 C 91.699219 124.164062 93.445312 125.339844 95.433594 126.785156 C 99.417969 129.675781 104.417969 133.667969 109.339844 138.09375 C 114.257812 142.515625 119.117188 147.378906 122.8125 152.007812 C 124.660156 154.324219 126.230469 156.589844 127.367188 158.722656 C 128.503906 160.847656 129.234375 162.875 129.371094 164.703125 C 129.875 171.394531 127.453125 177.003906 123.171875 180.042969 C 118.875 183.097656 112.835938 183.472656 106.3125 179.960938 C 103.011719 178.179688 99.480469 174.480469 96.070312 169.972656 C 92.644531 165.445312 89.292969 160.039062 86.367188 154.777344 C 83.4375 149.511719 80.929688 144.378906 79.191406 140.394531 C 78.324219 138.40625 77.644531 136.691406 77.203125 135.390625 C 76.980469 134.738281 76.8125 134.179688 76.714844 133.734375 C 76.664062 133.511719 76.628906 133.304688 76.609375 133.125 C 76.597656 132.980469 76.59375 132.820312 76.617188 132.664062 C 76.640625 131.683594 77.164062 130.546875 77.878906 129.449219 C 78.628906 128.300781 79.648438 127.105469 80.75 126.023438 C 81.855469 124.9375 83.058594 123.953125 84.1875 123.230469 Z M 84.1875 123.230469 "/><path style=" stroke:none;fill-rule:nonzero;fill:#698780;fill-opacity:1;" d="M 128.792969 163.765625 C 116.777344 166.640625 111.59375 176.507812 110.507812 181.082031 C 113.335938 181.84375 118.671875 184.351562 124.875 178.140625 C 129.324219 173.691406 129.449219 166.816406 128.792969 163.765625 Z M 128.792969 163.765625 "/><path style=" stroke:none;fill-rule:nonzero;fill:#698780;fill-opacity:1;" d="M 92.21875 163.4375 C 100.054688 176.507812 107.023438 180.429688 109.527344 180.753906 L 110.179688 185.003906 C 108.21875 184.675781 103.515625 181.734375 96.464844 172.585938 C 86.535156 160.042969 79.15625 140.785156 77.195312 132.726562 C 78.828125 138.28125 82.421875 147.101562 92.21875 163.4375 Z M 92.21875 163.4375 "/><path style=" stroke:none;fill-rule:nonzero;fill:#ffffff;fill-opacity:1;" d="M 77.847656 112.847656 C 78.308594 113.546875 82.570312 120.503906 84.382812 123.898438 C 82.664062 125.640625 79.0625 129.132812 78.375 129.132812 C 77.519531 129.132812 72.65625 127.679688 70.65625 125.0625 C 68.652344 122.445312 71.800781 119.246094 71.800781 118.953125 C 71.800781 118.664062 66.652344 116.335938 65.792969 115.175781 C 64.9375 114.011719 66.09375 112.792969 67.398438 113.121094 C 68.144531 113.121094 72.949219 115.734375 74.582031 116.390625 C 75.269531 116.15625 76.214844 115.410156 77.847656 112.847656 Z M 77.847656 112.847656 "/><path style=" stroke:none;fill-rule:evenodd;fill:#698780;fill-opacity:1;" d="M 77.84375 111.78125 L 78.335938 112.53125 C 78.800781 113.238281 83.070312 120.214844 84.890625 123.625 L 85.09375 124 L 84.792969 124.304688 C 83.933594 125.179688 82.59375 126.496094 81.382812 127.597656 C 80.777344 128.148438 80.195312 128.648438 79.714844 129.019531 C 79.476562 129.203125 79.253906 129.363281 79.054688 129.476562 C 78.957031 129.535156 78.855469 129.589844 78.753906 129.628906 C 78.664062 129.667969 78.527344 129.710938 78.375 129.710938 C 78.070312 129.710938 77.535156 129.597656 76.929688 129.417969 C 76.296875 129.234375 75.523438 128.964844 74.714844 128.609375 C 73.113281 127.90625 71.289062 126.839844 70.195312 125.414062 C 69 123.851562 69.378906 122.132812 69.953125 120.894531 C 70.242188 120.265625 70.59375 119.726562 70.863281 119.332031 C 70.925781 119.242188 70.980469 119.164062 71.027344 119.097656 C 70.933594 119.042969 70.824219 118.980469 70.699219 118.910156 C 70.421875 118.753906 70.089844 118.578125 69.730469 118.382812 C 69.449219 118.230469 69.152344 118.070312 68.839844 117.898438 C 68.140625 117.515625 67.402344 117.101562 66.785156 116.703125 C 66.472656 116.503906 66.183594 116.304688 65.941406 116.113281 C 65.707031 115.929688 65.484375 115.726562 65.328125 115.519531 C 64.742188 114.722656 64.824219 113.832031 65.34375 113.214844 C 65.828125 112.640625 66.644531 112.359375 67.484375 112.546875 C 67.667969 112.5625 67.875 112.628906 68.046875 112.6875 C 68.273438 112.769531 68.542969 112.878906 68.839844 113.007812 C 69.433594 113.269531 70.164062 113.621094 70.914062 113.988281 C 71.246094 114.152344 71.582031 114.316406 71.910156 114.480469 C 72.960938 115 73.945312 115.488281 74.585938 115.761719 C 75.089844 115.511719 75.925781 114.789062 77.363281 112.535156 Z M 71.359375 119.3125 Z M 66.230469 113.964844 C 66.058594 114.164062 65.992188 114.460938 66.261719 114.832031 C 66.324219 114.914062 66.449219 115.039062 66.660156 115.203125 C 66.859375 115.363281 67.117188 115.539062 67.410156 115.726562 C 67.992188 116.101562 68.703125 116.503906 69.398438 116.882812 C 69.691406 117.042969 69.984375 117.203125 70.265625 117.351562 C 70.636719 117.554688 70.980469 117.742188 71.265625 117.898438 C 71.515625 118.039062 71.734375 118.164062 71.894531 118.273438 C 71.972656 118.324219 72.054688 118.382812 72.125 118.441406 C 72.15625 118.46875 72.203125 118.515625 72.25 118.574219 C 72.277344 118.613281 72.378906 118.75 72.378906 118.953125 C 72.378906 119.074219 72.34375 119.171875 72.328125 119.207031 C 72.308594 119.253906 72.289062 119.296875 72.269531 119.328125 C 72.234375 119.390625 72.191406 119.457031 72.148438 119.519531 C 72.109375 119.578125 72.054688 119.65625 71.992188 119.742188 C 71.933594 119.824219 71.871094 119.910156 71.816406 119.992188 C 71.558594 120.363281 71.25 120.839844 71.003906 121.378906 C 70.503906 122.464844 70.308594 123.652344 71.117188 124.707031 C 72.027344 125.898438 73.632812 126.867188 75.179688 127.546875 C 75.941406 127.882812 76.667969 128.136719 77.253906 128.308594 C 77.800781 128.46875 78.175781 128.539062 78.332031 128.550781 C 78.363281 128.535156 78.40625 128.515625 78.46875 128.480469 C 78.605469 128.398438 78.789062 128.269531 79.011719 128.097656 C 79.453125 127.757812 80.007812 127.28125 80.605469 126.738281 C 81.660156 125.777344 82.824219 124.644531 83.667969 123.796875 C 82.082031 120.878906 79.042969 115.871094 77.839844 113.921875 C 76.484375 115.910156 75.570312 116.667969 74.769531 116.9375 L 74.566406 117.007812 L 74.367188 116.925781 C 73.707031 116.660156 72.542969 116.085938 71.359375 115.5 C 71.039062 115.34375 70.71875 115.183594 70.40625 115.03125 C 69.65625 114.664062 68.941406 114.320312 68.375 114.070312 C 68.089844 113.945312 67.847656 113.847656 67.664062 113.78125 C 67.511719 113.726562 67.433594 113.710938 67.40625 113.703125 C 67.394531 113.703125 67.394531 113.699219 67.398438 113.699219 L 67.328125 113.699219 L 67.257812 113.683594 C 66.808594 113.570312 66.425781 113.730469 66.230469 113.964844 Z M 78.304688 128.558594 C 78.304688 128.558594 78.308594 128.558594 78.308594 128.558594 C 78.304688 128.558594 78.304688 128.558594 78.304688 128.558594 Z M 78.304688 128.558594 "/><path style=" stroke:none;fill-rule:nonzero;fill:#698780;fill-opacity:1;" d="M 65.441406 114.753906 C 65.703125 116.585938 68.160156 118.132812 69.359375 118.675781 L 70.339844 118.023438 C 69.902344 117.804688 68.707031 117.171875 67.398438 116.390625 C 66.09375 115.605469 65.546875 114.972656 65.441406 114.753906 Z M 65.441406 114.753906 "/><path style=" stroke:none;fill-rule:nonzero;fill:#698780;fill-opacity:1;" d="M 70.011719 126.191406 C 67.660156 123.839844 68.8125 121.070312 69.683594 119.984375 L 71.316406 119.65625 C 69.359375 122.921875 70.554688 125.101562 71.316406 125.539062 Z M 70.011719 126.191406 "/><g clip-rule="nonzero" clip-path="url(#f031b52d46)"><path style=" stroke:none;fill-rule:nonzero;fill:#0c5745;fill-opacity:1;" d="M 61.851562 219.289062 L 188.117188 219.289062 C 196.992188 219.289062 205.71875 217.015625 213.46875 212.679688 C 239.835938 197.925781 248.183594 163.835938 231.621094 138.515625 L 227.289062 131.890625 C 220.066406 120.847656 218.546875 107.003906 223.199219 94.648438 L 229.019531 79.191406 C 237.441406 56.816406 218.90625 33.558594 195.28125 36.867188 C 188.15625 37.863281 180.910156 36.378906 174.746094 32.664062 L 140.757812 12.167969 C 124.933594 2.625 105.894531 0.015625 88.097656 4.945312 L 73.050781 9.117188 C 44.082031 17.140625 27.722656 47.855469 37.179688 76.460938 L 40.230469 85.683594 C 45.828125 102.617188 39.519531 121.21875 24.78125 131.21875 C 8.105469 142.53125 2.503906 164.566406 11.746094 182.503906 L 16.40625 191.542969 C 25.1875 208.585938 42.71875 219.289062 61.851562 219.289062 Z M 61.851562 219.289062 "/></g><path style=" stroke:none;fill-rule:nonzero;fill:#698780;fill-opacity:1;" d="M 231.371094 187.144531 C 231.566406 201.851562 221.585938 214.273438 216.519531 218.621094 L 208.753906 218.621094 C 214.527344 198.996094 224.070312 189.238281 229.421875 185.992188 C 230.3125 185.449219 231.359375 186.097656 231.371094 187.144531 Z M 231.371094 187.144531 "/><path style=" stroke:none;fill-rule:nonzero;fill:#ffffff;fill-opacity:1;" d="M 232.195312 138.882812 C 240.148438 168.960938 220.09375 204.582031 211.472656 217.839844 L 193.996094 217.839844 C 201.503906 161.09375 214.085938 147.300781 229.996094 137.980469 C 230.851562 137.480469 231.9375 137.921875 232.195312 138.882812 Z M 232.195312 138.882812 "/><path style=" stroke:none;fill-rule:evenodd;fill:#698780;fill-opacity:1;" d="M 230.386719 138.65625 C 230.804688 138.410156 231.324219 138.632812 231.441406 139.085938 C 235.363281 153.902344 232.394531 170.148438 227.320312 184.40625 C 222.339844 198.398438 215.363281 210.382812 211.050781 217.058594 L 194.882812 217.058594 C 198.617188 189.238281 203.585938 171.953125 209.535156 160.488281 C 215.523438 148.941406 222.527344 143.261719 230.386719 138.65625 Z M 232.945312 138.683594 C 232.554688 137.214844 230.894531 136.550781 229.605469 137.308594 C 221.554688 142.023438 214.3125 147.898438 208.15625 159.765625 C 202.019531 171.589844 196.984375 189.332031 193.226562 217.738281 L 193.109375 218.621094 L 211.890625 218.621094 L 212.121094 218.269531 C 216.453125 211.609375 223.65625 199.332031 228.78125 184.929688 C 233.902344 170.542969 236.980469 153.941406 232.945312 138.683594 Z M 232.945312 138.683594 "/><path style=" stroke:none;fill-rule:nonzero;fill:#698780;fill-opacity:1;" d="M 204.015625 157.386719 C 210.890625 182.589844 203.023438 208.785156 197.878906 218.621094 L 185.066406 218.621094 C 182.183594 187.90625 193.898438 165.566406 201.601562 156.785156 C 202.359375 155.917969 203.714844 156.273438 204.015625 157.386719 Z M 204.015625 157.386719 "/><path style=" stroke:none;fill-rule:evenodd;fill:#698780;fill-opacity:1;" d="M 221.316406 160.285156 L 225.496094 148.476562 L 226.960938 149 L 217.382812 176.046875 L 223.675781 174.148438 L 224.121094 175.644531 L 216.738281 177.871094 L 208.027344 202.472656 L 215.867188 199.539062 L 216.410156 201.003906 L 207.347656 204.390625 L 202.496094 218.101562 L 201.03125 217.578125 L 210.890625 189.730469 L 207.246094 179.453125 L 208.707031 178.929688 L 211.714844 187.40625 L 220.433594 162.773438 L 217.71875 153.648438 L 219.207031 153.199219 Z M 221.316406 160.285156 "/><path style=" stroke:none;fill-rule:evenodd;fill:#ffffff;fill-opacity:1;" d="M 197.464844 177.511719 L 199.445312 166.558594 L 200.972656 166.835938 L 196.953125 189.074219 L 202.179688 186.308594 L 202.902344 187.691406 L 196.597656 191.027344 L 193.152344 210.097656 L 197.472656 206.6875 L 198.429688 207.914062 L 192.730469 212.417969 L 191.652344 218.371094 L 190.125 218.09375 L 192.890625 202.816406 L 188.332031 196.84375 L 189.566406 195.894531 L 193.265625 200.742188 L 197.117188 179.433594 L 193.425781 175.425781 L 194.566406 174.367188 Z M 197.464844 177.511719 "/><path style=" stroke:none;fill-rule:nonzero;fill:#ffffff;fill-opacity:1;" d="M 211.003906 65.003906 L 213.324219 61.792969 C 213.738281 61.222656 214.644531 61.515625 214.640625 62.222656 L 214.621094 66.09375 C 214.621094 66.328125 214.734375 66.546875 214.921875 66.683594 L 218.355469 69.164062 C 218.910156 69.566406 218.65625 70.4375 217.976562 70.476562 L 213.703125 70.734375 C 213.492188 70.746094 213.300781 70.847656 213.171875 71.011719 L 210.277344 74.71875 C 209.847656 75.269531 208.964844 74.953125 208.980469 74.257812 L 209.078125 69.847656 C 209.082031 69.632812 208.992188 69.425781 208.828125 69.285156 L 205.222656 66.125 C 204.691406 65.660156 205.070312 64.785156 205.769531 64.855469 L 210.34375 65.304688 C 210.601562 65.328125 210.851562 65.214844 211.003906 65.003906 Z M 211.003906 65.003906 "/><path style=" stroke:none;fill-rule:nonzero;fill:#698780;fill-opacity:1;" d="M 234.53125 107.886719 L 235.652344 107.269531 C 236.273438 106.933594 236.960938 107.585938 236.65625 108.222656 L 236.117188 109.34375 C 236.015625 109.554688 236.023438 109.800781 236.132812 110.003906 L 236.878906 111.367188 C 237.207031 111.964844 236.601562 112.644531 235.972656 112.390625 L 234.488281 111.789062 C 234.296875 111.710938 234.078125 111.722656 233.894531 111.8125 L 232.292969 112.613281 C 231.667969 112.925781 231.007812 112.261719 231.320312 111.636719 L 232.042969 110.203125 C 232.140625 110.007812 232.148438 109.785156 232.0625 109.585938 L 231.34375 107.925781 C 231.066406 107.277344 231.78125 106.652344 232.386719 107.015625 L 233.808594 107.871094 C 234.027344 108.003906 234.304688 108.007812 234.53125 107.886719 Z M 234.53125 107.886719 "/><path style=" stroke:none;fill-rule:nonzero;fill:#ffffff;fill-opacity:1;" d="M 65.121094 57.371094 C 65.121094 67.128906 57.210938 75.039062 47.457031 75.039062 C 37.699219 75.039062 29.789062 67.128906 29.789062 57.371094 C 29.789062 47.617188 37.699219 39.707031 47.457031 39.707031 C 57.210938 39.707031 65.121094 47.617188 65.121094 57.371094 Z M 65.121094 57.371094 "/><path style=" stroke:none;fill-rule:evenodd;fill:#698780;fill-opacity:1;" d="M 47.457031 40.105469 C 37.921875 40.105469 30.191406 47.835938 30.191406 57.371094 C 30.191406 66.90625 37.921875 74.636719 47.457031 74.636719 C 56.992188 74.636719 64.722656 66.90625 64.722656 57.371094 C 64.722656 47.835938 56.992188 40.105469 47.457031 40.105469 Z M 29.390625 57.371094 C 29.390625 47.394531 37.480469 39.308594 47.457031 39.308594 C 57.433594 39.308594 65.519531 47.394531 65.519531 57.371094 C 65.519531 67.347656 57.433594 75.4375 47.457031 75.4375 C 37.480469 75.4375 29.390625 67.347656 29.390625 57.371094 Z M 29.390625 57.371094 "/><path style=" stroke:none;fill-rule:nonzero;fill:#698780;fill-opacity:1;" d="M 44.960938 62.925781 C 44.960938 61.34375 45.148438 60.082031 45.53125 59.144531 C 45.914062 58.207031 46.605469 57.285156 47.613281 56.378906 C 48.632812 55.464844 49.3125 54.722656 49.648438 54.160156 C 49.984375 53.582031 50.152344 52.976562 50.152344 52.34375 C 50.152344 50.433594 49.277344 49.476562 47.53125 49.476562 C 46.703125 49.476562 46.035156 49.738281 45.53125 50.257812 C 45.039062 50.765625 44.78125 51.472656 44.757812 52.378906 L 39.882812 52.378906 C 39.90625 50.21875 40.597656 48.527344 41.953125 47.304688 C 43.320312 46.085938 45.179688 45.476562 47.53125 45.476562 C 49.90625 45.476562 51.75 46.058594 53.058594 47.222656 C 54.371094 48.375 55.027344 50.007812 55.027344 52.125 C 55.027344 53.085938 54.8125 53.996094 54.386719 54.855469 C 53.960938 55.703125 53.21875 56.644531 52.152344 57.6875 L 50.792969 58.992188 C 49.941406 59.816406 49.453125 60.785156 49.328125 61.890625 L 49.261719 62.925781 Z M 44.472656 68.132812 C 44.472656 67.375 44.722656 66.753906 45.230469 66.269531 C 45.742188 65.769531 46.398438 65.523438 47.195312 65.523438 C 47.992188 65.523438 48.640625 65.769531 49.144531 66.269531 C 49.660156 66.753906 49.917969 67.375 49.917969 68.132812 C 49.917969 68.878906 49.664062 69.496094 49.160156 69.980469 C 48.667969 70.46875 48.011719 70.710938 47.195312 70.710938 C 46.378906 70.710938 45.714844 70.46875 45.210938 69.980469 C 44.71875 69.496094 44.472656 68.878906 44.472656 68.132812 Z M 44.472656 68.132812 "/><path style=" stroke:none;fill-rule:nonzero;fill:#ffffff;fill-opacity:1;" d="M 85.59375 31.957031 C 85.59375 27.523438 89.1875 23.929688 93.621094 23.929688 L 184.96875 23.929688 C 189.402344 23.929688 192.996094 27.523438 192.996094 31.957031 L 192.996094 210.566406 C 192.996094 215 189.402344 218.597656 184.96875 218.597656 L 93.621094 218.597656 C 89.1875 218.597656 85.59375 215 85.59375 210.566406 Z M 85.59375 31.957031 "/><g clip-rule="nonzero" clip-path="url(#cc69f34d97)"><path style=" stroke:none;fill-rule:evenodd;fill:#698780;fill-opacity:1;" d="M 84.925781 31.957031 C 84.925781 27.15625 88.816406 23.261719 93.621094 23.261719 L 184.964844 23.261719 C 189.769531 23.261719 193.664062 27.15625 193.664062 31.957031 L 193.664062 210.566406 C 193.664062 215.371094 189.769531 219.265625 184.964844 219.265625 L 93.621094 219.265625 C 88.816406 219.265625 84.925781 215.371094 84.925781 210.566406 Z M 93.621094 24.597656 C 89.558594 24.597656 86.261719 27.894531 86.261719 31.957031 L 86.261719 210.566406 C 86.261719 214.632812 89.558594 217.925781 93.621094 217.925781 L 184.964844 217.925781 C 189.03125 217.925781 192.324219 214.632812 192.324219 210.566406 L 192.324219 31.957031 C 192.324219 27.894531 189.03125 24.597656 184.964844 24.597656 Z M 93.621094 24.597656 "/></g><path style=" stroke:none;fill-rule:nonzero;fill:#0c5745;fill-opacity:1;" d="M 172.574219 95.511719 C 172.574219 113.988281 157.597656 128.964844 139.121094 128.964844 C 120.644531 128.964844 105.667969 113.988281 105.667969 95.511719 C 105.667969 77.035156 120.644531 62.054688 139.121094 62.054688 C 157.597656 62.054688 172.574219 77.035156 172.574219 95.511719 Z M 172.574219 95.511719 "/><path style=" stroke:none;fill-rule:nonzero;fill:#ffffff;fill-opacity:1;" d="M 186.625 72.761719 C 186.625 81.261719 179.738281 88.148438 171.238281 88.148438 C 162.738281 88.148438 155.847656 81.261719 155.847656 72.761719 C 155.847656 64.261719 162.738281 57.371094 171.238281 57.371094 C 179.738281 57.371094 186.625 64.261719 186.625 72.761719 Z M 186.625 72.761719 "/><path style=" stroke:none;fill-rule:evenodd;fill:#698780;fill-opacity:1;" d="M 171.238281 58.042969 C 163.105469 58.042969 156.515625 64.632812 156.515625 72.761719 C 156.515625 80.890625 163.105469 87.480469 171.238281 87.480469 C 179.367188 87.480469 185.957031 80.890625 185.957031 72.761719 C 185.957031 64.632812 179.367188 58.042969 171.238281 58.042969 Z M 155.179688 72.761719 C 155.179688 63.890625 162.367188 56.703125 171.238281 56.703125 C 180.105469 56.703125 187.292969 63.890625 187.292969 72.761719 C 187.292969 81.628906 180.105469 88.820312 171.238281 88.820312 C 162.367188 88.820312 155.179688 81.628906 155.179688 72.761719 Z M 155.179688 72.761719 "/><path style=" stroke:none;fill-rule:evenodd;fill:#698780;fill-opacity:1;" d="M 167.054688 72.425781 L 162.539062 76.941406 L 167.054688 81.460938 L 171.570312 76.941406 L 176.085938 81.460938 L 180.605469 76.941406 L 176.085938 72.425781 L 180.605469 67.910156 L 176.089844 63.394531 L 171.570312 67.910156 L 167.054688 63.394531 L 162.539062 67.910156 Z M 167.054688 72.425781 "/><path style=" stroke:none;fill-rule:nonzero;fill:#698780;fill-opacity:1;" d="M 117.941406 30.457031 L 114.457031 23.929688 L 164.132812 23.929688 L 160.039062 30.75 C 158.832031 32.765625 156.652344 34 154.300781 34 L 123.84375 34 C 121.371094 34 119.101562 32.636719 117.941406 30.457031 Z M 117.941406 30.457031 "/><path style=" stroke:none;fill-rule:nonzero;fill:#698780;fill-opacity:1;" d="M 191.679688 27.957031 L 86.226562 27.957031 C 89.71875 24.464844 93.050781 23.816406 94.28125 23.929688 L 183.625 23.929688 C 187.921875 23.929688 190.785156 26.613281 191.679688 27.957031 Z M 191.679688 27.957031 "/><path style=" stroke:none;fill-rule:nonzero;fill:#698780;fill-opacity:1;" d="M 191.597656 214.777344 L 86.933594 214.777344 C 90.558594 218.324219 92.65625 218.984375 93.933594 218.871094 L 184.59375 218.871094 C 189.058594 218.871094 190.667969 216.144531 191.597656 214.777344 Z M 191.597656 214.777344 "/><path style=" stroke:none;fill-rule:nonzero;fill:#698780;fill-opacity:1;" d="M 100.984375 49.34375 C 100.984375 48.605469 101.582031 48.003906 102.320312 48.003906 L 137.953125 48.003906 C 138.691406 48.003906 139.292969 48.605469 139.292969 49.34375 L 139.292969 50.769531 C 139.292969 51.511719 138.691406 52.109375 137.953125 52.109375 L 102.320312 52.109375 C 101.582031 52.109375 100.984375 51.511719 100.984375 50.769531 Z M 100.984375 49.34375 "/><path style=" stroke:none;fill-rule:nonzero;fill:#698780;fill-opacity:1;" d="M 100.984375 139.667969 C 100.984375 138.929688 101.582031 138.332031 102.320312 138.332031 L 137.953125 138.332031 C 138.691406 138.332031 139.292969 138.929688 139.292969 139.667969 L 139.292969 141.097656 C 139.292969 141.835938 138.691406 142.4375 137.953125 142.4375 L 102.320312 142.4375 C 101.582031 142.4375 100.984375 141.835938 100.984375 141.097656 Z M 100.984375 139.667969 "/><path style=" stroke:none;fill-rule:nonzero;fill:#698780;fill-opacity:1;" d="M 100.984375 175.132812 C 100.984375 174.390625 101.582031 173.792969 102.320312 173.792969 L 123.730469 173.792969 C 124.472656 173.792969 125.070312 174.390625 125.070312 175.132812 L 125.070312 176.46875 C 125.070312 177.207031 124.472656 177.808594 123.730469 177.808594 L 102.320312 177.808594 C 101.582031 177.808594 100.984375 177.207031 100.984375 176.46875 Z M 100.984375 175.132812 "/><path style=" stroke:none;fill-rule:evenodd;fill:#0c5745;fill-opacity:1;" d="M 100.3125 149.707031 C 100.3125 148.597656 101.210938 147.699219 102.320312 147.699219 L 173.914062 147.699219 C 175.023438 147.699219 175.921875 148.597656 175.921875 149.707031 L 175.921875 163.089844 C 175.921875 164.195312 175.023438 165.09375 173.914062 165.09375 L 102.320312 165.09375 C 101.210938 165.09375 100.3125 164.195312 100.3125 163.089844 Z M 102.320312 149.035156 C 101.953125 149.035156 101.652344 149.335938 101.652344 149.707031 L 101.652344 163.089844 C 101.652344 163.457031 101.953125 163.757812 102.320312 163.757812 L 173.914062 163.757812 C 174.28125 163.757812 174.582031 163.457031 174.582031 163.089844 L 174.582031 149.707031 C 174.582031 149.335938 174.28125 149.035156 173.914062 149.035156 Z M 102.320312 149.035156 "/><path style=" stroke:none;fill-rule:evenodd;fill:#0c5745;fill-opacity:1;" d="M 100.3125 184.5 C 100.3125 183.390625 101.210938 182.492188 102.320312 182.492188 L 173.914062 182.492188 C 175.023438 182.492188 175.921875 183.390625 175.921875 184.5 L 175.921875 197.878906 C 175.921875 198.988281 175.023438 199.886719 173.914062 199.886719 L 102.320312 199.886719 C 101.210938 199.886719 100.3125 198.988281 100.3125 197.878906 Z M 102.320312 183.828125 C 101.953125 183.828125 101.652344 184.128906 101.652344 184.5 L 101.652344 197.878906 C 101.652344 198.25 101.953125 198.550781 102.320312 198.550781 L 173.914062 198.550781 C 174.28125 198.550781 174.582031 198.25 174.582031 197.878906 L 174.582031 184.5 C 174.582031 184.128906 174.28125 183.828125 173.914062 183.828125 Z M 102.320312 183.828125 "/><path style=" stroke:none;fill-rule:evenodd;fill:#698780;fill-opacity:1;" d="M 184.117188 33.496094 L 185.453125 33.496094 L 185.453125 38.96875 L 184.117188 38.96875 Z M 184.117188 33.496094 "/><path style=" stroke:none;fill-rule:evenodd;fill:#698780;fill-opacity:1;" d="M 180.695312 34.179688 L 182.035156 34.179688 L 182.035156 38.96875 L 180.695312 38.96875 Z M 180.695312 34.179688 "/><path style=" stroke:none;fill-rule:evenodd;fill:#698780;fill-opacity:1;" d="M 177.277344 35.546875 L 178.613281 35.546875 L 178.613281 38.96875 L 177.277344 38.96875 Z M 177.277344 35.546875 "/><path style=" stroke:none;fill-rule:evenodd;fill:#698780;fill-opacity:1;" d="M 173.855469 36.914062 L 175.195312 36.914062 L 175.195312 38.96875 L 173.855469 38.96875 Z M 173.855469 36.914062 "/><path style=" stroke:none;fill-rule:evenodd;fill:#698780;fill-opacity:1;" d="M 139.105469 75.882812 C 133.015625 75.882812 128.082031 80.898438 128.082031 87.089844 L 128.082031 94.761719 C 128.082031 95.671875 128.816406 96.410156 129.726562 96.410156 C 130.640625 96.410156 131.378906 95.671875 131.378906 94.761719 L 131.378906 86.878906 C 131.378906 82.542969 134.835938 79.023438 139.105469 79.023438 C 143.375 79.023438 146.832031 82.542969 146.832031 86.878906 L 146.832031 94.351562 C 146.832031 95.261719 147.570312 96 148.480469 96 C 149.390625 96 150.128906 95.261719 150.128906 94.351562 L 150.128906 87.089844 C 150.128906 80.898438 145.195312 75.882812 139.105469 75.882812 Z M 139.105469 75.882812 "/><path style=" stroke:none;fill-rule:nonzero;fill:#698780;fill-opacity:1;" d="M 125.039062 94.617188 C 125.039062 93.507812 125.9375 92.609375 127.046875 92.609375 L 151.164062 92.609375 C 152.273438 92.609375 153.171875 93.507812 153.171875 94.617188 L 153.171875 112.652344 C 153.171875 113.761719 152.273438 114.660156 151.164062 114.660156 L 127.046875 114.660156 C 125.9375 114.660156 125.039062 113.761719 125.039062 112.652344 Z M 125.039062 94.617188 "/><path style=" stroke:none;fill-rule:evenodd;fill:#ffffff;fill-opacity:1;" d="M 140.898438 104.546875 C 141.550781 104.023438 141.96875 103.21875 141.96875 102.316406 C 141.96875 100.734375 140.6875 99.453125 139.105469 99.453125 C 137.523438 99.453125 136.242188 100.734375 136.242188 102.316406 C 136.242188 103.296875 136.738281 104.164062 137.492188 104.679688 L 136.855469 107.363281 C 136.757812 107.765625 137.0625 108.148438 137.472656 108.148438 L 140.953125 108.148438 C 141.363281 108.148438 141.667969 107.765625 141.570312 107.363281 Z M 140.898438 104.546875 "/><path style=" stroke:none;fill-rule:nonzero;fill:#698780;fill-opacity:1;" d="M 181.046875 154.390625 L 164.769531 154.390625 C 163.761719 154.390625 163.113281 153.3125 163.589844 152.421875 L 171.730469 137.195312 C 172.234375 136.25 173.585938 136.25 174.089844 137.195312 L 182.226562 152.421875 C 182.703125 153.3125 182.058594 154.390625 181.046875 154.390625 Z M 181.046875 154.390625 "/><path style=" stroke:none;fill-rule:nonzero;fill:#ffffff;fill-opacity:1;" d="M 172.164062 148.667969 L 173.628906 148.667969 L 173.859375 142.347656 L 171.933594 142.347656 Z M 173.914062 150.640625 C 173.914062 150.324219 173.816406 150.070312 173.628906 149.871094 C 173.433594 149.667969 173.195312 149.566406 172.910156 149.566406 C 172.625 149.566406 172.386719 149.667969 172.195312 149.871094 C 172.003906 150.070312 171.90625 150.324219 171.90625 150.640625 C 171.90625 150.953125 172.003906 151.210938 172.195312 151.414062 C 172.386719 151.613281 172.625 151.714844 172.910156 151.714844 C 173.195312 151.714844 173.433594 151.613281 173.628906 151.414062 C 173.816406 151.210938 173.914062 150.953125 173.914062 150.640625 Z M 173.914062 150.640625 "/><path style=" stroke:none;fill-rule:nonzero;fill:#0c5745;fill-opacity:1;" d="M 111.082031 156.09375 C 111.082031 157.035156 110.320312 157.796875 109.378906 157.796875 C 108.4375 157.796875 107.675781 157.035156 107.675781 156.09375 C 107.675781 155.152344 108.4375 154.390625 109.378906 154.390625 C 110.320312 154.390625 111.082031 155.152344 111.082031 156.09375 Z M 111.082031 156.09375 "/><path style=" stroke:none;fill-rule:nonzero;fill:#0c5745;fill-opacity:1;" d="M 119.261719 156.09375 C 119.261719 157.035156 118.496094 157.796875 117.554688 157.796875 C 116.617188 157.796875 115.851562 157.035156 115.851562 156.09375 C 115.851562 155.152344 116.617188 154.390625 117.554688 154.390625 C 118.496094 154.390625 119.261719 155.152344 119.261719 156.09375 Z M 119.261719 156.09375 "/><path style=" stroke:none;fill-rule:nonzero;fill:#0c5745;fill-opacity:1;" d="M 127.4375 156.09375 C 127.4375 157.035156 126.675781 157.796875 125.734375 157.796875 C 124.792969 157.796875 124.03125 157.035156 124.03125 156.09375 C 124.03125 155.152344 124.792969 154.390625 125.734375 154.390625 C 126.675781 154.390625 127.4375 155.152344 127.4375 156.09375 Z M 127.4375 156.09375 "/><path style=" stroke:none;fill-rule:nonzero;fill:#0c5745;fill-opacity:1;" d="M 135.617188 156.09375 C 135.617188 157.035156 134.851562 157.796875 133.914062 157.796875 C 132.972656 157.796875 132.207031 157.035156 132.207031 156.09375 C 132.207031 155.152344 132.972656 154.390625 133.914062 154.390625 C 134.851562 154.390625 135.617188 155.152344 135.617188 156.09375 Z M 135.617188 156.09375 "/><path style=" stroke:none;fill-rule:nonzero;fill:#0c5745;fill-opacity:1;" d="M 143.792969 156.09375 C 143.792969 157.035156 143.03125 157.796875 142.089844 157.796875 C 141.148438 157.796875 140.386719 157.035156 140.386719 156.09375 C 140.386719 155.152344 141.148438 154.390625 142.089844 154.390625 C 143.03125 154.390625 143.792969 155.152344 143.792969 156.09375 Z M 143.792969 156.09375 "/><path style=" stroke:none;fill-rule:nonzero;fill:#0c5745;fill-opacity:1;" d="M 151.972656 156.09375 C 151.972656 157.035156 151.210938 157.796875 150.269531 157.796875 C 149.328125 157.796875 148.566406 157.035156 148.566406 156.09375 C 148.566406 155.152344 149.328125 154.390625 150.269531 154.390625 C 151.210938 154.390625 151.972656 155.152344 151.972656 156.09375 Z M 151.972656 156.09375 "/><path style=" stroke:none;fill-rule:nonzero;fill:#ffffff;fill-opacity:1;" d="M 61.214844 90.367188 C 51.726562 97.082031 55.714844 109.015625 57.503906 113.640625 L 56.71875 123.078125 C 57.53125 126.046875 60.472656 131.988281 65.753906 131.988281 C 71.035156 131.988281 73.453125 126.917969 74.003906 124.382812 L 73.179688 117.222656 C 79.367188 114.984375 79.777344 106.03125 79.367188 98.871094 C 78.875 90.367188 69.574219 84.453125 61.214844 90.367188 Z M 61.214844 90.367188 "/><path style=" stroke:none;fill-rule:evenodd;fill:#698780;fill-opacity:1;" d="M 72.972656 89.726562 C 69.734375 88.027344 65.554688 88.007812 61.550781 90.839844 C 57.003906 94.058594 55.675781 98.515625 55.710938 102.78125 C 55.742188 107.074219 57.15625 111.132812 58.042969 113.433594 L 58.089844 113.554688 L 57.304688 123.023438 C 57.707031 124.445312 58.605469 126.542969 60.011719 128.285156 C 61.445312 130.066406 63.351562 131.410156 65.753906 131.410156 C 68.183594 131.410156 69.957031 130.25 71.207031 128.765625 C 72.4375 127.300781 73.140625 125.542969 73.417969 124.351562 L 72.550781 116.832031 L 72.980469 116.675781 C 75.808594 115.652344 77.378906 113.085938 78.183594 109.757812 C 78.988281 106.429688 78.992188 102.472656 78.789062 98.90625 C 78.554688 94.859375 76.222656 91.433594 72.972656 89.726562 Z M 56.144531 123.023438 L 56.914062 113.726562 C 56.011719 111.375 54.585938 107.222656 54.550781 102.792969 C 54.515625 98.257812 55.941406 93.390625 60.882812 89.894531 C 65.234375 86.816406 69.882812 86.796875 73.511719 88.699219 C 77.121094 90.597656 79.6875 94.382812 79.945312 98.839844 C 80.152344 102.433594 80.15625 106.53125 79.308594 110.027344 C 78.5 113.375 76.882812 116.289062 73.804688 117.597656 L 74.589844 124.410156 L 74.570312 124.503906 C 74.277344 125.847656 73.5 127.839844 72.09375 129.511719 C 70.679688 131.191406 68.605469 132.570312 65.753906 132.570312 C 62.871094 132.570312 60.667969 130.945312 59.109375 129.011719 C 57.621094 127.167969 56.667969 124.980469 56.21875 123.441406 L 56.101562 123.429688 Z M 56.144531 123.023438 "/><path style=" stroke:none;fill-rule:nonzero;fill:#698780;fill-opacity:1;" d="M 57.800781 111.300781 L 56.980469 119.414062 C 56.703125 118.816406 56.074219 117.070312 55.746094 114.90625 C 55.335938 112.203125 48.757812 101.832031 50.8125 94.171875 C 52.457031 88.039062 56.980469 88.308594 59.035156 89.210938 C 60.265625 86.957031 67.664062 79.292969 78.351562 80.195312 C 89.035156 81.097656 90.269531 96.425781 81.636719 98.679688 C 74.734375 100.480469 66.980469 99.429688 63.964844 98.679688 C 63.691406 99.277344 62.898438 101.292969 61.910156 104.539062 C 60.679688 108.597656 60.679688 109.496094 60.265625 106.792969 C 59.855469 104.089844 58.210938 99.128906 56.15625 104.089844 C 54.511719 108.054688 56.566406 110.550781 57.800781 111.300781 Z M 57.800781 111.300781 "/><path style=" stroke:none;fill-rule:nonzero;fill:#698780;fill-opacity:1;" d="M 63.769531 117.058594 C 66.597656 118.722656 70.96875 117.753906 72.804688 117.058594 L 73.195312 119.972656 C 69.109375 120.972656 65.210938 118.445312 63.769531 117.058594 Z M 63.769531 117.058594 "/><path style=" stroke:none;fill-rule:nonzero;fill:#ffffff;fill-opacity:1;" d="M 65.390625 126.984375 C 71.308594 126.984375 74.175781 123.6875 75.035156 121.722656 C 75.136719 121.492188 75.351562 121.332031 75.601562 121.34375 C 78.867188 121.507812 83.5 123.488281 84.664062 123.890625 C 84.695312 123.898438 84.722656 123.910156 84.75 123.925781 C 93.878906 128.832031 102.535156 137.511719 107.960938 168.824219 C 109.71875 181.886719 112.859375 209.152344 111.351562 213.675781 C 109.84375 218.199219 99.421875 218.824219 94.398438 218.574219 L 28.472656 218.574219 C 26.726562 218.574219 27.269531 215.820312 28.007812 213.730469 C 28.171875 213.261719 27.722656 212.742188 27.230469 212.8125 C 24.226562 213.230469 18.492188 212.6875 12.273438 208.019531 C 0.21875 198.222656 14.15625 159.023438 23.199219 140.554688 C 30.304688 126.042969 47.195312 121.734375 55.171875 121.347656 C 55.429688 121.335938 55.648438 121.5 55.753906 121.734375 C 56.621094 123.703125 59.484375 126.984375 65.390625 126.984375 Z M 65.390625 126.984375 "/><g clip-rule="nonzero" clip-path="url(#61124093cf)"><path style=" stroke:none;fill-rule:evenodd;fill:#698780;fill-opacity:1;" d="M 75.582031 121.929688 C 75.574219 121.9375 75.570312 121.945312 75.566406 121.953125 C 74.621094 124.117188 71.558594 127.566406 65.390625 127.566406 C 59.238281 127.566406 56.175781 124.128906 55.222656 121.96875 C 55.210938 121.945312 55.199219 121.933594 55.195312 121.929688 C 51.273438 122.117188 45.136719 123.277344 39.109375 126.175781 C 33.082031 129.078125 27.199219 133.703125 23.71875 140.808594 C 19.210938 150.015625 13.484375 164.390625 10.390625 177.671875 C 8.839844 184.3125 7.957031 190.648438 8.203125 195.914062 C 8.445312 201.195312 9.816406 205.269531 12.628906 207.5625 C 18.722656 212.132812 24.296875 212.636719 27.148438 212.238281 C 27.625 212.171875 28.046875 212.390625 28.304688 212.695312 C 28.566406 213 28.71875 213.457031 28.550781 213.925781 C 28.1875 214.953125 27.894531 216.089844 27.886719 216.941406 C 27.882812 217.371094 27.953125 217.648438 28.050781 217.800781 C 28.117188 217.910156 28.21875 217.996094 28.472656 217.996094 L 94.425781 217.996094 C 96.90625 218.121094 100.71875 218.027344 104.078125 217.347656 C 105.757812 217.007812 107.296875 216.527344 108.496094 215.875 C 109.695312 215.21875 110.488281 214.429688 110.800781 213.492188 C 110.960938 213.007812 111.074219 212.15625 111.128906 210.957031 C 111.183594 209.777344 111.179688 208.304688 111.125 206.613281 C 111.015625 203.234375 110.710938 199.007812 110.300781 194.503906 C 109.488281 185.507812 108.265625 175.4375 107.386719 168.910156 C 104.679688 153.296875 101.179688 143.378906 97.246094 136.769531 C 93.324219 130.179688 88.964844 126.851562 84.476562 124.4375 C 84.476562 124.4375 84.472656 124.4375 84.476562 124.4375 C 84.273438 124.367188 83.964844 124.25 83.589844 124.105469 C 83.410156 124.039062 83.21875 123.964844 83.011719 123.886719 C 82.367188 123.644531 81.585938 123.359375 80.738281 123.078125 C 79.042969 122.515625 77.136719 122.003906 75.585938 121.921875 C 75.585938 121.925781 75.582031 121.925781 75.582031 121.929688 Z M 74.503906 121.488281 C 74.683594 121.082031 75.097656 120.738281 75.632812 120.761719 C 77.347656 120.851562 79.382812 121.40625 81.105469 121.976562 C 81.96875 122.265625 82.769531 122.558594 83.421875 122.804688 C 83.644531 122.886719 83.847656 122.964844 84.03125 123.035156 C 84.390625 123.171875 84.664062 123.277344 84.851562 123.339844 C 84.910156 123.359375 84.96875 123.386719 85.023438 123.417969 C 89.664062 125.910156 94.195312 129.375 98.242188 136.175781 C 102.277344 142.960938 105.8125 153.035156 108.53125 168.722656 L 108.53125 168.734375 L 108.535156 168.746094 C 109.414062 175.285156 110.640625 185.375 111.457031 194.398438 C 111.863281 198.910156 112.171875 203.164062 112.28125 206.578125 C 112.339844 208.28125 112.34375 209.785156 112.289062 211.011719 C 112.234375 212.21875 112.117188 213.210938 111.898438 213.859375 C 111.457031 215.183594 110.382812 216.164062 109.050781 216.894531 C 107.710938 217.621094 106.046875 218.132812 104.308594 218.484375 C 100.832031 219.183594 96.925781 219.28125 94.382812 219.152344 L 28.472656 219.152344 C 27.855469 219.152344 27.367188 218.894531 27.070312 218.421875 C 26.796875 217.992188 26.722656 217.449219 26.730469 216.929688 C 26.738281 215.882812 27.085938 214.597656 27.460938 213.539062 C 27.460938 213.535156 27.46875 213.5 27.421875 213.445312 C 27.375 213.390625 27.328125 213.382812 27.308594 213.386719 C 24.15625 213.824219 18.265625 213.242188 11.925781 208.484375 L 11.917969 208.476562 L 11.910156 208.472656 C 8.703125 205.863281 7.296875 201.367188 7.046875 195.96875 C 6.792969 190.550781 7.703125 184.097656 9.261719 177.40625 C 12.382812 164.019531 18.144531 149.5625 22.679688 140.300781 C 26.304688 132.894531 32.417969 128.109375 38.605469 125.132812 C 44.792969 122.15625 51.085938 120.96875 55.144531 120.769531 C 55.679688 120.746094 56.101562 121.085938 56.28125 121.5 C 57.066406 123.277344 59.734375 126.40625 65.390625 126.40625 C 71.058594 126.40625 73.726562 123.265625 74.503906 121.488281 Z M 74.503906 121.488281 "/></g><path style=" stroke:none;fill-rule:nonzero;fill:#698780;fill-opacity:1;" d="M 25.847656 212.113281 C 21.703125 203.304688 12.921875 194.59375 8.230469 190.636719 C 7.875 190.332031 7.335938 190.570312 7.324219 191.039062 C 7.210938 195.089844 7.753906 202.503906 10.765625 206.890625 C 13.84375 211.367188 21.265625 212.726562 25.328125 212.902344 C 25.746094 212.917969 26.023438 212.492188 25.847656 212.113281 Z M 25.847656 212.113281 "/><path style=" stroke:none;fill-rule:nonzero;fill:#698780;fill-opacity:1;" d="M 64.261719 189.554688 C 47.082031 207.042969 32.742188 212.671875 27.71875 213.296875 L 26.964844 216.691406 C 41.734375 214.277344 57.980469 197.59375 64.261719 189.554688 Z M 64.261719 189.554688 "/><path style=" stroke:none;fill-rule:nonzero;fill:#ffffff;fill-opacity:1;" d="M 68.40625 183.925781 L 68.40625 158.382812 C 68.40625 158.101562 68.609375 157.859375 68.886719 157.8125 L 81.28125 155.746094 C 81.636719 155.6875 81.960938 155.964844 81.957031 156.324219 L 81.597656 181.183594 C 81.59375 181.449219 81.40625 181.679688 81.144531 181.738281 L 69.113281 184.492188 C 68.75 184.574219 68.40625 184.296875 68.40625 183.925781 Z M 68.40625 183.925781 "/><path style=" stroke:none;fill-rule:evenodd;fill:#698780;fill-opacity:1;" d="M 81.1875 155.171875 C 81.898438 155.054688 82.546875 155.609375 82.535156 156.332031 L 82.175781 181.191406 C 82.167969 181.726562 81.796875 182.183594 81.273438 182.304688 L 69.242188 185.054688 C 68.515625 185.222656 67.824219 184.671875 67.824219 183.925781 L 67.824219 158.382812 C 67.824219 157.816406 68.234375 157.332031 68.792969 157.238281 Z M 81.375 156.316406 L 68.984375 158.382812 L 68.886719 157.8125 L 68.984375 158.382812 L 68.984375 183.925781 L 81.015625 181.171875 Z M 81.375 156.316406 "/><path style=" stroke:none;fill-rule:nonzero;fill:#698780;fill-opacity:1;" d="M 36.007812 176.359375 C 35.402344 177.566406 28.972656 180.632812 25.835938 182.015625 C 29.148438 181.109375 48.5625 174.351562 57.855469 171.082031 C 55.21875 171.082031 39.773438 175.605469 39.398438 174.851562 C 39.09375 174.25 40.277344 166.5625 40.902344 162.792969 C 39.523438 166.8125 36.609375 175.15625 36.007812 176.359375 Z M 36.007812 176.359375 "/><path style=" stroke:none;fill-rule:nonzero;fill:#ffffff;fill-opacity:1;" d="M 63.507812 169.578125 C 62 171.988281 60.367188 173.09375 59.742188 173.34375 L 62.378906 182.015625 C 65.769531 180.128906 71.417969 180.507812 75.5625 178.246094 C 79.707031 175.984375 78.953125 165.054688 76.691406 165.808594 C 74.882812 166.410156 70.414062 168.320312 68.40625 169.199219 L 68.40625 163.921875 C 65.769531 165.054688 65.390625 166.5625 63.507812 169.578125 Z M 63.507812 169.578125 "/><path style=" stroke:none;fill-rule:evenodd;fill:#698780;fill-opacity:1;" d="M 68.984375 163.042969 L 68.984375 168.316406 C 71.207031 167.355469 74.890625 165.796875 76.507812 165.257812 C 77.050781 165.078125 77.53125 165.277344 77.875 165.625 C 78.191406 165.945312 78.425781 166.417969 78.601562 166.929688 C 78.953125 167.964844 79.132812 169.402344 79.109375 170.90625 C 79.085938 172.410156 78.855469 174.03125 78.351562 175.4375 C 77.851562 176.832031 77.054688 178.09375 75.839844 178.753906 C 73.671875 179.9375 71.132812 180.421875 68.789062 180.84375 C 68.703125 180.855469 68.621094 180.871094 68.535156 180.886719 C 66.246094 181.300781 64.195312 181.667969 62.660156 182.519531 L 62.03125 182.871094 L 59.03125 173.003906 L 59.523438 172.808594 C 60.011719 172.613281 61.558594 171.605469 63.015625 169.269531 C 63.390625 168.667969 63.707031 168.128906 63.996094 167.632812 C 64.0625 167.515625 64.128906 167.398438 64.195312 167.285156 C 64.539062 166.703125 64.859375 166.175781 65.207031 165.699219 C 65.925781 164.722656 66.761719 163.996094 68.175781 163.390625 Z M 65 168.210938 C 64.710938 168.707031 64.386719 169.265625 64 169.882812 C 62.714844 171.941406 61.316406 173.121094 60.4375 173.640625 L 62.730469 181.1875 C 64.339844 180.460938 66.296875 180.109375 68.238281 179.761719 C 68.355469 179.742188 68.46875 179.722656 68.585938 179.699219 C 70.953125 179.273438 73.308594 178.816406 75.285156 177.734375 C 76.144531 177.269531 76.804688 176.3125 77.257812 175.046875 C 77.710938 173.789062 77.925781 172.300781 77.949219 170.886719 C 77.972656 169.46875 77.800781 168.171875 77.503906 167.300781 C 77.355469 166.859375 77.191406 166.582031 77.050781 166.441406 C 76.945312 166.332031 76.902344 166.347656 76.878906 166.355469 C 76.878906 166.355469 76.878906 166.355469 76.875 166.355469 C 75.097656 166.949219 70.65625 168.847656 68.636719 169.730469 L 67.824219 170.085938 L 67.824219 164.855469 C 67.085938 165.285156 66.59375 165.773438 66.140625 166.386719 C 65.832031 166.808594 65.539062 167.289062 65.195312 167.871094 C 65.132812 167.984375 65.066406 168.09375 65 168.210938 Z M 65 168.210938 "/><path style=" stroke:none;fill-rule:nonzero;fill:#ffffff;fill-opacity:1;" d="M 87.320312 122.597656 C 84.382812 122.597656 77.195312 129.457031 77.195312 132.726562 C 76.542969 135.339844 93.851562 172.585938 106.585938 179.449219 C 119.324219 186.308594 129.773438 177.816406 128.792969 164.746094 C 127.765625 151.023438 90.730469 122.597656 87.320312 122.597656 Z M 87.320312 122.597656 "/><path style=" stroke:none;fill-rule:evenodd;fill:#698780;fill-opacity:1;" d="M 78.851562 130.082031 C 78.144531 131.164062 77.777344 132.085938 77.777344 132.726562 L 77.777344 132.796875 L 77.757812 132.863281 C 77.757812 132.863281 77.757812 132.863281 77.761719 132.863281 C 77.761719 132.863281 77.753906 132.90625 77.765625 133.015625 C 77.773438 133.128906 77.800781 133.285156 77.84375 133.476562 C 77.933594 133.867188 78.082031 134.382812 78.296875 135.015625 C 78.726562 136.277344 79.390625 137.957031 80.253906 139.933594 C 81.976562 143.882812 84.46875 148.980469 87.378906 154.210938 C 90.289062 159.445312 93.609375 164.800781 96.992188 169.269531 C 100.386719 173.757812 103.792969 177.285156 106.863281 178.9375 C 113.078125 182.285156 118.632812 181.847656 122.5 179.097656 C 126.382812 176.339844 128.695312 171.164062 128.21875 164.789062 C 128.097656 163.1875 127.445312 161.324219 126.347656 159.269531 C 125.25 157.21875 123.730469 155.011719 121.90625 152.730469 C 118.265625 148.171875 113.457031 143.355469 108.5625 138.957031 C 103.671875 134.558594 98.707031 130.589844 94.753906 127.722656 C 92.777344 126.289062 91.0625 125.132812 89.742188 124.34375 C 89.082031 123.945312 88.527344 123.644531 88.09375 123.445312 C 87.878906 123.347656 87.703125 123.277344 87.5625 123.230469 C 87.414062 123.183594 87.339844 123.175781 87.320312 123.175781 C 86.765625 123.175781 85.886719 123.523438 84.8125 124.207031 C 83.765625 124.875 82.621094 125.808594 81.5625 126.851562 C 80.503906 127.890625 79.542969 129.023438 78.851562 130.082031 Z M 84.1875 123.230469 C 85.285156 122.527344 86.410156 122.015625 87.320312 122.015625 C 87.515625 122.015625 87.71875 122.066406 87.914062 122.125 C 88.113281 122.191406 88.335938 122.28125 88.578125 122.394531 C 89.066406 122.617188 89.65625 122.941406 90.335938 123.347656 C 91.699219 124.164062 93.445312 125.339844 95.433594 126.785156 C 99.417969 129.675781 104.417969 133.667969 109.339844 138.09375 C 114.257812 142.515625 119.117188 147.378906 122.8125 152.007812 C 124.660156 154.324219 126.230469 156.589844 127.367188 158.722656 C 128.503906 160.847656 129.234375 162.875 129.371094 164.703125 C 129.875 171.394531 127.453125 177.003906 123.171875 180.042969 C 118.875 183.097656 112.835938 183.472656 106.3125 179.960938 C 103.011719 178.179688 99.480469 174.480469 96.070312 169.972656 C 92.644531 165.445312 89.292969 160.039062 86.367188 154.777344 C 83.4375 149.511719 80.929688 144.378906 79.191406 140.394531 C 78.324219 138.40625 77.644531 136.691406 77.203125 135.390625 C 76.980469 134.738281 76.8125 134.179688 76.714844 133.734375 C 76.664062 133.511719 76.628906 133.304688 76.609375 133.125 C 76.597656 132.980469 76.59375 132.820312 76.617188 132.664062 C 76.640625 131.683594 77.164062 130.546875 77.878906 129.449219 C 78.628906 128.300781 79.648438 127.105469 80.75 126.023438 C 81.855469 124.9375 83.058594 123.953125 84.1875 123.230469 Z M 84.1875 123.230469 "/><path style=" stroke:none;fill-rule:nonzero;fill:#698780;fill-opacity:1;" d="M 128.792969 163.765625 C 116.777344 166.640625 111.59375 176.507812 110.507812 181.082031 C 113.335938 181.84375 118.671875 184.351562 124.875 178.140625 C 129.324219 173.691406 129.449219 166.816406 128.792969 163.765625 Z M 128.792969 163.765625 "/><path style=" stroke:none;fill-rule:nonzero;fill:#698780;fill-opacity:1;" d="M 92.21875 163.4375 C 100.054688 176.507812 107.023438 180.429688 109.527344 180.753906 L 110.179688 185.003906 C 108.21875 184.675781 103.515625 181.734375 96.464844 172.585938 C 86.535156 160.042969 79.15625 140.785156 77.195312 132.726562 C 78.828125 138.28125 82.421875 147.101562 92.21875 163.4375 Z M 92.21875 163.4375 "/><path style=" stroke:none;fill-rule:nonzero;fill:#ffffff;fill-opacity:1;" d="M 77.847656 112.847656 C 78.308594 113.546875 82.570312 120.503906 84.382812 123.898438 C 82.664062 125.640625 79.0625 129.132812 78.375 129.132812 C 77.519531 129.132812 72.65625 127.679688 70.65625 125.0625 C 68.652344 122.445312 71.800781 119.246094 71.800781 118.953125 C 71.800781 118.664062 66.652344 116.335938 65.792969 115.175781 C 64.9375 114.011719 66.09375 112.792969 67.398438 113.121094 C 68.144531 113.121094 72.949219 115.734375 74.582031 116.390625 C 75.269531 116.15625 76.214844 115.410156 77.847656 112.847656 Z M 77.847656 112.847656 "/><path style=" stroke:none;fill-rule:evenodd;fill:#698780;fill-opacity:1;" d="M 77.84375 111.78125 L 78.335938 112.53125 C 78.800781 113.238281 83.070312 120.214844 84.890625 123.625 L 85.09375 124 L 84.792969 124.304688 C 83.933594 125.179688 82.59375 126.496094 81.382812 127.597656 C 80.777344 128.148438 80.195312 128.648438 79.714844 129.019531 C 79.476562 129.203125 79.253906 129.363281 79.054688 129.476562 C 78.957031 129.535156 78.855469 129.589844 78.753906 129.628906 C 78.664062 129.667969 78.527344 129.710938 78.375 129.710938 C 78.070312 129.710938 77.535156 129.597656 76.929688 129.417969 C 76.296875 129.234375 75.523438 128.964844 74.714844 128.609375 C 73.113281 127.90625 71.289062 126.839844 70.195312 125.414062 C 69 123.851562 69.378906 122.132812 69.953125 120.894531 C 70.242188 120.265625 70.59375 119.726562 70.863281 119.332031 C 70.925781 119.242188 70.980469 119.164062 71.027344 119.097656 C 70.933594 119.042969 70.824219 118.980469 70.699219 118.910156 C 70.421875 118.753906 70.089844 118.578125 69.730469 118.382812 C 69.449219 118.230469 69.152344 118.070312 68.839844 117.898438 C 68.140625 117.515625 67.402344 117.101562 66.785156 116.703125 C 66.472656 116.503906 66.183594 116.304688 65.941406 116.113281 C 65.707031 115.929688 65.484375 115.726562 65.328125 115.519531 C 64.742188 114.722656 64.824219 113.832031 65.34375 113.214844 C 65.828125 112.640625 66.644531 112.359375 67.484375 112.546875 C 67.667969 112.5625 67.875 112.628906 68.046875 112.6875 C 68.273438 112.769531 68.542969 112.878906 68.839844 113.007812 C 69.433594 113.269531 70.164062 113.621094 70.914062 113.988281 C 71.246094 114.152344 71.582031 114.316406 71.910156 114.480469 C 72.960938 115 73.945312 115.488281 74.585938 115.761719 C 75.089844 115.511719 75.925781 114.789062 77.363281 112.535156 Z M 71.359375 119.3125 Z M 66.230469 113.964844 C 66.058594 114.164062 65.992188 114.460938 66.261719 114.832031 C 66.324219 114.914062 66.449219 115.039062 66.660156 115.203125 C 66.859375 115.363281 67.117188 115.539062 67.410156 115.726562 C 67.992188 116.101562 68.703125 116.503906 69.398438 116.882812 C 69.691406 117.042969 69.984375 117.203125 70.265625 117.351562 C 70.636719 117.554688 70.980469 117.742188 71.265625 117.898438 C 71.515625 118.039062 71.734375 118.164062 71.894531 118.273438 C 71.972656 118.324219 72.054688 118.382812 72.125 118.441406 C 72.15625 118.46875 72.203125 118.515625 72.25 118.574219 C 72.277344 118.613281 72.378906 118.75 72.378906 118.953125 C 72.378906 119.074219 72.34375 119.171875 72.328125 119.207031 C 72.308594 119.253906 72.289062 119.296875 72.269531 119.328125 C 72.234375 119.390625 72.191406 119.457031 72.148438 119.519531 C 72.109375 119.578125 72.054688 119.65625 71.992188 119.742188 C 71.933594 119.824219 71.871094 119.910156 71.816406 119.992188 C 71.558594 120.363281 71.25 120.839844 71.003906 121.378906 C 70.503906 122.464844 70.308594 123.652344 71.117188 124.707031 C 72.027344 125.898438 73.632812 126.867188 75.179688 127.546875 C 75.941406 127.882812 76.667969 128.136719 77.253906 128.308594 C 77.800781 128.46875 78.175781 128.539062 78.332031 128.550781 C 78.363281 128.535156 78.40625 128.515625 78.46875 128.480469 C 78.605469 128.398438 78.789062 128.269531 79.011719 128.097656 C 79.453125 127.757812 80.007812 127.28125 80.605469 126.738281 C 81.660156 125.777344 82.824219 124.644531 83.667969 123.796875 C 82.082031 120.878906 79.042969 115.871094 77.839844 113.921875 C 76.484375 115.910156 75.570312 116.667969 74.769531 116.9375 L 74.566406 117.007812 L 74.367188 116.925781 C 73.707031 116.660156 72.542969 116.085938 71.359375 115.5 C 71.039062 115.34375 70.71875 115.183594 70.40625 115.03125 C 69.65625 114.664062 68.941406 114.320312 68.375 114.070312 C 68.089844 113.945312 67.847656 113.847656 67.664062 113.78125 C 67.511719 113.726562 67.433594 113.710938 67.40625 113.703125 C 67.394531 113.703125 67.394531 113.699219 67.398438 113.699219 L 67.328125 113.699219 L 67.257812 113.683594 C 66.808594 113.570312 66.425781 113.730469 66.230469 113.964844 Z M 78.304688 128.558594 C 78.304688 128.558594 78.308594 128.558594 78.308594 128.558594 C 78.304688 128.558594 78.304688 128.558594 78.304688 128.558594 Z M 78.304688 128.558594 "/><path style=" stroke:none;fill-rule:nonzero;fill:#698780;fill-opacity:1;" d="M 65.441406 114.753906 C 65.703125 116.585938 68.160156 118.132812 69.359375 118.675781 L 70.339844 118.023438 C 69.902344 117.804688 68.707031 117.171875 67.398438 116.390625 C 66.09375 115.605469 65.546875 114.972656 65.441406 114.753906 Z M 65.441406 114.753906 "/><path style=" stroke:none;fill-rule:nonzero;fill:#698780;fill-opacity:1;" d="M 70.011719 126.191406 C 67.660156 123.839844 68.8125 121.070312 69.683594 119.984375 L 71.316406 119.65625 C 69.359375 122.921875 70.554688 125.101562 71.316406 125.539062 Z M 70.011719 126.191406 "/></g></svg>