<svg xmlns="http://www.w3.org/2000/svg" xmlns:xlink="http://www.w3.org/1999/xlink" width="332" zoomAndPan="magnify" viewBox="0 0 249 248.999984" height="332" preserveAspectRatio="xMidYMid meet" version="1.2"><defs><clipPath id="6c0349649e"><path d="M 0 186 L 67 186 L 67 248.25 L 0 248.25 Z M 0 186 "/></clipPath><clipPath id="d189ce81b0"><path d="M 182 186 L 248.25 186 L 248.25 248.25 L 182 248.25 Z M 182 186 "/></clipPath><clipPath id="5c7784578c"><path d="M 74 149 L 174 149 L 174 248.25 L 74 248.25 Z M 74 149 "/></clipPath><clipPath id="00327f6f49"><path d="M 0 186 L 67 186 L 67 248.25 L 0 248.25 Z M 0 186 "/></clipPath><clipPath id="89e5316365"><path d="M 182 186 L 248.25 186 L 248.25 248.25 L 182 248.25 Z M 182 186 "/></clipPath><clipPath id="7fb501aa49"><path d="M 74 149 L 174 149 L 174 248.25 L 74 248.25 Z M 74 149 "/></clipPath></defs><g id="e698458726"><g clip-rule="nonzero" clip-path="url(#6c0349649e)"><path style=" stroke:none;fill-rule:nonzero;fill:#0c5745;fill-opacity:1;" d="M 0 186.292969 L 66.238281 186.292969 L 66.238281 248.390625 L 0 248.390625 Z M 0 186.292969 "/></g><g clip-rule="nonzero" clip-path="url(#d189ce81b0)"><path style=" stroke:none;fill-rule:nonzero;fill:#0c5745;fill-opacity:1;" d="M 182.152344 186.292969 L 248.390625 186.292969 L 248.390625 248.390625 L 182.152344 248.390625 Z M 182.152344 186.292969 "/></g><path style=" stroke:none;fill-rule:nonzero;fill:#0c5745;fill-opacity:1;" d="M 45.539062 128.335938 C 45.539062 129.152344 45.457031 129.957031 45.300781 130.757812 C 45.140625 131.558594 44.90625 132.335938 44.59375 133.085938 C 44.28125 133.839844 43.898438 134.558594 43.445312 135.234375 C 42.992188 135.914062 42.476562 136.539062 41.902344 137.117188 C 41.324219 137.695312 40.695312 138.207031 40.019531 138.660156 C 39.339844 139.113281 38.625 139.496094 37.871094 139.808594 C 37.117188 140.121094 36.339844 140.355469 35.542969 140.515625 C 34.742188 140.675781 33.933594 140.753906 33.117188 140.753906 C 32.304688 140.753906 31.496094 140.675781 30.695312 140.515625 C 29.894531 140.355469 29.121094 140.121094 28.367188 139.808594 C 27.613281 139.496094 26.898438 139.113281 26.21875 138.660156 C 25.539062 138.207031 24.914062 137.695312 24.335938 137.117188 C 23.761719 136.539062 23.246094 135.914062 22.792969 135.234375 C 22.339844 134.558594 21.957031 133.839844 21.644531 133.085938 C 21.332031 132.335938 21.097656 131.558594 20.9375 130.757812 C 20.777344 129.957031 20.699219 129.152344 20.699219 128.335938 C 20.699219 127.519531 20.777344 126.710938 20.9375 125.914062 C 21.097656 125.113281 21.332031 124.335938 21.644531 123.582031 C 21.957031 122.828125 22.339844 122.113281 22.792969 121.433594 C 23.246094 120.757812 23.761719 120.128906 24.335938 119.554688 C 24.914062 118.976562 25.539062 118.460938 26.21875 118.007812 C 26.898438 117.554688 27.613281 117.171875 28.367188 116.859375 C 29.121094 116.550781 29.894531 116.3125 30.695312 116.152344 C 31.496094 115.996094 32.304688 115.914062 33.117188 115.914062 C 33.933594 115.914062 34.742188 115.996094 35.542969 116.152344 C 36.339844 116.3125 37.117188 116.550781 37.871094 116.859375 C 38.625 117.171875 39.339844 117.554688 40.019531 118.007812 C 40.695312 118.460938 41.324219 118.976562 41.902344 119.554688 C 42.476562 120.128906 42.992188 120.757812 43.445312 121.433594 C 43.898438 122.113281 44.28125 122.828125 44.59375 123.582031 C 44.90625 124.335938 45.140625 125.113281 45.300781 125.914062 C 45.457031 126.710938 45.539062 127.519531 45.539062 128.335938 Z M 45.539062 128.335938 "/><path style=" stroke:none;fill-rule:nonzero;fill:#0c5745;fill-opacity:1;" d="M 12.417969 153.175781 L 12.417969 178.011719 L 53.816406 178.011719 L 53.816406 153.175781 C 53.816406 152.359375 53.738281 151.550781 53.578125 150.75 C 53.421875 149.953125 53.183594 149.175781 52.871094 148.421875 C 52.558594 147.667969 52.179688 146.953125 51.726562 146.273438 C 51.273438 145.597656 50.757812 144.96875 50.179688 144.390625 C 49.605469 143.816406 48.976562 143.300781 48.296875 142.847656 C 47.621094 142.394531 46.90625 142.011719 46.152344 141.699219 C 45.398438 141.386719 44.621094 141.152344 43.820312 140.992188 C 43.023438 140.835938 42.214844 140.753906 41.398438 140.753906 L 24.839844 140.753906 C 24.023438 140.753906 23.214844 140.835938 22.417969 140.992188 C 21.617188 141.152344 20.839844 141.386719 20.085938 141.699219 C 19.332031 142.011719 18.617188 142.394531 17.9375 142.847656 C 17.261719 143.300781 16.632812 143.816406 16.058594 144.390625 C 15.480469 144.96875 14.964844 145.597656 14.511719 146.273438 C 14.058594 146.953125 13.675781 147.667969 13.363281 148.421875 C 13.054688 149.175781 12.816406 149.953125 12.65625 150.75 C 12.5 151.550781 12.417969 152.359375 12.417969 153.175781 Z M 12.417969 153.175781 "/><path style=" stroke:none;fill-rule:nonzero;fill:#0c5745;fill-opacity:1;" d="M 227.691406 128.335938 C 227.691406 129.152344 227.613281 129.957031 227.453125 130.757812 C 227.292969 131.558594 227.058594 132.335938 226.746094 133.085938 C 226.433594 133.839844 226.050781 134.558594 225.597656 135.234375 C 225.144531 135.914062 224.628906 136.539062 224.054688 137.117188 C 223.476562 137.695312 222.851562 138.207031 222.171875 138.660156 C 221.492188 139.113281 220.777344 139.496094 220.023438 139.808594 C 219.269531 140.121094 218.496094 140.355469 217.695312 140.515625 C 216.894531 140.675781 216.085938 140.753906 215.273438 140.753906 C 214.457031 140.753906 213.648438 140.675781 212.847656 140.515625 C 212.050781 140.355469 211.273438 140.121094 210.519531 139.808594 C 209.765625 139.496094 209.050781 139.113281 208.371094 138.660156 C 207.695312 138.207031 207.066406 137.695312 206.488281 137.117188 C 205.914062 136.539062 205.398438 135.914062 204.945312 135.234375 C 204.492188 134.558594 204.109375 133.839844 203.796875 133.085938 C 203.484375 132.335938 203.25 131.558594 203.089844 130.757812 C 202.933594 129.957031 202.851562 129.152344 202.851562 128.335938 C 202.851562 127.519531 202.933594 126.710938 203.089844 125.914062 C 203.25 125.113281 203.484375 124.335938 203.796875 123.582031 C 204.109375 122.828125 204.492188 122.113281 204.945312 121.433594 C 205.398438 120.757812 205.914062 120.128906 206.488281 119.554688 C 207.066406 118.976562 207.695312 118.460938 208.371094 118.007812 C 209.050781 117.554688 209.765625 117.171875 210.519531 116.859375 C 211.273438 116.550781 212.050781 116.3125 212.847656 116.152344 C 213.648438 115.996094 214.457031 115.914062 215.273438 115.914062 C 216.085938 115.914062 216.894531 115.996094 217.695312 116.152344 C 218.496094 116.3125 219.269531 116.550781 220.023438 116.859375 C 220.777344 117.171875 221.492188 117.554688 222.171875 118.007812 C 222.851562 118.460938 223.476562 118.976562 224.054688 119.554688 C 224.628906 120.128906 225.144531 120.757812 225.597656 121.433594 C 226.050781 122.113281 226.433594 122.828125 226.746094 123.582031 C 227.058594 124.335938 227.292969 125.113281 227.453125 125.914062 C 227.613281 126.710938 227.691406 127.519531 227.691406 128.335938 Z M 227.691406 128.335938 "/><path style=" stroke:none;fill-rule:nonzero;fill:#0c5745;fill-opacity:1;" d="M 194.574219 153.175781 L 194.574219 178.011719 L 235.972656 178.011719 L 235.972656 153.175781 C 235.972656 152.359375 235.890625 151.550781 235.734375 150.75 C 235.574219 149.953125 235.335938 149.175781 235.027344 148.421875 C 234.714844 147.667969 234.332031 146.953125 233.878906 146.273438 C 233.425781 145.597656 232.910156 144.96875 232.332031 144.390625 C 231.757812 143.816406 231.128906 143.300781 230.453125 142.847656 C 229.773438 142.394531 229.058594 142.011719 228.304688 141.699219 C 227.550781 141.386719 226.773438 141.152344 225.972656 140.992188 C 225.175781 140.835938 224.367188 140.753906 223.550781 140.753906 L 206.992188 140.753906 C 206.175781 140.753906 205.367188 140.835938 204.570312 140.992188 C 203.769531 141.152344 202.992188 141.386719 202.238281 141.699219 C 201.484375 142.011719 200.769531 142.394531 200.09375 142.847656 C 199.414062 143.300781 198.785156 143.816406 198.210938 144.390625 C 197.632812 144.96875 197.117188 145.597656 196.664062 146.273438 C 196.210938 146.953125 195.832031 147.667969 195.519531 148.421875 C 195.207031 149.175781 194.96875 149.953125 194.8125 150.75 C 194.652344 151.550781 194.574219 152.359375 194.574219 153.175781 Z M 194.574219 153.175781 "/><path style=" stroke:none;fill-rule:nonzero;fill:#0c5745;fill-opacity:1;" d="M 166.027344 18.84375 L 173.433594 4.035156 L 180.839844 7.738281 L 173.433594 22.546875 Z M 166.027344 18.84375 "/><path style=" stroke:none;fill-rule:nonzero;fill:#0c5745;fill-opacity:1;" d="M 210.648438 45.722656 L 226.472656 40.84375 L 228.910156 48.757812 L 213.085938 53.632812 Z M 210.648438 45.722656 "/><path style=" stroke:none;fill-rule:nonzero;fill:#0c5745;fill-opacity:1;" d="M 67.542969 7.742188 L 74.949219 4.039062 L 82.355469 18.847656 L 74.949219 22.550781 Z M 67.542969 7.742188 "/><path style=" stroke:none;fill-rule:nonzero;fill:#0c5745;fill-opacity:1;" d="M 19.484375 48.753906 L 21.921875 40.84375 L 37.746094 45.71875 L 35.308594 53.632812 Z M 19.484375 48.753906 "/><path style=" stroke:none;fill-rule:nonzero;fill:#0c5745;fill-opacity:1;" d="M 124.195312 0 L 101.167969 46.332031 L 49.679688 53.765625 L 86.9375 89.835938 L 78.140625 140.753906 L 124.195312 116.710938 L 170.25 140.753906 L 161.453125 89.835938 L 198.710938 53.769531 L 147.222656 46.332031 Z M 144.894531 119.558594 L 128.015625 110.777344 C 126.820312 110.15625 125.542969 109.847656 124.195312 109.847656 C 122.847656 109.847656 121.574219 110.15625 120.375 110.777344 L 103.496094 119.558594 L 103.496094 99.355469 C 103.496094 98.539062 103.574219 97.734375 103.734375 96.933594 C 103.894531 96.132812 104.128906 95.355469 104.441406 94.601562 C 104.753906 93.851562 105.136719 93.132812 105.589844 92.457031 C 106.042969 91.777344 106.558594 91.152344 107.132812 90.574219 C 107.710938 89.996094 108.335938 89.484375 109.015625 89.03125 C 109.695312 88.578125 110.410156 88.195312 111.164062 87.882812 C 111.917969 87.570312 112.691406 87.335938 113.492188 87.175781 C 114.292969 87.015625 115.101562 86.9375 115.914062 86.9375 L 124.195312 86.9375 C 123.378906 86.9375 122.570312 86.855469 121.773438 86.699219 C 120.972656 86.539062 120.195312 86.304688 119.441406 85.992188 C 118.6875 85.679688 117.972656 85.296875 117.296875 84.84375 C 116.617188 84.390625 115.988281 83.875 115.414062 83.300781 C 114.835938 82.722656 114.320312 82.09375 113.867188 81.417969 C 113.414062 80.738281 113.035156 80.023438 112.722656 79.269531 C 112.410156 78.515625 112.171875 77.738281 112.015625 76.941406 C 111.855469 76.140625 111.777344 75.332031 111.777344 74.515625 C 111.777344 73.703125 111.855469 72.894531 112.015625 72.09375 C 112.171875 71.292969 112.410156 70.519531 112.722656 69.765625 C 113.035156 69.011719 113.414062 68.296875 113.867188 67.617188 C 114.320312 66.9375 114.835938 66.3125 115.414062 65.734375 C 115.988281 65.160156 116.617188 64.644531 117.296875 64.191406 C 117.972656 63.738281 118.6875 63.355469 119.441406 63.042969 C 120.195312 62.730469 120.972656 62.496094 121.773438 62.335938 C 122.570312 62.175781 123.378906 62.097656 124.195312 62.097656 C 125.011719 62.097656 125.820312 62.175781 126.617188 62.335938 C 127.417969 62.496094 128.195312 62.730469 128.949219 63.042969 C 129.703125 63.355469 130.417969 63.738281 131.09375 64.191406 C 131.773438 64.644531 132.402344 65.160156 132.976562 65.734375 C 133.554688 66.3125 134.070312 66.9375 134.523438 67.617188 C 134.976562 68.296875 135.355469 69.011719 135.667969 69.765625 C 135.980469 70.519531 136.21875 71.292969 136.375 72.09375 C 136.535156 72.894531 136.613281 73.703125 136.613281 74.515625 C 136.613281 75.332031 136.535156 76.140625 136.375 76.941406 C 136.21875 77.738281 135.980469 78.515625 135.667969 79.269531 C 135.355469 80.023438 134.976562 80.738281 134.523438 81.417969 C 134.070312 82.09375 133.554688 82.722656 132.976562 83.300781 C 132.402344 83.875 131.773438 84.390625 131.09375 84.84375 C 130.417969 85.296875 129.703125 85.679688 128.949219 85.992188 C 128.195312 86.304688 127.417969 86.539062 126.617188 86.699219 C 125.820312 86.855469 125.011719 86.9375 124.195312 86.9375 L 132.476562 86.9375 C 133.289062 86.9375 134.097656 87.015625 134.898438 87.175781 C 135.699219 87.335938 136.472656 87.570312 137.226562 87.882812 C 137.980469 88.195312 138.695312 88.578125 139.375 89.03125 C 140.054688 89.484375 140.679688 89.996094 141.257812 90.574219 C 141.832031 91.152344 142.347656 91.777344 142.800781 92.457031 C 143.253906 93.132812 143.636719 93.851562 143.949219 94.601562 C 144.261719 95.355469 144.496094 96.132812 144.65625 96.933594 C 144.816406 97.734375 144.894531 98.539062 144.894531 99.355469 Z M 144.894531 119.558594 "/><g clip-rule="nonzero" clip-path="url(#5c7784578c)"><path style=" stroke:none;fill-rule:nonzero;fill:#0c5745;fill-opacity:1;" d="M 173.875 149.035156 L 74.515625 149.035156 L 74.515625 248.390625 L 173.875 248.390625 Z M 146.378906 222.589844 L 124.195312 204.09375 L 102.011719 222.582031 L 96.703125 216.222656 L 121.542969 195.523438 C 121.914062 195.214844 122.328125 194.976562 122.785156 194.808594 C 123.238281 194.644531 123.710938 194.5625 124.195312 194.5625 C 124.679688 194.5625 125.152344 194.644531 125.605469 194.808594 C 126.0625 194.976562 126.476562 195.214844 126.847656 195.523438 L 151.6875 216.222656 Z M 146.378906 202.851562 L 124.195312 184.363281 L 102.011719 202.851562 L 96.703125 196.492188 L 121.542969 175.792969 C 121.914062 175.484375 122.328125 175.246094 122.785156 175.078125 C 123.238281 174.914062 123.710938 174.832031 124.195312 174.832031 C 124.679688 174.832031 125.152344 174.914062 125.605469 175.078125 C 126.0625 175.246094 126.476562 175.484375 126.847656 175.792969 L 151.6875 196.492188 Z M 146.378906 202.851562 "/></g><g clip-rule="nonzero" clip-path="url(#00327f6f49)"><path style=" stroke:none;fill-rule:nonzero;fill:#0c5745;fill-opacity:1;" d="M 0 186.292969 L 66.238281 186.292969 L 66.238281 248.390625 L 0 248.390625 Z M 0 186.292969 "/></g><g clip-rule="nonzero" clip-path="url(#89e5316365)"><path style=" stroke:none;fill-rule:nonzero;fill:#0c5745;fill-opacity:1;" d="M 182.152344 186.292969 L 248.390625 186.292969 L 248.390625 248.390625 L 182.152344 248.390625 Z M 182.152344 186.292969 "/></g><path style=" stroke:none;fill-rule:nonzero;fill:#0c5745;fill-opacity:1;" d="M 45.539062 128.335938 C 45.539062 129.152344 45.457031 129.957031 45.300781 130.757812 C 45.140625 131.558594 44.90625 132.335938 44.59375 133.085938 C 44.28125 133.839844 43.898438 134.558594 43.445312 135.234375 C 42.992188 135.914062 42.476562 136.539062 41.902344 137.117188 C 41.324219 137.695312 40.695312 138.207031 40.019531 138.660156 C 39.339844 139.113281 38.625 139.496094 37.871094 139.808594 C 37.117188 140.121094 36.339844 140.355469 35.542969 140.515625 C 34.742188 140.675781 33.933594 140.753906 33.117188 140.753906 C 32.304688 140.753906 31.496094 140.675781 30.695312 140.515625 C 29.894531 140.355469 29.121094 140.121094 28.367188 139.808594 C 27.613281 139.496094 26.898438 139.113281 26.21875 138.660156 C 25.539062 138.207031 24.914062 137.695312 24.335938 137.117188 C 23.761719 136.539062 23.246094 135.914062 22.792969 135.234375 C 22.339844 134.558594 21.957031 133.839844 21.644531 133.085938 C 21.332031 132.335938 21.097656 131.558594 20.9375 130.757812 C 20.777344 129.957031 20.699219 129.152344 20.699219 128.335938 C 20.699219 127.519531 20.777344 126.710938 20.9375 125.914062 C 21.097656 125.113281 21.332031 124.335938 21.644531 123.582031 C 21.957031 122.828125 22.339844 122.113281 22.792969 121.433594 C 23.246094 120.757812 23.761719 120.128906 24.335938 119.554688 C 24.914062 118.976562 25.539062 118.460938 26.21875 118.007812 C 26.898438 117.554688 27.613281 117.171875 28.367188 116.859375 C 29.121094 116.550781 29.894531 116.3125 30.695312 116.152344 C 31.496094 115.996094 32.304688 115.914062 33.117188 115.914062 C 33.933594 115.914062 34.742188 115.996094 35.542969 116.152344 C 36.339844 116.3125 37.117188 116.550781 37.871094 116.859375 C 38.625 117.171875 39.339844 117.554688 40.019531 118.007812 C 40.695312 118.460938 41.324219 118.976562 41.902344 119.554688 C 42.476562 120.128906 42.992188 120.757812 43.445312 121.433594 C 43.898438 122.113281 44.28125 122.828125 44.59375 123.582031 C 44.90625 124.335938 45.140625 125.113281 45.300781 125.914062 C 45.457031 126.710938 45.539062 127.519531 45.539062 128.335938 Z M 45.539062 128.335938 "/><path style=" stroke:none;fill-rule:nonzero;fill:#0c5745;fill-opacity:1;" d="M 12.417969 153.175781 L 12.417969 178.011719 L 53.816406 178.011719 L 53.816406 153.175781 C 53.816406 152.359375 53.738281 151.550781 53.578125 150.75 C 53.421875 149.953125 53.183594 149.175781 52.871094 148.421875 C 52.558594 147.667969 52.179688 146.953125 51.726562 146.273438 C 51.273438 145.597656 50.757812 144.96875 50.179688 144.390625 C 49.605469 143.816406 48.976562 143.300781 48.296875 142.847656 C 47.621094 142.394531 46.90625 142.011719 46.152344 141.699219 C 45.398438 141.386719 44.621094 141.152344 43.820312 140.992188 C 43.023438 140.835938 42.214844 140.753906 41.398438 140.753906 L 24.839844 140.753906 C 24.023438 140.753906 23.214844 140.835938 22.417969 140.992188 C 21.617188 141.152344 20.839844 141.386719 20.085938 141.699219 C 19.332031 142.011719 18.617188 142.394531 17.9375 142.847656 C 17.261719 143.300781 16.632812 143.816406 16.058594 144.390625 C 15.480469 144.96875 14.964844 145.597656 14.511719 146.273438 C 14.058594 146.953125 13.675781 147.667969 13.363281 148.421875 C 13.054688 149.175781 12.816406 149.953125 12.65625 150.75 C 12.5 151.550781 12.417969 152.359375 12.417969 153.175781 Z M 12.417969 153.175781 "/><path style=" stroke:none;fill-rule:nonzero;fill:#0c5745;fill-opacity:1;" d="M 227.691406 128.335938 C 227.691406 129.152344 227.613281 129.957031 227.453125 130.757812 C 227.292969 131.558594 227.058594 132.335938 226.746094 133.085938 C 226.433594 133.839844 226.050781 134.558594 225.597656 135.234375 C 225.144531 135.914062 224.628906 136.539062 224.054688 137.117188 C 223.476562 137.695312 222.851562 138.207031 222.171875 138.660156 C 221.492188 139.113281 220.777344 139.496094 220.023438 139.808594 C 219.269531 140.121094 218.496094 140.355469 217.695312 140.515625 C 216.894531 140.675781 216.085938 140.753906 215.273438 140.753906 C 214.457031 140.753906 213.648438 140.675781 212.847656 140.515625 C 212.050781 140.355469 211.273438 140.121094 210.519531 139.808594 C 209.765625 139.496094 209.050781 139.113281 208.371094 138.660156 C 207.695312 138.207031 207.066406 137.695312 206.488281 137.117188 C 205.914062 136.539062 205.398438 135.914062 204.945312 135.234375 C 204.492188 134.558594 204.109375 133.839844 203.796875 133.085938 C 203.484375 132.335938 203.25 131.558594 203.089844 130.757812 C 202.933594 129.957031 202.851562 129.152344 202.851562 128.335938 C 202.851562 127.519531 202.933594 126.710938 203.089844 125.914062 C 203.25 125.113281 203.484375 124.335938 203.796875 123.582031 C 204.109375 122.828125 204.492188 122.113281 204.945312 121.433594 C 205.398438 120.757812 205.914062 120.128906 206.488281 119.554688 C 207.066406 118.976562 207.695312 118.460938 208.371094 118.007812 C 209.050781 117.554688 209.765625 117.171875 210.519531 116.859375 C 211.273438 116.550781 212.050781 116.3125 212.847656 116.152344 C 213.648438 115.996094 214.457031 115.914062 215.273438 115.914062 C 216.085938 115.914062 216.894531 115.996094 217.695312 116.152344 C 218.496094 116.3125 219.269531 116.550781 220.023438 116.859375 C 220.777344 117.171875 221.492188 117.554688 222.171875 118.007812 C 222.851562 118.460938 223.476562 118.976562 224.054688 119.554688 C 224.628906 120.128906 225.144531 120.757812 225.597656 121.433594 C 226.050781 122.113281 226.433594 122.828125 226.746094 123.582031 C 227.058594 124.335938 227.292969 125.113281 227.453125 125.914062 C 227.613281 126.710938 227.691406 127.519531 227.691406 128.335938 Z M 227.691406 128.335938 "/><path style=" stroke:none;fill-rule:nonzero;fill:#0c5745;fill-opacity:1;" d="M 194.574219 153.175781 L 194.574219 178.011719 L 235.972656 178.011719 L 235.972656 153.175781 C 235.972656 152.359375 235.890625 151.550781 235.734375 150.75 C 235.574219 149.953125 235.335938 149.175781 235.027344 148.421875 C 234.714844 147.667969 234.332031 146.953125 233.878906 146.273438 C 233.425781 145.597656 232.910156 144.96875 232.332031 144.390625 C 231.757812 143.816406 231.128906 143.300781 230.453125 142.847656 C 229.773438 142.394531 229.058594 142.011719 228.304688 141.699219 C 227.550781 141.386719 226.773438 141.152344 225.972656 140.992188 C 225.175781 140.835938 224.367188 140.753906 223.550781 140.753906 L 206.992188 140.753906 C 206.175781 140.753906 205.367188 140.835938 204.570312 140.992188 C 203.769531 141.152344 202.992188 141.386719 202.238281 141.699219 C 201.484375 142.011719 200.769531 142.394531 200.09375 142.847656 C 199.414062 143.300781 198.785156 143.816406 198.210938 144.390625 C 197.632812 144.96875 197.117188 145.597656 196.664062 146.273438 C 196.210938 146.953125 195.832031 147.667969 195.519531 148.421875 C 195.207031 149.175781 194.96875 149.953125 194.8125 150.75 C 194.652344 151.550781 194.574219 152.359375 194.574219 153.175781 Z M 194.574219 153.175781 "/><path style=" stroke:none;fill-rule:nonzero;fill:#0c5745;fill-opacity:1;" d="M 166.027344 18.84375 L 173.433594 4.035156 L 180.839844 7.738281 L 173.433594 22.546875 Z M 166.027344 18.84375 "/><path style=" stroke:none;fill-rule:nonzero;fill:#0c5745;fill-opacity:1;" d="M 210.648438 45.722656 L 226.472656 40.84375 L 228.910156 48.757812 L 213.085938 53.632812 Z M 210.648438 45.722656 "/><path style=" stroke:none;fill-rule:nonzero;fill:#0c5745;fill-opacity:1;" d="M 67.542969 7.742188 L 74.949219 4.039062 L 82.355469 18.847656 L 74.949219 22.550781 Z M 67.542969 7.742188 "/><path style=" stroke:none;fill-rule:nonzero;fill:#0c5745;fill-opacity:1;" d="M 19.484375 48.753906 L 21.921875 40.84375 L 37.746094 45.71875 L 35.308594 53.632812 Z M 19.484375 48.753906 "/><path style=" stroke:none;fill-rule:nonzero;fill:#0c5745;fill-opacity:1;" d="M 124.195312 0 L 101.167969 46.332031 L 49.679688 53.765625 L 86.9375 89.835938 L 78.140625 140.753906 L 124.195312 116.710938 L 170.25 140.753906 L 161.453125 89.835938 L 198.710938 53.769531 L 147.222656 46.332031 Z M 144.894531 119.558594 L 128.015625 110.777344 C 126.820312 110.15625 125.542969 109.847656 124.195312 109.847656 C 122.847656 109.847656 121.574219 110.15625 120.375 110.777344 L 103.496094 119.558594 L 103.496094 99.355469 C 103.496094 98.539062 103.574219 97.734375 103.734375 96.933594 C 103.894531 96.132812 104.128906 95.355469 104.441406 94.601562 C 104.753906 93.851562 105.136719 93.132812 105.589844 92.457031 C 106.042969 91.777344 106.558594 91.152344 107.132812 90.574219 C 107.710938 89.996094 108.335938 89.484375 109.015625 89.03125 C 109.695312 88.578125 110.410156 88.195312 111.164062 87.882812 C 111.917969 87.570312 112.691406 87.335938 113.492188 87.175781 C 114.292969 87.015625 115.101562 86.9375 115.914062 86.9375 L 124.195312 86.9375 C 123.378906 86.9375 122.570312 86.855469 121.773438 86.699219 C 120.972656 86.539062 120.195312 86.304688 119.441406 85.992188 C 118.6875 85.679688 117.972656 85.296875 117.296875 84.84375 C 116.617188 84.390625 115.988281 83.875 115.414062 83.300781 C 114.835938 82.722656 114.320312 82.09375 113.867188 81.417969 C 113.414062 80.738281 113.035156 80.023438 112.722656 79.269531 C 112.410156 78.515625 112.171875 77.738281 112.015625 76.941406 C 111.855469 76.140625 111.777344 75.332031 111.777344 74.515625 C 111.777344 73.703125 111.855469 72.894531 112.015625 72.09375 C 112.171875 71.292969 112.410156 70.519531 112.722656 69.765625 C 113.035156 69.011719 113.414062 68.296875 113.867188 67.617188 C 114.320312 66.9375 114.835938 66.3125 115.414062 65.734375 C 115.988281 65.160156 116.617188 64.644531 117.296875 64.191406 C 117.972656 63.738281 118.6875 63.355469 119.441406 63.042969 C 120.195312 62.730469 120.972656 62.496094 121.773438 62.335938 C 122.570312 62.175781 123.378906 62.097656 124.195312 62.097656 C 125.011719 62.097656 125.820312 62.175781 126.617188 62.335938 C 127.417969 62.496094 128.195312 62.730469 128.949219 63.042969 C 129.703125 63.355469 130.417969 63.738281 131.09375 64.191406 C 131.773438 64.644531 132.402344 65.160156 132.976562 65.734375 C 133.554688 66.3125 134.070312 66.9375 134.523438 67.617188 C 134.976562 68.296875 135.355469 69.011719 135.667969 69.765625 C 135.980469 70.519531 136.21875 71.292969 136.375 72.09375 C 136.535156 72.894531 136.613281 73.703125 136.613281 74.515625 C 136.613281 75.332031 136.535156 76.140625 136.375 76.941406 C 136.21875 77.738281 135.980469 78.515625 135.667969 79.269531 C 135.355469 80.023438 134.976562 80.738281 134.523438 81.417969 C 134.070312 82.09375 133.554688 82.722656 132.976562 83.300781 C 132.402344 83.875 131.773438 84.390625 131.09375 84.84375 C 130.417969 85.296875 129.703125 85.679688 128.949219 85.992188 C 128.195312 86.304688 127.417969 86.539062 126.617188 86.699219 C 125.820312 86.855469 125.011719 86.9375 124.195312 86.9375 L 132.476562 86.9375 C 133.289062 86.9375 134.097656 87.015625 134.898438 87.175781 C 135.699219 87.335938 136.472656 87.570312 137.226562 87.882812 C 137.980469 88.195312 138.695312 88.578125 139.375 89.03125 C 140.054688 89.484375 140.679688 89.996094 141.257812 90.574219 C 141.832031 91.152344 142.347656 91.777344 142.800781 92.457031 C 143.253906 93.132812 143.636719 93.851562 143.949219 94.601562 C 144.261719 95.355469 144.496094 96.132812 144.65625 96.933594 C 144.816406 97.734375 144.894531 98.539062 144.894531 99.355469 Z M 144.894531 119.558594 "/><g clip-rule="nonzero" clip-path="url(#7fb501aa49)"><path style=" stroke:none;fill-rule:nonzero;fill:#0c5745;fill-opacity:1;" d="M 173.875 149.035156 L 74.515625 149.035156 L 74.515625 248.390625 L 173.875 248.390625 Z M 146.378906 222.589844 L 124.195312 204.09375 L 102.011719 222.582031 L 96.703125 216.222656 L 121.542969 195.523438 C 121.914062 195.214844 122.328125 194.976562 122.785156 194.808594 C 123.238281 194.644531 123.710938 194.5625 124.195312 194.5625 C 124.679688 194.5625 125.152344 194.644531 125.605469 194.808594 C 126.0625 194.976562 126.476562 195.214844 126.847656 195.523438 L 151.6875 216.222656 Z M 146.378906 202.851562 L 124.195312 184.363281 L 102.011719 202.851562 L 96.703125 196.492188 L 121.542969 175.792969 C 121.914062 175.484375 122.328125 175.246094 122.785156 175.078125 C 123.238281 174.914062 123.710938 174.832031 124.195312 174.832031 C 124.679688 174.832031 125.152344 174.914062 125.605469 175.078125 C 126.0625 175.246094 126.476562 175.484375 126.847656 175.792969 L 151.6875 196.492188 Z M 146.378906 202.851562 "/></g></g></svg>