<svg xmlns="http://www.w3.org/2000/svg" xmlns:xlink="http://www.w3.org/1999/xlink" width="332" zoomAndPan="magnify" viewBox="0 0 249 248.999984" height="332" preserveAspectRatio="xMidYMid meet" version="1.2"><defs><clipPath id="bd611a47ea"><path d="M 0 0 L 248.25 0 L 248.25 248.25 L 0 248.25 Z M 0 0 "/></clipPath><clipPath id="4dbfa2dc09"><path d="M 0 0 L 248.25 0 L 248.25 248.25 L 0 248.25 Z M 0 0 "/></clipPath></defs><g id="1bbd221bdb"><path style=" stroke:none;fill-rule:nonzero;fill:#0c5745;fill-opacity:1;" d="M 165.59375 120.054688 C 179.292969 120.054688 190.433594 131.195312 190.433594 144.894531 C 190.433594 158.59375 179.292969 169.734375 165.59375 169.734375 C 151.894531 169.734375 140.753906 158.59375 140.753906 144.894531 L 157.3125 144.894531 C 157.3125 149.457031 161.03125 153.175781 165.59375 153.175781 C 170.15625 153.175781 173.875 149.457031 173.875 144.894531 C 173.875 140.332031 170.15625 136.613281 165.59375 136.613281 C 151.894531 136.613281 140.753906 125.472656 140.753906 111.777344 C 140.753906 98.078125 151.894531 86.9375 165.59375 86.9375 C 179.292969 86.9375 190.433594 98.078125 190.433594 111.777344 L 173.875 111.777344 C 173.875 107.214844 170.15625 103.496094 165.59375 103.496094 C 161.03125 103.496094 157.3125 107.214844 157.3125 111.777344 C 157.3125 116.335938 161.03125 120.054688 165.59375 120.054688 Z M 98.820312 164.363281 L 83.332031 164.363281 L 58.492188 98.125 L 73.984375 92.304688 L 91.078125 137.878906 L 108.171875 92.304688 L 123.660156 98.125 Z M 205.375 145.945312 L 244.25 124.195312 L 205.375 102.445312 L 228.160156 64.167969 L 183.621094 64.769531 L 184.222656 20.230469 L 145.945312 43.015625 L 120.054688 4.140625 L 102.445312 43.015625 L 64.167969 20.230469 L 68.90625 68.90625 L 24.371094 55.886719 L 47.15625 102.441406 L 4.140625 124.195312 L 43.015625 145.945312 L 20.230469 184.222656 L 64.765625 183.621094 L 64.167969 228.15625 L 102.445312 205.371094 L 128.332031 240.109375 L 145.945312 205.371094 L 184.222656 228.15625 L 183.621094 187.761719 L 228.15625 188.363281 L 205.371094 145.945312 "/><path style=" stroke:none;fill-rule:nonzero;fill:#ffffff;fill-opacity:1;" d="M 107.636719 4.140625 L 33.117188 4.140625 C 17.109375 4.140625 4.140625 17.109375 4.140625 33.117188 C 4.140625 49.128906 17.109375 62.097656 33.117188 62.097656 C 44.664062 62.097656 54.625 55.320312 59.265625 45.539062 L 81.488281 45.539062 C 86.128906 55.320312 96.089844 62.097656 107.636719 62.097656 C 123.644531 62.097656 136.613281 49.128906 136.613281 33.117188 C 136.613281 17.109375 123.644531 4.140625 107.636719 4.140625 "/><path style=" stroke:none;fill-rule:nonzero;fill:#ffffff;fill-opacity:1;" d="M 215.273438 186.292969 L 140.753906 186.292969 C 124.746094 186.292969 111.777344 199.261719 111.777344 215.273438 C 111.777344 231.28125 124.746094 244.25 140.753906 244.25 C 152.300781 244.25 162.261719 237.472656 166.902344 227.691406 L 189.125 227.691406 C 193.765625 237.472656 203.726562 244.25 215.273438 244.25 C 231.28125 244.25 244.25 231.28125 244.25 215.273438 C 244.25 199.261719 231.28125 186.292969 215.273438 186.292969 "/><path style=" stroke:none;fill-rule:nonzero;fill:#ffffff;fill-opacity:1;" d="M 82.019531 141.5625 L 64.828125 95.75 L 58.492188 98.125 L 83.332031 164.363281 L 98.820312 164.363281 L 101.960938 156.003906 C 93.050781 155.601562 85.171875 149.972656 82.019531 141.5625 "/><path style=" stroke:none;fill-rule:nonzero;fill:#ffffff;fill-opacity:1;" d="M 169.734375 161.453125 C 158.949219 161.453125 149.761719 154.53125 146.335938 144.894531 L 140.753906 144.894531 C 140.753906 158.59375 151.894531 169.734375 165.59375 169.734375 C 176.960938 169.734375 186.539062 162.054688 189.480469 151.621094 C 184.933594 157.585938 177.785156 161.453125 169.734375 161.453125 "/><path style=" stroke:none;fill-rule:nonzero;fill:#0c5745;fill-opacity:1;" d="M 95.960938 160.222656 L 86.191406 160.222656 L 63.8125 100.550781 L 71.574219 97.640625 L 87.195312 139.332031 C 87.808594 140.949219 89.347656 142.015625 91.078125 142.015625 C 92.808594 142.015625 94.34375 140.949219 94.960938 139.332031 L 110.578125 97.640625 L 118.339844 100.550781 Z M 127.429688 96.414062 C 126.976562 95.410156 126.152344 94.632812 125.117188 94.246094 L 109.609375 88.421875 C 107.492188 87.632812 105.082031 88.71875 104.285156 90.847656 L 91.078125 126.085938 L 77.867188 90.847656 C 77.054688 88.71875 74.660156 87.632812 72.542969 88.421875 L 57.035156 94.246094 C 56 94.632812 55.175781 95.410156 54.722656 96.414062 C 54.253906 97.414062 54.222656 98.550781 54.609375 99.582031 L 79.449219 165.820312 C 80.046875 167.4375 81.601562 168.503906 83.332031 168.503906 L 98.820312 168.503906 C 100.550781 168.503906 102.105469 167.4375 102.707031 165.820312 L 127.542969 99.582031 C 127.929688 98.550781 127.902344 97.414062 127.429688 96.414062 "/><path style=" stroke:none;fill-rule:nonzero;fill:#0c5745;fill-opacity:1;" d="M 165.59375 132.476562 C 154.175781 132.476562 144.894531 123.195312 144.894531 111.777344 C 144.894531 100.359375 154.175781 91.078125 165.59375 91.078125 C 175.585938 91.078125 183.949219 98.191406 185.871094 107.636719 L 177.300781 107.636719 C 175.585938 102.816406 170.996094 99.355469 165.59375 99.355469 C 158.738281 99.355469 153.175781 104.921875 153.175781 111.777344 C 153.175781 118.632812 158.738281 124.195312 165.59375 124.195312 C 177.011719 124.195312 186.292969 133.476562 186.292969 144.894531 C 186.292969 156.3125 177.011719 165.59375 165.59375 165.59375 C 155.601562 165.59375 147.238281 158.476562 145.316406 149.035156 L 153.886719 149.035156 C 155.601562 153.851562 160.191406 157.3125 165.59375 157.3125 C 172.449219 157.3125 178.011719 151.75 178.011719 144.894531 C 178.011719 138.039062 172.449219 132.476562 165.59375 132.476562 Z M 165.59375 149.035156 C 163.3125 149.035156 161.453125 147.175781 161.453125 144.894531 C 161.453125 142.613281 159.59375 140.753906 157.3125 140.753906 L 140.753906 140.753906 C 138.472656 140.753906 136.613281 142.613281 136.613281 144.894531 C 136.613281 160.871094 149.617188 173.875 165.59375 173.875 C 181.570312 173.875 194.574219 160.871094 194.574219 144.894531 C 194.574219 128.917969 181.570312 115.914062 165.59375 115.914062 C 163.3125 115.914062 161.453125 114.058594 161.453125 111.777344 C 161.453125 109.496094 163.3125 107.636719 165.59375 107.636719 C 167.875 107.636719 169.734375 109.496094 169.734375 111.777344 C 169.734375 114.058594 171.59375 115.914062 173.875 115.914062 L 190.433594 115.914062 C 192.714844 115.914062 194.574219 114.058594 194.574219 111.777344 C 194.574219 95.800781 181.570312 82.796875 165.59375 82.796875 C 149.617188 82.796875 136.613281 95.800781 136.613281 111.777344 C 136.613281 127.75 149.617188 140.753906 165.59375 140.753906 C 167.875 140.753906 169.734375 142.613281 169.734375 144.894531 C 169.734375 147.175781 167.875 149.035156 165.59375 149.035156 "/><g clip-rule="nonzero" clip-path="url(#bd611a47ea)"><path style=" stroke:none;fill-rule:nonzero;fill:#0c5745;fill-opacity:1;" d="M 215.273438 240.109375 C 205.761719 240.109375 196.964844 234.53125 192.859375 225.910156 C 192.164062 224.476562 190.722656 223.550781 189.125 223.550781 L 166.902344 223.550781 C 165.304688 223.550781 163.863281 224.476562 163.167969 225.910156 C 159.0625 234.53125 150.265625 240.109375 140.753906 240.109375 C 127.054688 240.109375 115.914062 228.96875 115.914062 215.273438 C 115.914062 201.574219 127.054688 190.433594 140.753906 190.433594 L 215.273438 190.433594 C 228.96875 190.433594 240.109375 201.574219 240.109375 215.273438 C 240.109375 228.96875 228.96875 240.109375 215.273438 240.109375 Z M 100.324219 201.816406 L 68.402344 220.820312 L 68.90625 183.671875 C 68.921875 182.558594 68.484375 181.492188 67.695312 180.695312 C 66.898438 179.90625 65.785156 179.53125 64.71875 179.484375 L 27.554688 179.988281 L 46.574219 148.066406 C 47.15625 147.109375 47.300781 145.960938 47.007812 144.878906 C 46.734375 143.792969 46.007812 142.875 45.039062 142.339844 L 12.953125 124.375 L 49.03125 106.148438 C 51.050781 105.113281 51.875 102.65625 50.875 100.617188 L 34.007812 66.171875 C 36.511719 66.109375 38.957031 65.785156 41.316406 65.152344 L 67.742188 72.882812 C 68.128906 72.996094 68.519531 73.046875 68.90625 73.046875 C 69.859375 73.046875 70.800781 72.71875 71.539062 72.089844 C 72.609375 71.21875 73.160156 69.875 73.03125 68.503906 L 71.203125 49.679688 L 78.996094 49.679688 C 84.867188 59.816406 95.84375 66.238281 107.636719 66.238281 C 123.128906 66.238281 136.128906 55.53125 139.734375 41.152344 L 142.5 45.3125 C 143.714844 47.15625 146.15625 47.703125 148.066406 46.574219 L 179.988281 27.570312 L 179.484375 64.71875 C 179.46875 65.832031 179.90625 66.898438 180.695312 67.695312 C 181.492188 68.484375 182.507812 68.953125 183.671875 68.90625 L 220.835938 68.402344 L 201.816406 100.324219 C 201.234375 101.28125 201.089844 102.429688 201.382812 103.511719 C 201.65625 104.597656 202.382812 105.515625 203.351562 106.050781 L 235.777344 124.195312 L 203.351562 142.339844 C 201.382812 143.4375 200.652344 145.914062 201.722656 147.902344 L 220.363281 182.585938 C 218.699219 182.332031 217.003906 182.152344 215.273438 182.152344 L 140.753906 182.152344 C 125.390625 182.152344 112.472656 192.679688 108.753906 206.898438 L 105.761719 202.902344 C 104.496094 201.203125 102.15625 200.734375 100.324219 201.816406 Z M 64.199219 63.214844 L 52.570312 59.816406 C 56.261719 57.132812 59.425781 53.722656 61.757812 49.679688 L 62.875 49.679688 Z M 8.28125 33.117188 C 8.28125 19.421875 19.421875 8.28125 33.117188 8.28125 L 107.636719 8.28125 C 121.335938 8.28125 132.476562 19.421875 132.476562 33.117188 C 132.476562 46.816406 121.335938 57.957031 107.636719 57.957031 C 98.125 57.957031 89.328125 52.378906 85.222656 43.757812 C 84.527344 42.320312 83.085938 41.398438 81.488281 41.398438 L 59.265625 41.398438 C 57.667969 41.398438 56.226562 42.320312 55.53125 43.757812 C 51.425781 52.378906 42.628906 57.957031 33.117188 57.957031 C 19.421875 57.957031 8.28125 46.816406 8.28125 33.117188 Z M 231.621094 186.503906 L 231.816406 186.40625 L 210.953125 147.578125 L 246.269531 127.800781 C 247.582031 127.074219 248.390625 125.699219 248.390625 124.195312 C 248.390625 122.691406 247.582031 121.316406 246.269531 120.589844 L 211.097656 100.910156 L 231.71875 66.289062 C 232.492188 64.992188 232.492188 63.390625 231.75 62.097656 C 231.007812 60.804688 229.515625 60.0625 228.113281 60.027344 L 187.8125 60.578125 L 188.363281 20.277344 C 188.378906 18.773438 187.585938 17.382812 186.292969 16.640625 C 185 15.894531 183.398438 15.894531 182.101562 16.671875 L 147.207031 37.453125 L 140.140625 26.828125 C 137.199219 11.5625 123.742188 0 107.636719 0 L 33.117188 0 C 14.859375 0 0 14.859375 0 33.117188 C 0 48.289062 10.269531 61.078125 24.207031 64.992188 L 41.644531 100.601562 L 2.28125 120.488281 C 0.90625 121.1875 0.03125 122.578125 0 124.113281 C -0.03125 125.636719 0.777344 127.054688 2.117188 127.800781 L 37.292969 147.480469 L 16.65625 182.101562 C 15.894531 183.398438 15.878906 185 16.640625 186.292969 C 17.382812 187.585938 18.628906 188.296875 20.277344 188.363281 L 60.578125 187.8125 L 60.027344 228.113281 C 60.011719 229.617188 60.804688 231.007812 62.097656 231.75 C 62.742188 232.121094 63.457031 232.300781 64.167969 232.300781 C 64.894531 232.300781 65.636719 232.105469 66.289062 231.71875 L 101.359375 210.84375 L 107.976562 219.71875 C 110.140625 235.875 124 248.390625 140.753906 248.390625 C 152.546875 248.390625 163.523438 241.96875 169.394531 231.832031 L 186.632812 231.832031 C 192.503906 241.96875 203.480469 248.390625 215.273438 248.390625 C 233.527344 248.390625 248.390625 233.527344 248.390625 215.273438 C 248.390625 202.964844 241.613281 192.214844 231.621094 186.503906 "/></g><path style=" stroke:none;fill-rule:nonzero;fill:#0c5745;fill-opacity:1;" d="M 151.105469 211.132812 L 144.894531 211.132812 L 144.894531 204.921875 C 144.894531 202.640625 143.035156 200.78125 140.753906 200.78125 C 138.472656 200.78125 136.613281 202.640625 136.613281 204.921875 L 136.613281 211.132812 L 130.40625 211.132812 C 128.125 211.132812 126.265625 212.992188 126.265625 215.273438 C 126.265625 217.554688 128.125 219.410156 130.40625 219.410156 L 136.613281 219.410156 L 136.613281 225.621094 C 136.613281 227.902344 138.472656 229.761719 140.753906 229.761719 C 143.035156 229.761719 144.894531 227.902344 144.894531 225.621094 L 144.894531 219.410156 L 151.105469 219.410156 C 153.386719 219.410156 155.246094 217.554688 155.246094 215.273438 C 155.246094 212.992188 153.386719 211.132812 151.105469 211.132812 "/><path style=" stroke:none;fill-rule:nonzero;fill:#0c5745;fill-opacity:1;" d="M 215.273438 198.710938 C 212.992188 198.710938 211.132812 200.570312 211.132812 202.851562 C 211.132812 205.132812 212.992188 206.992188 215.273438 206.992188 C 217.554688 206.992188 219.410156 205.132812 219.410156 202.851562 C 219.410156 200.570312 217.554688 198.710938 215.273438 198.710938 "/><path style=" stroke:none;fill-rule:nonzero;fill:#0c5745;fill-opacity:1;" d="M 215.273438 219.410156 C 212.992188 219.410156 211.132812 221.269531 211.132812 223.550781 C 211.132812 225.832031 212.992188 227.691406 215.273438 227.691406 C 217.554688 227.691406 219.410156 225.832031 219.410156 223.550781 C 219.410156 221.269531 217.554688 219.410156 215.273438 219.410156 "/><path style=" stroke:none;fill-rule:nonzero;fill:#0c5745;fill-opacity:1;" d="M 204.921875 209.0625 C 202.640625 209.0625 200.78125 210.921875 200.78125 213.203125 C 200.78125 215.484375 202.640625 217.339844 204.921875 217.339844 C 207.203125 217.339844 209.0625 215.484375 209.0625 213.203125 C 209.0625 210.921875 207.203125 209.0625 204.921875 209.0625 "/><path style=" stroke:none;fill-rule:nonzero;fill:#0c5745;fill-opacity:1;" d="M 225.621094 209.0625 C 223.339844 209.0625 221.480469 210.921875 221.480469 213.203125 C 221.480469 215.484375 223.339844 217.339844 225.621094 217.339844 C 227.902344 217.339844 229.761719 215.484375 229.761719 213.203125 C 229.761719 210.921875 227.902344 209.0625 225.621094 209.0625 "/><path style=" stroke:none;fill-rule:nonzero;fill:#0c5745;fill-opacity:1;" d="M 37.257812 43.46875 L 37.257812 37.257812 L 43.46875 37.257812 C 45.75 37.257812 47.609375 35.398438 47.609375 33.117188 C 47.609375 30.839844 45.75 28.980469 43.46875 28.980469 L 37.257812 28.980469 L 37.257812 22.769531 C 37.257812 20.488281 35.398438 18.628906 33.117188 18.628906 C 30.839844 18.628906 28.980469 20.488281 28.980469 22.769531 L 28.980469 28.980469 L 22.769531 28.980469 C 20.488281 28.980469 18.628906 30.839844 18.628906 33.117188 C 18.628906 35.398438 20.488281 37.257812 22.769531 37.257812 L 28.980469 37.257812 L 28.980469 43.46875 C 28.980469 45.75 30.839844 47.609375 33.117188 47.609375 C 35.398438 47.609375 37.257812 45.75 37.257812 43.46875 "/><path style=" stroke:none;fill-rule:nonzero;fill:#0c5745;fill-opacity:1;" d="M 107.636719 24.839844 C 109.917969 24.839844 111.777344 22.980469 111.777344 20.699219 C 111.777344 18.417969 109.917969 16.558594 107.636719 16.558594 C 105.355469 16.558594 103.496094 18.417969 103.496094 20.699219 C 103.496094 22.980469 105.355469 24.839844 107.636719 24.839844 "/><path style=" stroke:none;fill-rule:nonzero;fill:#0c5745;fill-opacity:1;" d="M 107.636719 45.539062 C 109.917969 45.539062 111.777344 43.679688 111.777344 41.398438 C 111.777344 39.117188 109.917969 37.257812 107.636719 37.257812 C 105.355469 37.257812 103.496094 39.117188 103.496094 41.398438 C 103.496094 43.679688 105.355469 45.539062 107.636719 45.539062 "/><path style=" stroke:none;fill-rule:nonzero;fill:#0c5745;fill-opacity:1;" d="M 97.285156 35.1875 C 99.566406 35.1875 101.425781 33.328125 101.425781 31.046875 C 101.425781 28.769531 99.566406 26.910156 97.285156 26.910156 C 95.003906 26.910156 93.148438 28.769531 93.148438 31.046875 C 93.148438 33.328125 95.003906 35.1875 97.285156 35.1875 "/><path style=" stroke:none;fill-rule:nonzero;fill:#0c5745;fill-opacity:1;" d="M 117.984375 35.1875 C 120.265625 35.1875 122.125 33.328125 122.125 31.046875 C 122.125 28.769531 120.265625 26.910156 117.984375 26.910156 C 115.703125 26.910156 113.847656 28.769531 113.847656 31.046875 C 113.847656 33.328125 115.703125 35.1875 117.984375 35.1875 "/><path style=" stroke:none;fill-rule:nonzero;fill:#0c5745;fill-opacity:1;" d="M 165.59375 120.054688 C 179.292969 120.054688 190.433594 131.195312 190.433594 144.894531 C 190.433594 158.59375 179.292969 169.734375 165.59375 169.734375 C 151.894531 169.734375 140.753906 158.59375 140.753906 144.894531 L 157.3125 144.894531 C 157.3125 149.457031 161.03125 153.175781 165.59375 153.175781 C 170.15625 153.175781 173.875 149.457031 173.875 144.894531 C 173.875 140.332031 170.15625 136.613281 165.59375 136.613281 C 151.894531 136.613281 140.753906 125.472656 140.753906 111.777344 C 140.753906 98.078125 151.894531 86.9375 165.59375 86.9375 C 179.292969 86.9375 190.433594 98.078125 190.433594 111.777344 L 173.875 111.777344 C 173.875 107.214844 170.15625 103.496094 165.59375 103.496094 C 161.03125 103.496094 157.3125 107.214844 157.3125 111.777344 C 157.3125 116.335938 161.03125 120.054688 165.59375 120.054688 Z M 98.820312 164.363281 L 83.332031 164.363281 L 58.492188 98.125 L 73.984375 92.304688 L 91.078125 137.878906 L 108.171875 92.304688 L 123.660156 98.125 Z M 205.375 145.945312 L 244.25 124.195312 L 205.375 102.445312 L 228.160156 64.167969 L 183.621094 64.769531 L 184.222656 20.230469 L 145.945312 43.015625 L 120.054688 4.140625 L 102.445312 43.015625 L 64.167969 20.230469 L 68.90625 68.90625 L 24.371094 55.886719 L 47.15625 102.441406 L 4.140625 124.195312 L 43.015625 145.945312 L 20.230469 184.222656 L 64.765625 183.621094 L 64.167969 228.15625 L 102.445312 205.371094 L 128.332031 240.109375 L 145.945312 205.371094 L 184.222656 228.15625 L 183.621094 187.761719 L 228.15625 188.363281 L 205.371094 145.945312 "/><path style=" stroke:none;fill-rule:nonzero;fill:#ffffff;fill-opacity:1;" d="M 107.636719 4.140625 L 33.117188 4.140625 C 17.109375 4.140625 4.140625 17.109375 4.140625 33.117188 C 4.140625 49.128906 17.109375 62.097656 33.117188 62.097656 C 44.664062 62.097656 54.625 55.320312 59.265625 45.539062 L 81.488281 45.539062 C 86.128906 55.320312 96.089844 62.097656 107.636719 62.097656 C 123.644531 62.097656 136.613281 49.128906 136.613281 33.117188 C 136.613281 17.109375 123.644531 4.140625 107.636719 4.140625 "/><path style=" stroke:none;fill-rule:nonzero;fill:#ffffff;fill-opacity:1;" d="M 215.273438 186.292969 L 140.753906 186.292969 C 124.746094 186.292969 111.777344 199.261719 111.777344 215.273438 C 111.777344 231.28125 124.746094 244.25 140.753906 244.25 C 152.300781 244.25 162.261719 237.472656 166.902344 227.691406 L 189.125 227.691406 C 193.765625 237.472656 203.726562 244.25 215.273438 244.25 C 231.28125 244.25 244.25 231.28125 244.25 215.273438 C 244.25 199.261719 231.28125 186.292969 215.273438 186.292969 "/><path style=" stroke:none;fill-rule:nonzero;fill:#ffffff;fill-opacity:1;" d="M 82.019531 141.5625 L 64.828125 95.75 L 58.492188 98.125 L 83.332031 164.363281 L 98.820312 164.363281 L 101.960938 156.003906 C 93.050781 155.601562 85.171875 149.972656 82.019531 141.5625 "/><path style=" stroke:none;fill-rule:nonzero;fill:#ffffff;fill-opacity:1;" d="M 169.734375 161.453125 C 158.949219 161.453125 149.761719 154.53125 146.335938 144.894531 L 140.753906 144.894531 C 140.753906 158.59375 151.894531 169.734375 165.59375 169.734375 C 176.960938 169.734375 186.539062 162.054688 189.480469 151.621094 C 184.933594 157.585938 177.785156 161.453125 169.734375 161.453125 "/><path style=" stroke:none;fill-rule:nonzero;fill:#0c5745;fill-opacity:1;" d="M 95.960938 160.222656 L 86.191406 160.222656 L 63.8125 100.550781 L 71.574219 97.640625 L 87.195312 139.332031 C 87.808594 140.949219 89.347656 142.015625 91.078125 142.015625 C 92.808594 142.015625 94.34375 140.949219 94.960938 139.332031 L 110.578125 97.640625 L 118.339844 100.550781 Z M 127.429688 96.414062 C 126.976562 95.410156 126.152344 94.632812 125.117188 94.246094 L 109.609375 88.421875 C 107.492188 87.632812 105.082031 88.71875 104.285156 90.847656 L 91.078125 126.085938 L 77.867188 90.847656 C 77.054688 88.71875 74.660156 87.632812 72.542969 88.421875 L 57.035156 94.246094 C 56 94.632812 55.175781 95.410156 54.722656 96.414062 C 54.253906 97.414062 54.222656 98.550781 54.609375 99.582031 L 79.449219 165.820312 C 80.046875 167.4375 81.601562 168.503906 83.332031 168.503906 L 98.820312 168.503906 C 100.550781 168.503906 102.105469 167.4375 102.707031 165.820312 L 127.542969 99.582031 C 127.929688 98.550781 127.902344 97.414062 127.429688 96.414062 "/><path style=" stroke:none;fill-rule:nonzero;fill:#0c5745;fill-opacity:1;" d="M 165.59375 132.476562 C 154.175781 132.476562 144.894531 123.195312 144.894531 111.777344 C 144.894531 100.359375 154.175781 91.078125 165.59375 91.078125 C 175.585938 91.078125 183.949219 98.191406 185.871094 107.636719 L 177.300781 107.636719 C 175.585938 102.816406 170.996094 99.355469 165.59375 99.355469 C 158.738281 99.355469 153.175781 104.921875 153.175781 111.777344 C 153.175781 118.632812 158.738281 124.195312 165.59375 124.195312 C 177.011719 124.195312 186.292969 133.476562 186.292969 144.894531 C 186.292969 156.3125 177.011719 165.59375 165.59375 165.59375 C 155.601562 165.59375 147.238281 158.476562 145.316406 149.035156 L 153.886719 149.035156 C 155.601562 153.851562 160.191406 157.3125 165.59375 157.3125 C 172.449219 157.3125 178.011719 151.75 178.011719 144.894531 C 178.011719 138.039062 172.449219 132.476562 165.59375 132.476562 Z M 165.59375 149.035156 C 163.3125 149.035156 161.453125 147.175781 161.453125 144.894531 C 161.453125 142.613281 159.59375 140.753906 157.3125 140.753906 L 140.753906 140.753906 C 138.472656 140.753906 136.613281 142.613281 136.613281 144.894531 C 136.613281 160.871094 149.617188 173.875 165.59375 173.875 C 181.570312 173.875 194.574219 160.871094 194.574219 144.894531 C 194.574219 128.917969 181.570312 115.914062 165.59375 115.914062 C 163.3125 115.914062 161.453125 114.058594 161.453125 111.777344 C 161.453125 109.496094 163.3125 107.636719 165.59375 107.636719 C 167.875 107.636719 169.734375 109.496094 169.734375 111.777344 C 169.734375 114.058594 171.59375 115.914062 173.875 115.914062 L 190.433594 115.914062 C 192.714844 115.914062 194.574219 114.058594 194.574219 111.777344 C 194.574219 95.800781 181.570312 82.796875 165.59375 82.796875 C 149.617188 82.796875 136.613281 95.800781 136.613281 111.777344 C 136.613281 127.75 149.617188 140.753906 165.59375 140.753906 C 167.875 140.753906 169.734375 142.613281 169.734375 144.894531 C 169.734375 147.175781 167.875 149.035156 165.59375 149.035156 "/><g clip-rule="nonzero" clip-path="url(#4dbfa2dc09)"><path style=" stroke:none;fill-rule:nonzero;fill:#0c5745;fill-opacity:1;" d="M 215.273438 240.109375 C 205.761719 240.109375 196.964844 234.53125 192.859375 225.910156 C 192.164062 224.476562 190.722656 223.550781 189.125 223.550781 L 166.902344 223.550781 C 165.304688 223.550781 163.863281 224.476562 163.167969 225.910156 C 159.0625 234.53125 150.265625 240.109375 140.753906 240.109375 C 127.054688 240.109375 115.914062 228.96875 115.914062 215.273438 C 115.914062 201.574219 127.054688 190.433594 140.753906 190.433594 L 215.273438 190.433594 C 228.96875 190.433594 240.109375 201.574219 240.109375 215.273438 C 240.109375 228.96875 228.96875 240.109375 215.273438 240.109375 Z M 100.324219 201.816406 L 68.402344 220.820312 L 68.90625 183.671875 C 68.921875 182.558594 68.484375 181.492188 67.695312 180.695312 C 66.898438 179.90625 65.785156 179.53125 64.71875 179.484375 L 27.554688 179.988281 L 46.574219 148.066406 C 47.15625 147.109375 47.300781 145.960938 47.007812 144.878906 C 46.734375 143.792969 46.007812 142.875 45.039062 142.339844 L 12.953125 124.375 L 49.03125 106.148438 C 51.050781 105.113281 51.875 102.65625 50.875 100.617188 L 34.007812 66.171875 C 36.511719 66.109375 38.957031 65.785156 41.316406 65.152344 L 67.742188 72.882812 C 68.128906 72.996094 68.519531 73.046875 68.90625 73.046875 C 69.859375 73.046875 70.800781 72.71875 71.539062 72.089844 C 72.609375 71.21875 73.160156 69.875 73.03125 68.503906 L 71.203125 49.679688 L 78.996094 49.679688 C 84.867188 59.816406 95.84375 66.238281 107.636719 66.238281 C 123.128906 66.238281 136.128906 55.53125 139.734375 41.152344 L 142.5 45.3125 C 143.714844 47.15625 146.15625 47.703125 148.066406 46.574219 L 179.988281 27.570312 L 179.484375 64.71875 C 179.46875 65.832031 179.90625 66.898438 180.695312 67.695312 C 181.492188 68.484375 182.507812 68.953125 183.671875 68.90625 L 220.835938 68.402344 L 201.816406 100.324219 C 201.234375 101.28125 201.089844 102.429688 201.382812 103.511719 C 201.65625 104.597656 202.382812 105.515625 203.351562 106.050781 L 235.777344 124.195312 L 203.351562 142.339844 C 201.382812 143.4375 200.652344 145.914062 201.722656 147.902344 L 220.363281 182.585938 C 218.699219 182.332031 217.003906 182.152344 215.273438 182.152344 L 140.753906 182.152344 C 125.390625 182.152344 112.472656 192.679688 108.753906 206.898438 L 105.761719 202.902344 C 104.496094 201.203125 102.15625 200.734375 100.324219 201.816406 Z M 64.199219 63.214844 L 52.570312 59.816406 C 56.261719 57.132812 59.425781 53.722656 61.757812 49.679688 L 62.875 49.679688 Z M 8.28125 33.117188 C 8.28125 19.421875 19.421875 8.28125 33.117188 8.28125 L 107.636719 8.28125 C 121.335938 8.28125 132.476562 19.421875 132.476562 33.117188 C 132.476562 46.816406 121.335938 57.957031 107.636719 57.957031 C 98.125 57.957031 89.328125 52.378906 85.222656 43.757812 C 84.527344 42.320312 83.085938 41.398438 81.488281 41.398438 L 59.265625 41.398438 C 57.667969 41.398438 56.226562 42.320312 55.53125 43.757812 C 51.425781 52.378906 42.628906 57.957031 33.117188 57.957031 C 19.421875 57.957031 8.28125 46.816406 8.28125 33.117188 Z M 231.621094 186.503906 L 231.816406 186.40625 L 210.953125 147.578125 L 246.269531 127.800781 C 247.582031 127.074219 248.390625 125.699219 248.390625 124.195312 C 248.390625 122.691406 247.582031 121.316406 246.269531 120.589844 L 211.097656 100.910156 L 231.71875 66.289062 C 232.492188 64.992188 232.492188 63.390625 231.75 62.097656 C 231.007812 60.804688 229.515625 60.0625 228.113281 60.027344 L 187.8125 60.578125 L 188.363281 20.277344 C 188.378906 18.773438 187.585938 17.382812 186.292969 16.640625 C 185 15.894531 183.398438 15.894531 182.101562 16.671875 L 147.207031 37.453125 L 140.140625 26.828125 C 137.199219 11.5625 123.742188 0 107.636719 0 L 33.117188 0 C 14.859375 0 0 14.859375 0 33.117188 C 0 48.289062 10.269531 61.078125 24.207031 64.992188 L 41.644531 100.601562 L 2.28125 120.488281 C 0.90625 121.1875 0.03125 122.578125 0 124.113281 C -0.03125 125.636719 0.777344 127.054688 2.117188 127.800781 L 37.292969 147.480469 L 16.65625 182.101562 C 15.894531 183.398438 15.878906 185 16.640625 186.292969 C 17.382812 187.585938 18.628906 188.296875 20.277344 188.363281 L 60.578125 187.8125 L 60.027344 228.113281 C 60.011719 229.617188 60.804688 231.007812 62.097656 231.75 C 62.742188 232.121094 63.457031 232.300781 64.167969 232.300781 C 64.894531 232.300781 65.636719 232.105469 66.289062 231.71875 L 101.359375 210.84375 L 107.976562 219.71875 C 110.140625 235.875 124 248.390625 140.753906 248.390625 C 152.546875 248.390625 163.523438 241.96875 169.394531 231.832031 L 186.632812 231.832031 C 192.503906 241.96875 203.480469 248.390625 215.273438 248.390625 C 233.527344 248.390625 248.390625 233.527344 248.390625 215.273438 C 248.390625 202.964844 241.613281 192.214844 231.621094 186.503906 "/></g><path style=" stroke:none;fill-rule:nonzero;fill:#0c5745;fill-opacity:1;" d="M 151.105469 211.132812 L 144.894531 211.132812 L 144.894531 204.921875 C 144.894531 202.640625 143.035156 200.78125 140.753906 200.78125 C 138.472656 200.78125 136.613281 202.640625 136.613281 204.921875 L 136.613281 211.132812 L 130.40625 211.132812 C 128.125 211.132812 126.265625 212.992188 126.265625 215.273438 C 126.265625 217.554688 128.125 219.410156 130.40625 219.410156 L 136.613281 219.410156 L 136.613281 225.621094 C 136.613281 227.902344 138.472656 229.761719 140.753906 229.761719 C 143.035156 229.761719 144.894531 227.902344 144.894531 225.621094 L 144.894531 219.410156 L 151.105469 219.410156 C 153.386719 219.410156 155.246094 217.554688 155.246094 215.273438 C 155.246094 212.992188 153.386719 211.132812 151.105469 211.132812 "/><path style=" stroke:none;fill-rule:nonzero;fill:#0c5745;fill-opacity:1;" d="M 215.273438 198.710938 C 212.992188 198.710938 211.132812 200.570312 211.132812 202.851562 C 211.132812 205.132812 212.992188 206.992188 215.273438 206.992188 C 217.554688 206.992188 219.410156 205.132812 219.410156 202.851562 C 219.410156 200.570312 217.554688 198.710938 215.273438 198.710938 "/><path style=" stroke:none;fill-rule:nonzero;fill:#0c5745;fill-opacity:1;" d="M 215.273438 219.410156 C 212.992188 219.410156 211.132812 221.269531 211.132812 223.550781 C 211.132812 225.832031 212.992188 227.691406 215.273438 227.691406 C 217.554688 227.691406 219.410156 225.832031 219.410156 223.550781 C 219.410156 221.269531 217.554688 219.410156 215.273438 219.410156 "/><path style=" stroke:none;fill-rule:nonzero;fill:#0c5745;fill-opacity:1;" d="M 204.921875 209.0625 C 202.640625 209.0625 200.78125 210.921875 200.78125 213.203125 C 200.78125 215.484375 202.640625 217.339844 204.921875 217.339844 C 207.203125 217.339844 209.0625 215.484375 209.0625 213.203125 C 209.0625 210.921875 207.203125 209.0625 204.921875 209.0625 "/><path style=" stroke:none;fill-rule:nonzero;fill:#0c5745;fill-opacity:1;" d="M 225.621094 209.0625 C 223.339844 209.0625 221.480469 210.921875 221.480469 213.203125 C 221.480469 215.484375 223.339844 217.339844 225.621094 217.339844 C 227.902344 217.339844 229.761719 215.484375 229.761719 213.203125 C 229.761719 210.921875 227.902344 209.0625 225.621094 209.0625 "/><path style=" stroke:none;fill-rule:nonzero;fill:#0c5745;fill-opacity:1;" d="M 37.257812 43.46875 L 37.257812 37.257812 L 43.46875 37.257812 C 45.75 37.257812 47.609375 35.398438 47.609375 33.117188 C 47.609375 30.839844 45.75 28.980469 43.46875 28.980469 L 37.257812 28.980469 L 37.257812 22.769531 C 37.257812 20.488281 35.398438 18.628906 33.117188 18.628906 C 30.839844 18.628906 28.980469 20.488281 28.980469 22.769531 L 28.980469 28.980469 L 22.769531 28.980469 C 20.488281 28.980469 18.628906 30.839844 18.628906 33.117188 C 18.628906 35.398438 20.488281 37.257812 22.769531 37.257812 L 28.980469 37.257812 L 28.980469 43.46875 C 28.980469 45.75 30.839844 47.609375 33.117188 47.609375 C 35.398438 47.609375 37.257812 45.75 37.257812 43.46875 "/><path style=" stroke:none;fill-rule:nonzero;fill:#0c5745;fill-opacity:1;" d="M 107.636719 24.839844 C 109.917969 24.839844 111.777344 22.980469 111.777344 20.699219 C 111.777344 18.417969 109.917969 16.558594 107.636719 16.558594 C 105.355469 16.558594 103.496094 18.417969 103.496094 20.699219 C 103.496094 22.980469 105.355469 24.839844 107.636719 24.839844 "/><path style=" stroke:none;fill-rule:nonzero;fill:#0c5745;fill-opacity:1;" d="M 107.636719 45.539062 C 109.917969 45.539062 111.777344 43.679688 111.777344 41.398438 C 111.777344 39.117188 109.917969 37.257812 107.636719 37.257812 C 105.355469 37.257812 103.496094 39.117188 103.496094 41.398438 C 103.496094 43.679688 105.355469 45.539062 107.636719 45.539062 "/><path style=" stroke:none;fill-rule:nonzero;fill:#0c5745;fill-opacity:1;" d="M 97.285156 35.1875 C 99.566406 35.1875 101.425781 33.328125 101.425781 31.046875 C 101.425781 28.769531 99.566406 26.910156 97.285156 26.910156 C 95.003906 26.910156 93.148438 28.769531 93.148438 31.046875 C 93.148438 33.328125 95.003906 35.1875 97.285156 35.1875 "/><path style=" stroke:none;fill-rule:nonzero;fill:#0c5745;fill-opacity:1;" d="M 117.984375 35.1875 C 120.265625 35.1875 122.125 33.328125 122.125 31.046875 C 122.125 28.769531 120.265625 26.910156 117.984375 26.910156 C 115.703125 26.910156 113.847656 28.769531 113.847656 31.046875 C 113.847656 33.328125 115.703125 35.1875 117.984375 35.1875 "/></g></svg>