<svg xmlns="http://www.w3.org/2000/svg" xmlns:xlink="http://www.w3.org/1999/xlink" width="251" zoomAndPan="magnify" viewBox="0 0 188.25 188.250001" height="251" preserveAspectRatio="xMidYMid meet" version="1.0"><defs><clipPath id="ae84120240"><path d="M 0 0 L 187.503906 0 L 187.503906 187.503906 L 0 187.503906 Z M 0 0 " clip-rule="nonzero"/></clipPath><clipPath id="a57d36a8fd"><path d="M 0 0 L 186.757812 0 L 186.757812 186.757812 L 0 186.757812 Z M 0 0 " clip-rule="nonzero"/></clipPath><clipPath id="cb06d5a1a3"><path d="M 0 0 L 186.757812 0 L 186.757812 186.757812 L 0 186.757812 Z M 0 0 " clip-rule="nonzero"/></clipPath></defs><g clip-path="url(#ae84120240)"><path fill="#ffffff" d="M 0 0 L 187.503906 0 L 187.503906 187.503906 L 0 187.503906 Z M 0 0 " fill-opacity="1" fill-rule="nonzero"/></g><g clip-path="url(#a57d36a8fd)"><path fill="#0c5745" d="M 159.636719 27.390625 C 141.972656 9.726562 118.492188 0 93.511719 0 C 68.535156 0 45.050781 9.726562 27.390625 27.390625 C 9.726562 45.050781 0 68.535156 0 93.511719 C 0 118.488281 9.726562 141.972656 27.390625 159.636719 C 45.050781 177.296875 68.535156 187.023438 93.511719 187.023438 C 118.492188 187.023438 141.972656 177.296875 159.636719 159.636719 C 177.296875 141.972656 187.023438 118.492188 187.023438 93.511719 C 187.023438 68.535156 177.296875 45.050781 159.636719 27.390625 Z M 159.636719 27.390625 " fill-opacity="1" fill-rule="nonzero"/></g><path fill="#ffffff" d="M 115.84375 49.097656 C 116.578125 49.828125 117.269531 50.59375 117.925781 51.394531 C 118.582031 52.191406 119.199219 53.023438 119.773438 53.882812 C 120.347656 54.742188 120.878906 55.628906 121.367188 56.542969 C 121.855469 57.453125 122.296875 58.386719 122.691406 59.34375 C 123.085938 60.300781 123.433594 61.273438 123.734375 62.261719 C 124.035156 63.25 124.285156 64.253906 124.488281 65.269531 C 124.691406 66.28125 124.84375 67.304688 124.941406 68.332031 C 125.042969 69.363281 125.09375 70.394531 125.09375 71.429688 C 125.09375 72.464844 125.042969 73.496094 124.941406 74.523438 C 124.84375 75.554688 124.691406 76.578125 124.488281 77.589844 C 124.285156 78.605469 124.035156 79.605469 123.734375 80.597656 C 123.433594 81.585938 123.085938 82.558594 122.691406 83.515625 C 122.296875 84.472656 121.855469 85.40625 121.367188 86.316406 C 120.878906 87.230469 120.347656 88.117188 119.773438 88.976562 C 119.199219 89.835938 118.582031 90.664062 117.925781 91.464844 C 117.269531 92.265625 116.578125 93.03125 115.84375 93.761719 C 115.113281 94.492188 114.347656 95.1875 113.546875 95.84375 C 112.75 96.5 111.917969 97.113281 111.058594 97.6875 C 110.199219 98.265625 109.3125 98.792969 108.402344 99.28125 C 107.488281 99.769531 106.554688 100.210938 105.597656 100.609375 C 104.644531 101.003906 103.671875 101.351562 102.679688 101.652344 C 101.691406 101.953125 100.6875 102.203125 99.675781 102.40625 C 98.660156 102.605469 97.636719 102.757812 96.609375 102.859375 C 95.578125 102.960938 94.546875 103.011719 93.511719 103.011719 C 92.480469 103.011719 91.445312 102.960938 90.417969 102.859375 C 89.386719 102.757812 88.367188 102.605469 87.351562 102.40625 C 86.335938 102.203125 85.335938 101.953125 84.34375 101.652344 C 83.355469 101.351562 82.382812 101.003906 81.425781 100.609375 C 80.472656 100.210938 79.539062 99.769531 78.625 99.28125 C 77.714844 98.792969 76.828125 98.265625 75.964844 97.6875 C 75.105469 97.113281 74.277344 96.5 73.476562 95.84375 C 72.679688 95.1875 71.914062 94.492188 71.179688 93.761719 C 70.449219 93.03125 69.753906 92.265625 69.097656 91.464844 C 68.441406 90.664062 67.828125 89.835938 67.253906 88.976562 C 66.679688 88.117188 66.148438 87.230469 65.660156 86.316406 C 65.171875 85.40625 64.730469 84.472656 64.335938 83.515625 C 63.9375 82.558594 63.589844 81.585938 63.289062 80.597656 C 62.992188 79.605469 62.738281 78.605469 62.539062 77.589844 C 62.335938 76.578125 62.183594 75.554688 62.082031 74.523438 C 61.980469 73.496094 61.929688 72.464844 61.929688 71.429688 C 61.929688 70.394531 61.980469 69.363281 62.082031 68.332031 C 62.183594 67.304688 62.335938 66.28125 62.539062 65.269531 C 62.738281 64.253906 62.992188 63.25 63.289062 62.261719 C 63.589844 61.273438 63.9375 60.300781 64.335938 59.34375 C 64.730469 58.386719 65.171875 57.453125 65.660156 56.542969 C 66.148438 55.628906 66.679688 54.742188 67.253906 53.882812 C 67.828125 53.023438 68.441406 52.191406 69.097656 51.394531 C 69.753906 50.59375 70.449219 49.828125 71.179688 49.097656 C 71.914062 48.367188 72.679688 47.671875 73.476562 47.015625 C 74.277344 46.359375 75.105469 45.746094 75.964844 45.167969 C 76.828125 44.59375 77.714844 44.0625 78.625 43.574219 C 79.539062 43.089844 80.472656 42.648438 81.425781 42.25 C 82.382812 41.855469 83.355469 41.507812 84.34375 41.207031 C 85.335938 40.90625 86.335938 40.65625 87.351562 40.453125 C 88.367188 40.253906 89.386719 40.101562 90.417969 40 C 91.445312 39.898438 92.480469 39.847656 93.511719 39.847656 C 94.546875 39.847656 95.578125 39.898438 96.609375 40 C 97.636719 40.101562 98.660156 40.253906 99.675781 40.453125 C 100.6875 40.65625 101.691406 40.90625 102.679688 41.207031 C 103.671875 41.507812 104.644531 41.855469 105.597656 42.25 C 106.554688 42.648438 107.488281 43.089844 108.402344 43.574219 C 109.3125 44.0625 110.199219 44.59375 111.058594 45.167969 C 111.917969 45.746094 112.75 46.359375 113.546875 47.015625 C 114.347656 47.671875 115.113281 48.367188 115.84375 49.097656 Z M 115.84375 49.097656 " fill-opacity="1" fill-rule="nonzero"/><path fill="#ffffff" d="M 94.425781 117.046875 L 92.601562 117.046875 C 66.796875 117.046875 45.0625 134.46875 38.515625 158.191406 C 53.34375 170.820312 72.550781 178.457031 93.511719 178.457031 C 114.472656 178.457031 133.679688 170.820312 148.511719 158.191406 C 141.960938 134.46875 120.230469 117.046875 94.425781 117.046875 Z M 94.425781 117.046875 " fill-opacity="1" fill-rule="nonzero"/><g clip-path="url(#cb06d5a1a3)"><path fill="#0c5745" d="M 159.636719 27.390625 C 141.972656 9.726562 118.492188 0 93.511719 0 C 68.535156 0 45.050781 9.726562 27.390625 27.390625 C 9.726562 45.050781 0 68.535156 0 93.511719 C 0 118.488281 9.726562 141.972656 27.390625 159.636719 C 45.050781 177.296875 68.535156 187.023438 93.511719 187.023438 C 118.492188 187.023438 141.972656 177.296875 159.636719 159.636719 C 177.296875 141.972656 187.023438 118.492188 187.023438 93.511719 C 187.023438 68.535156 177.296875 45.050781 159.636719 27.390625 Z M 159.636719 27.390625 " fill-opacity="1" fill-rule="nonzero"/></g><path fill="#ffffff" d="M 115.84375 49.097656 C 116.578125 49.828125 117.269531 50.59375 117.925781 51.394531 C 118.582031 52.191406 119.199219 53.023438 119.773438 53.882812 C 120.347656 54.742188 120.878906 55.628906 121.367188 56.542969 C 121.855469 57.453125 122.296875 58.386719 122.691406 59.34375 C 123.085938 60.300781 123.433594 61.273438 123.734375 62.261719 C 124.035156 63.25 124.285156 64.253906 124.488281 65.269531 C 124.691406 66.28125 124.84375 67.304688 124.941406 68.332031 C 125.042969 69.363281 125.09375 70.394531 125.09375 71.429688 C 125.09375 72.464844 125.042969 73.496094 124.941406 74.523438 C 124.84375 75.554688 124.691406 76.578125 124.488281 77.589844 C 124.285156 78.605469 124.035156 79.605469 123.734375 80.597656 C 123.433594 81.585938 123.085938 82.558594 122.691406 83.515625 C 122.296875 84.472656 121.855469 85.40625 121.367188 86.316406 C 120.878906 87.230469 120.347656 88.117188 119.773438 88.976562 C 119.199219 89.835938 118.582031 90.664062 117.925781 91.464844 C 117.269531 92.265625 116.578125 93.03125 115.84375 93.761719 C 115.113281 94.492188 114.347656 95.1875 113.546875 95.84375 C 112.75 96.5 111.917969 97.113281 111.058594 97.6875 C 110.199219 98.265625 109.3125 98.792969 108.402344 99.28125 C 107.488281 99.769531 106.554688 100.210938 105.597656 100.609375 C 104.644531 101.003906 103.671875 101.351562 102.679688 101.652344 C 101.691406 101.953125 100.6875 102.203125 99.675781 102.40625 C 98.660156 102.605469 97.636719 102.757812 96.609375 102.859375 C 95.578125 102.960938 94.546875 103.011719 93.511719 103.011719 C 92.480469 103.011719 91.445312 102.960938 90.417969 102.859375 C 89.386719 102.757812 88.367188 102.605469 87.351562 102.40625 C 86.335938 102.203125 85.335938 101.953125 84.34375 101.652344 C 83.355469 101.351562 82.382812 101.003906 81.425781 100.609375 C 80.472656 100.210938 79.539062 99.769531 78.625 99.28125 C 77.714844 98.792969 76.828125 98.265625 75.964844 97.6875 C 75.105469 97.113281 74.277344 96.5 73.476562 95.84375 C 72.679688 95.1875 71.914062 94.492188 71.179688 93.761719 C 70.449219 93.03125 69.753906 92.265625 69.097656 91.464844 C 68.441406 90.664062 67.828125 89.835938 67.253906 88.976562 C 66.679688 88.117188 66.148438 87.230469 65.660156 86.316406 C 65.171875 85.40625 64.730469 84.472656 64.335938 83.515625 C 63.9375 82.558594 63.589844 81.585938 63.289062 80.597656 C 62.992188 79.605469 62.738281 78.605469 62.539062 77.589844 C 62.335938 76.578125 62.183594 75.554688 62.082031 74.523438 C 61.980469 73.496094 61.929688 72.464844 61.929688 71.429688 C 61.929688 70.394531 61.980469 69.363281 62.082031 68.332031 C 62.183594 67.304688 62.335938 66.28125 62.539062 65.269531 C 62.738281 64.253906 62.992188 63.25 63.289062 62.261719 C 63.589844 61.273438 63.9375 60.300781 64.335938 59.34375 C 64.730469 58.386719 65.171875 57.453125 65.660156 56.542969 C 66.148438 55.628906 66.679688 54.742188 67.253906 53.882812 C 67.828125 53.023438 68.441406 52.191406 69.097656 51.394531 C 69.753906 50.59375 70.449219 49.828125 71.179688 49.097656 C 71.914062 48.367188 72.679688 47.671875 73.476562 47.015625 C 74.277344 46.359375 75.105469 45.746094 75.964844 45.167969 C 76.828125 44.59375 77.714844 44.0625 78.625 43.574219 C 79.539062 43.089844 80.472656 42.648438 81.425781 42.25 C 82.382812 41.855469 83.355469 41.507812 84.34375 41.207031 C 85.335938 40.90625 86.335938 40.65625 87.351562 40.453125 C 88.367188 40.253906 89.386719 40.101562 90.417969 40 C 91.445312 39.898438 92.480469 39.847656 93.511719 39.847656 C 94.546875 39.847656 95.578125 39.898438 96.609375 40 C 97.636719 40.101562 98.660156 40.253906 99.675781 40.453125 C 100.6875 40.65625 101.691406 40.90625 102.679688 41.207031 C 103.671875 41.507812 104.644531 41.855469 105.597656 42.25 C 106.554688 42.648438 107.488281 43.089844 108.402344 43.574219 C 109.3125 44.0625 110.199219 44.59375 111.058594 45.167969 C 111.917969 45.746094 112.75 46.359375 113.546875 47.015625 C 114.347656 47.671875 115.113281 48.367188 115.84375 49.097656 Z M 115.84375 49.097656 " fill-opacity="1" fill-rule="nonzero"/><path fill="#ffffff" d="M 94.425781 117.046875 L 92.601562 117.046875 C 66.796875 117.046875 45.0625 134.46875 38.515625 158.191406 C 53.34375 170.820312 72.550781 178.457031 93.511719 178.457031 C 114.472656 178.457031 133.679688 170.820312 148.511719 158.191406 C 141.960938 134.46875 120.230469 117.046875 94.425781 117.046875 Z M 94.425781 117.046875 " fill-opacity="1" fill-rule="nonzero"/></svg>