<svg xmlns="http://www.w3.org/2000/svg" xmlns:xlink="http://www.w3.org/1999/xlink" width="62" zoomAndPan="magnify" viewBox="0 0 46.5 47.25" height="63" preserveAspectRatio="xMidYMid meet" version="1.0"><defs><clipPath id="867168bf83"><path d="M 0.117188 0 L 45.890625 0 L 45.890625 46.511719 L 0.117188 46.511719 Z M 0.117188 0 " clip-rule="nonzero"/></clipPath><clipPath id="59b7da2e92"><path d="M 0.117188 14 L 11 14 L 11 32 L 0.117188 32 Z M 0.117188 14 " clip-rule="nonzero"/></clipPath><clipPath id="6835c370ea"><path d="M 32 14 L 45.890625 14 L 45.890625 32 L 32 32 Z M 32 14 " clip-rule="nonzero"/></clipPath><clipPath id="afd80d4234"><path d="M 6 35 L 19 35 L 19 45.773438 L 6 45.773438 Z M 6 35 " clip-rule="nonzero"/></clipPath><clipPath id="b360a3af63"><path d="M 15 35 L 29 35 L 29 45.773438 L 15 45.773438 Z M 15 35 " clip-rule="nonzero"/></clipPath><clipPath id="ae2536648f"><path d="M 27 35 L 40 35 L 40 45.773438 L 27 45.773438 Z M 27 35 " clip-rule="nonzero"/></clipPath><clipPath id="8439702179"><path d="M 0.117188 14 L 11 14 L 11 32 L 0.117188 32 Z M 0.117188 14 " clip-rule="nonzero"/></clipPath><clipPath id="b6c138010c"><path d="M 32 14 L 45.890625 14 L 45.890625 32 L 32 32 Z M 32 14 " clip-rule="nonzero"/></clipPath><clipPath id="15ac0464c7"><path d="M 6 35 L 19 35 L 19 45.773438 L 6 45.773438 Z M 6 35 " clip-rule="nonzero"/></clipPath><clipPath id="df3c7fe793"><path d="M 15 35 L 29 35 L 29 45.773438 L 15 45.773438 Z M 15 35 " clip-rule="nonzero"/></clipPath><clipPath id="229e6f57fc"><path d="M 27 35 L 40 35 L 40 45.773438 L 27 45.773438 Z M 27 35 " clip-rule="nonzero"/></clipPath></defs><g clip-path="url(#867168bf83)"><path fill="#ffffff" d="M 0.117188 0 L 45.890625 0 L 45.890625 46.511719 L 0.117188 46.511719 Z M 0.117188 0 " fill-opacity="1" fill-rule="nonzero"/></g><g clip-path="url(#59b7da2e92)"><path fill="#0c5745" d="M 4.871094 28.691406 C 4.925781 28.691406 4.980469 28.707031 5.027344 28.742188 C 6.671875 30.023438 7.035156 30.304688 8.226562 31.113281 C 7.503906 28.675781 7.351562 28.097656 6.902344 25.785156 C 6.890625 25.722656 6.902344 25.660156 6.9375 25.605469 C 8.277344 23.457031 8.554688 23.015625 9.703125 21.46875 C 7.800781 21.070312 7.410156 20.988281 5.957031 20.640625 C 5.863281 20.617188 5.792969 20.542969 5.769531 20.445312 C 5.246094 17.984375 5.101562 17.316406 4.949219 15.867188 C 4.066406 17.894531 3.847656 18.460938 3.222656 20.46875 C 3.199219 20.546875 3.136719 20.609375 3.058594 20.632812 C 1.730469 21.058594 1.425781 21.152344 0.726562 21.445312 C 1.453125 23.546875 1.582031 23.882812 2.488281 25.621094 C 2.503906 25.652344 2.511719 25.691406 2.515625 25.726562 C 2.648438 28.574219 2.679688 29.183594 2.992188 31.023438 C 3.609375 30.046875 3.804688 29.789062 4.683594 28.777344 C 4.730469 28.71875 4.800781 28.691406 4.871094 28.691406 Z M 8.667969 31.96875 C 8.621094 31.96875 8.570312 31.953125 8.527344 31.925781 C 6.875 30.8125 6.632812 30.628906 4.90625 29.289062 C 4.050781 30.277344 3.921875 30.488281 3.070312 31.847656 C 3.015625 31.9375 2.910156 31.984375 2.808594 31.964844 C 2.707031 31.941406 2.625 31.863281 2.609375 31.757812 C 2.183594 29.355469 2.160156 28.9375 2.011719 25.804688 C 1.082031 24.015625 0.972656 23.699219 0.171875 21.386719 C 0.128906 21.261719 0.1875 21.125 0.3125 21.074219 C 1.175781 20.707031 1.417969 20.628906 2.78125 20.195312 C 3.460938 18.003906 3.667969 17.535156 4.875 14.78125 C 4.921875 14.675781 5.035156 14.613281 5.148438 14.632812 C 5.261719 14.652344 5.347656 14.746094 5.359375 14.859375 C 5.554688 17.007812 5.636719 17.410156 6.230469 20.1875 C 7.640625 20.523438 8.035156 20.605469 10.191406 21.058594 C 10.273438 21.074219 10.34375 21.136719 10.375 21.214844 C 10.40625 21.296875 10.394531 21.386719 10.34375 21.457031 C 9.015625 23.230469 8.789062 23.589844 7.417969 25.789062 C 7.882812 28.1875 8.027344 28.679688 8.910156 31.644531 C 8.941406 31.746094 8.902344 31.855469 8.820312 31.917969 C 8.773438 31.953125 8.722656 31.96875 8.667969 31.96875 " fill-opacity="1" fill-rule="nonzero"/></g><path fill="#0c5745" d="M 21.085938 28.691406 C 21.125 28.691406 21.164062 28.699219 21.199219 28.71875 C 22.199219 29.226562 23.21875 29.742188 24.203125 30.242188 C 24.875 30.582031 25.550781 30.921875 26.226562 31.265625 C 25.796875 28.691406 25.769531 28.535156 25.292969 25.78125 C 25.277344 25.699219 25.304688 25.617188 25.367188 25.558594 C 27.734375 23.257812 27.882812 23.113281 29.496094 21.480469 C 26.6875 21.0625 26.488281 21.035156 23.761719 20.644531 C 23.679688 20.632812 23.609375 20.578125 23.570312 20.503906 C 22.375 18.078125 21.910156 17.128906 21.113281 15.449219 C 19.917969 17.726562 19.527344 18.476562 18.535156 20.503906 C 18.496094 20.578125 18.425781 20.628906 18.347656 20.644531 C 15.585938 21.070312 14.925781 21.171875 13.042969 21.480469 C 14.890625 23.523438 15.175781 23.832031 16.875 25.5625 C 16.929688 25.617188 16.957031 25.691406 16.945312 25.769531 C 16.582031 28.679688 16.503906 29.300781 16.339844 31.261719 C 18.546875 30.015625 18.855469 29.847656 20.96875 28.71875 C 21.003906 28.699219 21.046875 28.691406 21.085938 28.691406 Z M 26.554688 31.96875 C 26.515625 31.96875 26.476562 31.957031 26.441406 31.941406 C 25.621094 31.523438 24.796875 31.105469 23.972656 30.691406 C 23.027344 30.210938 22.050781 29.71875 21.089844 29.226562 C 18.960938 30.359375 18.714844 30.5 16.171875 31.933594 C 16.089844 31.980469 15.992188 31.976562 15.910156 31.929688 C 15.832031 31.878906 15.789062 31.789062 15.796875 31.695312 C 15.988281 29.363281 16.050781 28.863281 16.429688 25.828125 C 14.710938 24.078125 14.460938 23.800781 12.359375 21.472656 C 12.300781 21.40625 12.28125 21.308594 12.308594 21.222656 C 12.339844 21.132812 12.417969 21.070312 12.507812 21.054688 C 14.726562 20.691406 15.277344 20.605469 18.140625 20.164062 C 19.15625 18.09375 19.539062 17.359375 20.898438 14.765625 C 20.945312 14.679688 21.035156 14.628906 21.128906 14.628906 C 21.222656 14.632812 21.308594 14.6875 21.351562 14.773438 C 22.273438 16.726562 22.710938 17.617188 23.964844 20.164062 C 26.714844 20.558594 26.824219 20.574219 30.058594 21.054688 C 30.152344 21.070312 30.230469 21.136719 30.261719 21.226562 C 30.289062 21.316406 30.269531 21.414062 30.203125 21.480469 C 28.273438 23.433594 28.25 23.457031 25.8125 25.828125 C 26.292969 28.617188 26.300781 28.664062 26.804688 31.675781 C 26.820312 31.769531 26.78125 31.863281 26.707031 31.917969 C 26.660156 31.949219 26.609375 31.96875 26.554688 31.96875 " fill-opacity="1" fill-rule="nonzero"/><g clip-path="url(#6835c370ea)"><path fill="#0c5745" d="M 33.335938 21.476562 C 35.085938 23.515625 35.386719 23.875 36.707031 25.585938 C 36.75 25.644531 36.769531 25.71875 36.753906 25.789062 C 36.128906 28.722656 36.015625 29.261719 35.46875 31.175781 C 37.359375 30.0625 37.847656 29.765625 39.4375 28.730469 C 39.527344 28.671875 39.652344 28.679688 39.734375 28.75 C 41.246094 30.011719 41.636719 30.339844 42.453125 31.152344 C 42.671875 28.589844 42.699219 28.097656 42.644531 25.742188 C 42.644531 25.691406 42.660156 25.640625 42.6875 25.597656 C 44.171875 23.398438 44.398438 23.0625 45.238281 21.46875 C 43.664062 21.058594 43.398438 20.996094 41.796875 20.640625 C 41.71875 20.621094 41.652344 20.566406 41.621094 20.488281 C 40.550781 17.847656 40.34375 17.335938 39.476562 15.613281 C 38.949219 17.878906 38.828125 18.3125 38.125 20.472656 C 38.097656 20.558594 38.023438 20.625 37.933594 20.640625 C 35.507812 21.097656 35.152344 21.164062 33.335938 21.476562 Z M 42.65625 31.96875 C 42.589844 31.96875 42.527344 31.941406 42.476562 31.894531 C 41.417969 30.820312 41.140625 30.582031 39.554688 29.257812 C 37.945312 30.300781 37.472656 30.582031 35.179688 31.933594 C 35.089844 31.984375 34.976562 31.976562 34.894531 31.914062 C 34.8125 31.851562 34.78125 31.746094 34.808594 31.644531 C 35.5 29.253906 35.578125 28.898438 36.234375 25.800781 C 34.917969 24.089844 34.632812 23.761719 32.664062 21.46875 C 32.605469 21.398438 32.589844 21.304688 32.621094 21.21875 C 32.648438 21.132812 32.722656 21.070312 32.8125 21.054688 C 34.980469 20.683594 35.226562 20.636719 37.691406 20.171875 C 38.410156 17.964844 38.492188 17.621094 39.140625 14.824219 C 39.164062 14.722656 39.25 14.644531 39.355469 14.632812 C 39.460938 14.621094 39.5625 14.671875 39.609375 14.769531 C 40.75 17.007812 40.890625 17.339844 42.039062 20.175781 C 43.628906 20.53125 43.859375 20.589844 45.671875 21.0625 C 45.746094 21.082031 45.808594 21.132812 45.839844 21.203125 C 45.867188 21.273438 45.867188 21.355469 45.832031 21.421875 C 44.863281 23.273438 44.691406 23.53125 43.152344 25.8125 C 43.207031 28.277344 43.171875 28.699219 42.90625 31.738281 C 42.898438 31.835938 42.835938 31.917969 42.742188 31.953125 C 42.714844 31.960938 42.6875 31.96875 42.65625 31.96875 " fill-opacity="1" fill-rule="nonzero"/></g><path fill="#0c5745" d="M 8.078125 8.667969 C 8.097656 8.667969 8.121094 8.671875 8.144531 8.679688 C 8.210938 8.695312 8.265625 8.738281 8.296875 8.800781 C 8.855469 9.808594 8.980469 10.03125 9.515625 10.691406 C 10.351562 8.527344 10.515625 8.144531 11.453125 6.449219 C 11.46875 6.414062 11.496094 6.386719 11.527344 6.363281 C 13.535156 4.957031 13.886719 4.710938 15.222656 3.847656 C 14.503906 3.683594 14.285156 3.625 13.664062 3.445312 C 13.582031 3.425781 13.519531 3.363281 13.492188 3.285156 C 13.464844 3.203125 13.480469 3.117188 13.53125 3.050781 C 14.039062 2.390625 14.367188 1.964844 14.644531 1.628906 C 13.75 2.179688 13.203125 2.554688 12.015625 3.410156 C 11.988281 3.429688 11.957031 3.441406 11.921875 3.449219 C 10.769531 3.710938 10.554688 3.761719 9.839844 3.957031 C 8.898438 5.320312 8.789062 5.484375 8.332031 6.660156 C 8.324219 6.6875 8.308594 6.710938 8.289062 6.734375 C 6.742188 8.542969 6.253906 9.109375 5.460938 10.238281 C 6.367188 9.636719 6.746094 9.40625 7.949219 8.703125 C 7.988281 8.679688 8.03125 8.667969 8.078125 8.667969 Z M 9.363281 11.089844 L 9.597656 11.183594 Z M 4.507812 11.433594 C 4.441406 11.433594 4.378906 11.410156 4.328125 11.359375 C 4.242188 11.273438 4.230469 11.140625 4.296875 11.039062 C 5.660156 9.03125 5.917969 8.726562 7.878906 6.4375 C 8.351562 5.222656 8.511719 4.992188 9.476562 3.597656 C 9.511719 3.546875 9.558594 3.511719 9.617188 3.496094 C 10.40625 3.277344 10.597656 3.234375 11.761719 2.96875 C 13.566406 1.671875 13.890625 1.480469 16.28125 0.0664062 C 16.390625 0 16.539062 0.03125 16.613281 0.136719 C 16.691406 0.242188 16.671875 0.390625 16.570312 0.472656 C 15.40625 1.46875 15.265625 1.621094 14.15625 3.0625 C 14.644531 3.199219 14.925781 3.261719 15.914062 3.492188 C 16.011719 3.515625 16.089844 3.597656 16.105469 3.695312 C 16.121094 3.796875 16.078125 3.894531 15.992188 3.949219 C 14.242188 5.078125 14.050781 5.214844 11.863281 6.742188 C 10.914062 8.464844 10.785156 8.800781 9.832031 11.273438 C 9.800781 11.355469 9.726562 11.414062 9.640625 11.429688 C 9.550781 11.445312 9.460938 11.414062 9.40625 11.34375 C 8.644531 10.4375 8.507812 10.21875 7.980469 9.269531 C 6.605469 10.074219 6.382812 10.222656 4.648438 11.390625 C 4.605469 11.421875 4.554688 11.433594 4.507812 11.433594 " fill-opacity="1" fill-rule="nonzero"/><path fill="#0c5745" d="M 21.507812 8.667969 C 21.546875 8.667969 21.585938 8.679688 21.621094 8.695312 C 23.605469 9.71875 23.742188 9.789062 25.664062 10.730469 C 25.246094 8.75 25.121094 8.148438 24.820312 6.621094 C 24.804688 6.535156 24.832031 6.449219 24.894531 6.386719 C 26.289062 5.058594 26.640625 4.722656 27.367188 3.925781 C 26.457031 3.800781 26.160156 3.757812 23.914062 3.453125 C 23.828125 3.441406 23.753906 3.386719 23.71875 3.308594 C 23.117188 1.949219 22.941406 1.554688 22.714844 0.828125 C 21.933594 1.855469 21.824219 1.996094 20.773438 3.359375 C 20.734375 3.410156 20.675781 3.445312 20.609375 3.453125 C 18.867188 3.695312 18.386719 3.761719 17.183594 3.9375 C 17.800781 5.050781 17.953125 5.292969 18.800781 6.417969 C 18.851562 6.488281 18.863281 6.582031 18.832031 6.664062 C 18.023438 8.65625 17.808594 9.191406 17.261719 10.683594 C 19.109375 9.789062 19.289062 9.703125 21.398438 8.695312 C 21.433594 8.675781 21.46875 8.667969 21.507812 8.667969 Z M 16.8125 11.433594 C 16.75 11.433594 16.691406 11.410156 16.644531 11.371094 C 16.566406 11.300781 16.539062 11.191406 16.574219 11.097656 C 17.277344 9.15625 17.449219 8.730469 18.3125 6.609375 C 17.445312 5.457031 17.328125 5.242188 16.5625 3.859375 C 16.523438 3.789062 16.523438 3.699219 16.558594 3.628906 C 16.597656 3.554688 16.667969 3.5 16.75 3.488281 C 18.210938 3.277344 18.621094 3.222656 20.4375 2.96875 C 21.546875 1.535156 21.566406 1.507812 22.609375 0.128906 C 22.667969 0.0546875 22.761719 0.015625 22.855469 0.0351562 C 22.949219 0.0507812 23.027344 0.121094 23.054688 0.210938 C 23.355469 1.234375 23.46875 1.492188 24.121094 2.972656 C 26.574219 3.304688 26.597656 3.308594 27.90625 3.488281 C 27.996094 3.503906 28.074219 3.566406 28.105469 3.652344 C 28.140625 3.738281 28.121094 3.835938 28.058594 3.90625 C 27.101562 4.976562 26.847656 5.222656 25.339844 6.65625 C 25.648438 8.203125 25.773438 8.804688 26.261719 11.128906 C 26.28125 11.226562 26.246094 11.320312 26.167969 11.382812 C 26.09375 11.441406 25.992188 11.449219 25.902344 11.410156 C 23.570312 10.265625 23.527344 10.246094 21.503906 9.203125 C 19.3125 10.253906 19.273438 10.269531 16.921875 11.410156 C 16.886719 11.425781 16.851562 11.433594 16.8125 11.433594 " fill-opacity="1" fill-rule="nonzero"/><path fill="#0c5745" d="M 33.433594 6.492188 C 34.144531 8.636719 34.277344 9.046875 34.628906 10.722656 C 35.792969 9.761719 36.011719 9.566406 36.800781 8.746094 C 36.878906 8.664062 37 8.644531 37.101562 8.699219 C 38.789062 9.585938 39.394531 9.902344 40.351562 10.445312 C 39.230469 8.722656 38.910156 8.277344 37.671875 6.726562 C 37.640625 6.691406 37.621094 6.644531 37.617188 6.597656 C 37.457031 5.03125 37.445312 4.910156 37.070312 3.960938 C 35.738281 3.695312 35.585938 3.667969 34.375 3.453125 C 34.335938 3.445312 34.296875 3.429688 34.265625 3.40625 C 32.667969 2.195312 32.117188 1.777344 31.28125 1.21875 C 31.691406 1.828125 31.847656 2.179688 32.214844 3.113281 C 32.242188 3.183594 32.238281 3.261719 32.203125 3.324219 C 32.164062 3.390625 32.101562 3.4375 32.03125 3.453125 C 30.90625 3.675781 30.585938 3.742188 29.8125 3.878906 C 31.335938 4.929688 31.894531 5.320312 33.339844 6.367188 C 33.382812 6.398438 33.417969 6.441406 33.433594 6.492188 L 33.195312 6.570312 Z M 41.128906 11.433594 C 41.085938 11.433594 41.042969 11.421875 41.003906 11.402344 C 39.441406 10.5 39.035156 10.285156 37.035156 9.230469 C 36.265625 10.027344 36.023438 10.226562 34.625 11.375 C 34.558594 11.433594 34.464844 11.449219 34.382812 11.417969 C 34.300781 11.390625 34.238281 11.320312 34.21875 11.234375 C 33.8125 9.25 33.714844 8.941406 32.980469 6.726562 C 31.4375 5.613281 30.910156 5.25 29.027344 3.949219 C 28.941406 3.890625 28.898438 3.785156 28.921875 3.6875 C 28.945312 3.585938 29.023438 3.507812 29.121094 3.492188 C 30.289062 3.285156 30.527344 3.238281 31.636719 3.015625 C 31.222656 1.980469 31.109375 1.820312 30.105469 0.429688 C 30.035156 0.332031 30.042969 0.195312 30.125 0.109375 C 30.210938 0.0195312 30.34375 0.00390625 30.445312 0.0703125 C 32.128906 1.15625 32.367188 1.335938 34.523438 2.96875 C 35.722656 3.179688 35.863281 3.207031 37.304688 3.492188 C 37.386719 3.507812 37.457031 3.566406 37.488281 3.644531 C 37.933594 4.761719 37.953125 4.910156 38.113281 6.472656 C 39.511719 8.222656 39.730469 8.5625 41.339844 11.046875 C 41.402344 11.144531 41.390625 11.269531 41.3125 11.355469 C 41.261719 11.40625 41.195312 11.433594 41.128906 11.433594 " fill-opacity="1" fill-rule="nonzero"/><g clip-path="url(#afd80d4234)"><path fill="#0c5745" d="M 7.78125 39.980469 C 9.5625 41.234375 9.839844 41.425781 11.476562 42.410156 C 11.488281 42.417969 11.496094 42.421875 11.507812 42.429688 C 13.242188 43.828125 13.722656 44.214844 14.695312 44.808594 C 14.644531 44.699219 14.597656 44.574219 14.542969 44.417969 C 14.511719 44.324219 14.535156 44.222656 14.609375 44.152344 C 14.679688 44.085938 14.78125 44.066406 14.875 44.101562 C 15.597656 44.386719 16.058594 44.566406 16.4375 44.714844 C 15.625 44.140625 15.140625 43.742188 14.078125 42.816406 C 14.035156 42.78125 14.007812 42.730469 13.996094 42.679688 C 13.71875 41.359375 13.675781 41.167969 13.757812 40.175781 C 12.210938 39.910156 11.867188 39.851562 10.644531 39.617188 C 10.597656 39.609375 10.550781 39.585938 10.515625 39.550781 C 8.878906 37.972656 8.328125 37.441406 7.414062 36.4375 C 7.867188 37.671875 8.050781 38.019531 8.761719 39.246094 C 8.796875 39.308594 8.804688 39.382812 8.78125 39.453125 C 8.757812 39.519531 8.707031 39.574219 8.640625 39.605469 C 8.164062 39.800781 7.957031 39.886719 7.78125 39.980469 Z M 18.25 45.90625 C 18.222656 45.90625 18.195312 45.898438 18.167969 45.890625 C 16.863281 45.417969 16.628906 45.332031 15.253906 44.792969 C 15.363281 44.964844 15.519531 45.144531 15.816406 45.488281 C 15.898438 45.578125 15.902344 45.71875 15.824219 45.8125 C 15.746094 45.90625 15.609375 45.933594 15.5 45.871094 C 13.613281 44.777344 13.472656 44.664062 11.203125 42.832031 C 9.472656 41.792969 9.25 41.636719 7.179688 40.175781 C 7.113281 40.125 7.074219 40.046875 7.074219 39.964844 C 7.074219 39.882812 7.117188 39.804688 7.1875 39.757812 C 7.523438 39.535156 7.652344 39.46875 8.179688 39.25 C 7.390625 37.882812 7.304688 37.632812 6.5 35.390625 C 6.460938 35.273438 6.507812 35.148438 6.609375 35.085938 C 6.714844 35.027344 6.847656 35.046875 6.925781 35.136719 C 8.457031 36.863281 8.785156 37.183594 10.8125 39.136719 C 12.027344 39.367188 12.363281 39.425781 14.070312 39.71875 C 14.199219 39.742188 14.289062 39.859375 14.277344 39.988281 C 14.183594 41.09375 14.191406 41.167969 14.472656 42.492188 C 16.015625 43.832031 16.308594 44.03125 18.394531 45.445312 C 18.496094 45.515625 18.535156 45.652344 18.476562 45.765625 C 18.433594 45.851562 18.34375 45.90625 18.25 45.90625 " fill-opacity="1" fill-rule="nonzero"/></g><g clip-path="url(#b360a3af63)"><path fill="#0c5745" d="M 16.792969 40.117188 C 17.398438 40.558594 18.003906 40.996094 18.609375 41.433594 C 19.066406 41.761719 19.519531 42.09375 19.976562 42.421875 C 20.023438 42.457031 20.058594 42.511719 20.074219 42.570312 C 20.425781 44.101562 20.5 44.433594 20.835938 45.257812 C 21.507812 44.765625 21.695312 44.640625 22.59375 44.117188 C 22.667969 44.078125 22.753906 44.074219 22.828125 44.105469 C 23.996094 44.648438 24.519531 44.890625 25.164062 45.214844 C 25.054688 44.175781 25.015625 43.910156 24.816406 42.667969 C 24.800781 42.582031 24.832031 42.492188 24.898438 42.4375 C 26.304688 41.207031 26.507812 41.027344 27.589844 40.136719 C 25.789062 39.882812 25.632812 39.863281 23.84375 39.621094 C 23.765625 39.609375 23.699219 39.566406 23.660156 39.496094 C 22.519531 37.542969 22.425781 37.382812 21.507812 35.867188 C 20.804688 37.628906 20.65625 38.023438 20.226562 39.445312 C 20.199219 39.539062 20.121094 39.605469 20.023438 39.621094 C 18.25 39.886719 17.789062 39.957031 16.792969 40.117188 Z M 25.464844 45.90625 C 25.425781 45.90625 25.386719 45.894531 25.351562 45.875 C 24.511719 45.445312 24.042969 45.226562 22.734375 44.621094 C 21.855469 45.132812 21.71875 45.234375 20.875 45.855469 C 20.8125 45.902344 20.730469 45.914062 20.65625 45.894531 C 20.582031 45.875 20.519531 45.820312 20.492188 45.75 C 20.039062 44.664062 19.984375 44.429688 19.601562 42.773438 C 19.171875 42.464844 18.742188 42.152344 18.316406 41.84375 C 17.546875 41.285156 16.777344 40.730469 16.007812 40.171875 C 15.925781 40.113281 15.886719 40.007812 15.910156 39.910156 C 15.933594 39.8125 16.015625 39.734375 16.117188 39.71875 C 17.546875 39.484375 17.839844 39.4375 19.789062 39.144531 C 20.226562 37.714844 20.382812 37.328125 21.230469 35.210938 C 21.265625 35.121094 21.347656 35.0625 21.441406 35.054688 C 21.539062 35.046875 21.628906 35.09375 21.679688 35.171875 C 22.832031 37.078125 22.851562 37.113281 24.03125 39.136719 C 25.875 39.386719 25.921875 39.390625 28.226562 39.71875 C 28.324219 39.730469 28.40625 39.804688 28.433594 39.898438 C 28.460938 39.996094 28.425781 40.097656 28.351562 40.164062 C 26.902344 41.355469 26.808594 41.4375 25.335938 42.722656 C 25.542969 44.019531 25.566406 44.210938 25.714844 45.625 C 25.726562 45.71875 25.683594 45.808594 25.609375 45.859375 C 25.566406 45.890625 25.515625 45.90625 25.464844 45.90625 " fill-opacity="1" fill-rule="nonzero"/></g><g clip-path="url(#ae2536648f)"><path fill="#0c5745" d="M 31.558594 44.082031 C 31.601562 44.082031 31.644531 44.09375 31.679688 44.117188 C 31.746094 44.152344 31.792969 44.214844 31.808594 44.289062 C 31.875 44.644531 31.914062 44.863281 31.914062 45.058594 C 33.457031 43.902344 33.667969 43.710938 34.855469 42.453125 C 34.871094 42.4375 34.890625 42.421875 34.910156 42.410156 C 36.835938 41.242188 37.332031 40.941406 38.648438 40.054688 C 38.078125 39.878906 37.835938 39.8125 37.039062 39.617188 C 36.972656 39.597656 36.914062 39.554688 36.882812 39.496094 C 36.847656 39.433594 36.839844 39.363281 36.859375 39.296875 C 37.390625 37.542969 37.515625 37.140625 37.652344 36.089844 C 36.195312 37.761719 35.886719 38.097656 34.46875 39.546875 C 34.433594 39.585938 34.382812 39.609375 34.328125 39.621094 C 32.410156 39.925781 32.175781 39.964844 30.796875 40.167969 C 31.28125 41.351562 31.367188 41.613281 31.503906 42.589844 C 31.515625 42.667969 31.492188 42.746094 31.4375 42.800781 C 30.367188 43.925781 29.90625 44.410156 29.347656 44.917969 C 30.058594 44.652344 30.554688 44.457031 31.46875 44.101562 C 31.496094 44.089844 31.527344 44.082031 31.558594 44.082031 Z M 31.542969 45.90625 C 31.492188 45.90625 31.441406 45.890625 31.398438 45.859375 C 31.308594 45.792969 31.269531 45.679688 31.304688 45.574219 C 31.425781 45.199219 31.441406 45.109375 31.367188 44.683594 C 30.203125 45.136719 29.714844 45.320312 28.199219 45.886719 C 28.085938 45.929688 27.957031 45.886719 27.894531 45.777344 C 27.832031 45.671875 27.855469 45.539062 27.949219 45.460938 C 29.21875 44.394531 29.441406 44.167969 30.988281 42.542969 C 30.859375 41.65625 30.777344 41.457031 30.210938 40.0625 C 30.179688 39.992188 30.1875 39.910156 30.226562 39.84375 C 30.261719 39.777344 30.332031 39.730469 30.40625 39.71875 C 32.050781 39.472656 32.191406 39.449219 34.167969 39.136719 C 35.679688 37.585938 35.902344 37.332031 37.8125 35.140625 C 37.882812 35.054688 38.003906 35.027344 38.105469 35.074219 C 38.203125 35.117188 38.265625 35.222656 38.253906 35.332031 C 38.050781 37.0625 38.007812 37.25 37.417969 39.191406 C 38.199219 39.386719 38.390625 39.445312 39.296875 39.726562 C 39.390625 39.753906 39.460938 39.835938 39.472656 39.929688 C 39.488281 40.027344 39.445312 40.121094 39.367188 40.175781 C 37.699219 41.308594 37.308594 41.546875 35.199219 42.824219 C 33.878906 44.21875 33.746094 44.320312 31.695312 45.855469 C 31.648438 45.886719 31.597656 45.90625 31.542969 45.90625 " fill-opacity="1" fill-rule="nonzero"/></g><g clip-path="url(#8439702179)"><path fill="#0c5745" d="M 4.871094 28.691406 C 4.925781 28.691406 4.980469 28.707031 5.027344 28.742188 C 6.671875 30.023438 7.035156 30.304688 8.226562 31.113281 C 7.503906 28.675781 7.351562 28.097656 6.902344 25.785156 C 6.890625 25.722656 6.902344 25.660156 6.9375 25.605469 C 8.277344 23.457031 8.554688 23.015625 9.703125 21.46875 C 7.800781 21.070312 7.410156 20.988281 5.957031 20.640625 C 5.863281 20.617188 5.792969 20.542969 5.769531 20.445312 C 5.246094 17.984375 5.101562 17.316406 4.949219 15.867188 C 4.066406 17.894531 3.847656 18.460938 3.222656 20.46875 C 3.199219 20.546875 3.136719 20.609375 3.058594 20.632812 C 1.730469 21.058594 1.425781 21.152344 0.726562 21.445312 C 1.453125 23.546875 1.582031 23.882812 2.488281 25.621094 C 2.503906 25.652344 2.511719 25.691406 2.515625 25.726562 C 2.648438 28.574219 2.679688 29.183594 2.992188 31.023438 C 3.609375 30.046875 3.804688 29.789062 4.683594 28.777344 C 4.730469 28.71875 4.800781 28.691406 4.871094 28.691406 Z M 8.667969 31.96875 C 8.621094 31.96875 8.570312 31.953125 8.527344 31.925781 C 6.875 30.8125 6.632812 30.628906 4.90625 29.289062 C 4.050781 30.277344 3.921875 30.488281 3.070312 31.847656 C 3.015625 31.9375 2.910156 31.984375 2.808594 31.964844 C 2.707031 31.941406 2.625 31.863281 2.609375 31.757812 C 2.183594 29.355469 2.160156 28.9375 2.011719 25.804688 C 1.082031 24.015625 0.972656 23.699219 0.171875 21.386719 C 0.128906 21.261719 0.1875 21.125 0.3125 21.074219 C 1.175781 20.707031 1.417969 20.628906 2.78125 20.195312 C 3.460938 18.003906 3.667969 17.535156 4.875 14.78125 C 4.921875 14.675781 5.035156 14.613281 5.148438 14.632812 C 5.261719 14.652344 5.347656 14.746094 5.359375 14.859375 C 5.554688 17.007812 5.636719 17.410156 6.230469 20.1875 C 7.640625 20.523438 8.035156 20.605469 10.191406 21.058594 C 10.273438 21.074219 10.34375 21.136719 10.375 21.214844 C 10.40625 21.296875 10.394531 21.386719 10.34375 21.457031 C 9.015625 23.230469 8.789062 23.589844 7.417969 25.789062 C 7.882812 28.1875 8.027344 28.679688 8.910156 31.644531 C 8.941406 31.746094 8.902344 31.855469 8.820312 31.917969 C 8.773438 31.953125 8.722656 31.96875 8.667969 31.96875 " fill-opacity="1" fill-rule="nonzero"/></g><path fill="#0c5745" d="M 21.085938 28.691406 C 21.125 28.691406 21.164062 28.699219 21.199219 28.71875 C 22.199219 29.226562 23.21875 29.742188 24.203125 30.242188 C 24.875 30.582031 25.550781 30.921875 26.226562 31.265625 C 25.796875 28.691406 25.769531 28.535156 25.292969 25.78125 C 25.277344 25.699219 25.304688 25.617188 25.367188 25.558594 C 27.734375 23.257812 27.882812 23.113281 29.496094 21.480469 C 26.6875 21.0625 26.488281 21.035156 23.761719 20.644531 C 23.679688 20.632812 23.609375 20.578125 23.570312 20.503906 C 22.375 18.078125 21.910156 17.128906 21.113281 15.449219 C 19.917969 17.726562 19.527344 18.476562 18.535156 20.503906 C 18.496094 20.578125 18.425781 20.628906 18.347656 20.644531 C 15.585938 21.070312 14.925781 21.171875 13.042969 21.480469 C 14.890625 23.523438 15.175781 23.832031 16.875 25.5625 C 16.929688 25.617188 16.957031 25.691406 16.945312 25.769531 C 16.582031 28.679688 16.503906 29.300781 16.339844 31.261719 C 18.546875 30.015625 18.855469 29.847656 20.96875 28.71875 C 21.003906 28.699219 21.046875 28.691406 21.085938 28.691406 Z M 26.554688 31.96875 C 26.515625 31.96875 26.476562 31.957031 26.441406 31.941406 C 25.621094 31.523438 24.796875 31.105469 23.972656 30.691406 C 23.027344 30.210938 22.050781 29.71875 21.089844 29.226562 C 18.960938 30.359375 18.714844 30.5 16.171875 31.933594 C 16.089844 31.980469 15.992188 31.976562 15.910156 31.929688 C 15.832031 31.878906 15.789062 31.789062 15.796875 31.695312 C 15.988281 29.363281 16.050781 28.863281 16.429688 25.828125 C 14.710938 24.078125 14.460938 23.800781 12.359375 21.472656 C 12.300781 21.40625 12.28125 21.308594 12.308594 21.222656 C 12.339844 21.132812 12.417969 21.070312 12.507812 21.054688 C 14.726562 20.691406 15.277344 20.605469 18.140625 20.164062 C 19.15625 18.09375 19.539062 17.359375 20.898438 14.765625 C 20.945312 14.679688 21.035156 14.628906 21.128906 14.628906 C 21.222656 14.632812 21.308594 14.6875 21.351562 14.773438 C 22.273438 16.726562 22.710938 17.617188 23.964844 20.164062 C 26.714844 20.558594 26.824219 20.574219 30.058594 21.054688 C 30.152344 21.070312 30.230469 21.136719 30.261719 21.226562 C 30.289062 21.316406 30.269531 21.414062 30.203125 21.480469 C 28.273438 23.433594 28.25 23.457031 25.8125 25.828125 C 26.292969 28.617188 26.300781 28.664062 26.804688 31.675781 C 26.820312 31.769531 26.78125 31.863281 26.707031 31.917969 C 26.660156 31.949219 26.609375 31.96875 26.554688 31.96875 " fill-opacity="1" fill-rule="nonzero"/><g clip-path="url(#b6c138010c)"><path fill="#0c5745" d="M 33.335938 21.476562 C 35.085938 23.515625 35.386719 23.875 36.707031 25.585938 C 36.75 25.644531 36.769531 25.71875 36.753906 25.789062 C 36.128906 28.722656 36.015625 29.261719 35.46875 31.175781 C 37.359375 30.0625 37.847656 29.765625 39.4375 28.730469 C 39.527344 28.671875 39.652344 28.679688 39.734375 28.75 C 41.246094 30.011719 41.636719 30.339844 42.453125 31.152344 C 42.671875 28.589844 42.699219 28.097656 42.644531 25.742188 C 42.644531 25.691406 42.660156 25.640625 42.6875 25.597656 C 44.171875 23.398438 44.398438 23.0625 45.238281 21.46875 C 43.664062 21.058594 43.398438 20.996094 41.796875 20.640625 C 41.71875 20.621094 41.652344 20.566406 41.621094 20.488281 C 40.550781 17.847656 40.34375 17.335938 39.476562 15.613281 C 38.949219 17.878906 38.828125 18.3125 38.125 20.472656 C 38.097656 20.558594 38.023438 20.625 37.933594 20.640625 C 35.507812 21.097656 35.152344 21.164062 33.335938 21.476562 Z M 42.65625 31.96875 C 42.589844 31.96875 42.527344 31.941406 42.476562 31.894531 C 41.417969 30.820312 41.140625 30.582031 39.554688 29.257812 C 37.945312 30.300781 37.472656 30.582031 35.179688 31.933594 C 35.089844 31.984375 34.976562 31.976562 34.894531 31.914062 C 34.8125 31.851562 34.78125 31.746094 34.808594 31.644531 C 35.5 29.253906 35.578125 28.898438 36.234375 25.800781 C 34.917969 24.089844 34.632812 23.761719 32.664062 21.46875 C 32.605469 21.398438 32.589844 21.304688 32.621094 21.21875 C 32.648438 21.132812 32.722656 21.070312 32.8125 21.054688 C 34.980469 20.683594 35.226562 20.636719 37.691406 20.171875 C 38.410156 17.964844 38.492188 17.621094 39.140625 14.824219 C 39.164062 14.722656 39.25 14.644531 39.355469 14.632812 C 39.460938 14.621094 39.5625 14.671875 39.609375 14.769531 C 40.75 17.007812 40.890625 17.339844 42.039062 20.175781 C 43.628906 20.53125 43.859375 20.589844 45.671875 21.0625 C 45.746094 21.082031 45.808594 21.132812 45.839844 21.203125 C 45.867188 21.273438 45.867188 21.355469 45.832031 21.421875 C 44.863281 23.273438 44.691406 23.53125 43.152344 25.8125 C 43.207031 28.277344 43.171875 28.699219 42.90625 31.738281 C 42.898438 31.835938 42.835938 31.917969 42.742188 31.953125 C 42.714844 31.960938 42.6875 31.96875 42.65625 31.96875 " fill-opacity="1" fill-rule="nonzero"/></g><path fill="#0c5745" d="M 8.078125 8.667969 C 8.097656 8.667969 8.121094 8.671875 8.144531 8.679688 C 8.210938 8.695312 8.265625 8.738281 8.296875 8.800781 C 8.855469 9.808594 8.980469 10.03125 9.515625 10.691406 C 10.351562 8.527344 10.515625 8.144531 11.453125 6.449219 C 11.46875 6.414062 11.496094 6.386719 11.527344 6.363281 C 13.535156 4.957031 13.886719 4.710938 15.222656 3.847656 C 14.503906 3.683594 14.285156 3.625 13.664062 3.445312 C 13.582031 3.425781 13.519531 3.363281 13.492188 3.285156 C 13.464844 3.203125 13.480469 3.117188 13.53125 3.050781 C 14.039062 2.390625 14.367188 1.964844 14.644531 1.628906 C 13.75 2.179688 13.203125 2.554688 12.015625 3.410156 C 11.988281 3.429688 11.957031 3.441406 11.921875 3.449219 C 10.769531 3.710938 10.554688 3.761719 9.839844 3.957031 C 8.898438 5.320312 8.789062 5.484375 8.332031 6.660156 C 8.324219 6.6875 8.308594 6.710938 8.289062 6.734375 C 6.742188 8.542969 6.253906 9.109375 5.460938 10.238281 C 6.367188 9.636719 6.746094 9.40625 7.949219 8.703125 C 7.988281 8.679688 8.03125 8.667969 8.078125 8.667969 Z M 9.363281 11.089844 L 9.597656 11.183594 Z M 4.507812 11.433594 C 4.441406 11.433594 4.378906 11.410156 4.328125 11.359375 C 4.242188 11.273438 4.230469 11.140625 4.296875 11.039062 C 5.660156 9.03125 5.917969 8.726562 7.878906 6.4375 C 8.351562 5.222656 8.511719 4.992188 9.476562 3.597656 C 9.511719 3.546875 9.558594 3.511719 9.617188 3.496094 C 10.40625 3.277344 10.597656 3.234375 11.761719 2.96875 C 13.566406 1.671875 13.890625 1.480469 16.28125 0.0664062 C 16.390625 0 16.539062 0.03125 16.613281 0.136719 C 16.691406 0.242188 16.671875 0.390625 16.570312 0.472656 C 15.40625 1.46875 15.265625 1.621094 14.15625 3.0625 C 14.644531 3.199219 14.925781 3.261719 15.914062 3.492188 C 16.011719 3.515625 16.089844 3.597656 16.105469 3.695312 C 16.121094 3.796875 16.078125 3.894531 15.992188 3.949219 C 14.242188 5.078125 14.050781 5.214844 11.863281 6.742188 C 10.914062 8.464844 10.785156 8.800781 9.832031 11.273438 C 9.800781 11.355469 9.726562 11.414062 9.640625 11.429688 C 9.550781 11.445312 9.460938 11.414062 9.40625 11.34375 C 8.644531 10.4375 8.507812 10.21875 7.980469 9.269531 C 6.605469 10.074219 6.382812 10.222656 4.648438 11.390625 C 4.605469 11.421875 4.554688 11.433594 4.507812 11.433594 " fill-opacity="1" fill-rule="nonzero"/><path fill="#0c5745" d="M 21.507812 8.667969 C 21.546875 8.667969 21.585938 8.679688 21.621094 8.695312 C 23.605469 9.71875 23.742188 9.789062 25.664062 10.730469 C 25.246094 8.75 25.121094 8.148438 24.820312 6.621094 C 24.804688 6.535156 24.832031 6.449219 24.894531 6.386719 C 26.289062 5.058594 26.640625 4.722656 27.367188 3.925781 C 26.457031 3.800781 26.160156 3.757812 23.914062 3.453125 C 23.828125 3.441406 23.753906 3.386719 23.71875 3.308594 C 23.117188 1.949219 22.941406 1.554688 22.714844 0.828125 C 21.933594 1.855469 21.824219 1.996094 20.773438 3.359375 C 20.734375 3.410156 20.675781 3.445312 20.609375 3.453125 C 18.867188 3.695312 18.386719 3.761719 17.183594 3.9375 C 17.800781 5.050781 17.953125 5.292969 18.800781 6.417969 C 18.851562 6.488281 18.863281 6.582031 18.832031 6.664062 C 18.023438 8.65625 17.808594 9.191406 17.261719 10.683594 C 19.109375 9.789062 19.289062 9.703125 21.398438 8.695312 C 21.433594 8.675781 21.46875 8.667969 21.507812 8.667969 Z M 16.8125 11.433594 C 16.75 11.433594 16.691406 11.410156 16.644531 11.371094 C 16.566406 11.300781 16.539062 11.191406 16.574219 11.097656 C 17.277344 9.15625 17.449219 8.730469 18.3125 6.609375 C 17.445312 5.457031 17.328125 5.242188 16.5625 3.859375 C 16.523438 3.789062 16.523438 3.699219 16.558594 3.628906 C 16.597656 3.554688 16.667969 3.5 16.75 3.488281 C 18.210938 3.277344 18.621094 3.222656 20.4375 2.96875 C 21.546875 1.535156 21.566406 1.507812 22.609375 0.128906 C 22.667969 0.0546875 22.761719 0.015625 22.855469 0.0351562 C 22.949219 0.0507812 23.027344 0.121094 23.054688 0.210938 C 23.355469 1.234375 23.46875 1.492188 24.121094 2.972656 C 26.574219 3.304688 26.597656 3.308594 27.90625 3.488281 C 27.996094 3.503906 28.074219 3.566406 28.105469 3.652344 C 28.140625 3.738281 28.121094 3.835938 28.058594 3.90625 C 27.101562 4.976562 26.847656 5.222656 25.339844 6.65625 C 25.648438 8.203125 25.773438 8.804688 26.261719 11.128906 C 26.28125 11.226562 26.246094 11.320312 26.167969 11.382812 C 26.09375 11.441406 25.992188 11.449219 25.902344 11.410156 C 23.570312 10.265625 23.527344 10.246094 21.503906 9.203125 C 19.3125 10.253906 19.273438 10.269531 16.921875 11.410156 C 16.886719 11.425781 16.851562 11.433594 16.8125 11.433594 " fill-opacity="1" fill-rule="nonzero"/><path fill="#0c5745" d="M 33.433594 6.492188 C 34.144531 8.636719 34.277344 9.046875 34.628906 10.722656 C 35.792969 9.761719 36.011719 9.566406 36.800781 8.746094 C 36.878906 8.664062 37 8.644531 37.101562 8.699219 C 38.789062 9.585938 39.394531 9.902344 40.351562 10.445312 C 39.230469 8.722656 38.910156 8.277344 37.671875 6.726562 C 37.640625 6.691406 37.621094 6.644531 37.617188 6.597656 C 37.457031 5.03125 37.445312 4.910156 37.070312 3.960938 C 35.738281 3.695312 35.585938 3.667969 34.375 3.453125 C 34.335938 3.445312 34.296875 3.429688 34.265625 3.40625 C 32.667969 2.195312 32.117188 1.777344 31.28125 1.21875 C 31.691406 1.828125 31.847656 2.179688 32.214844 3.113281 C 32.242188 3.183594 32.238281 3.261719 32.203125 3.324219 C 32.164062 3.390625 32.101562 3.4375 32.03125 3.453125 C 30.90625 3.675781 30.585938 3.742188 29.8125 3.878906 C 31.335938 4.929688 31.894531 5.320312 33.339844 6.367188 C 33.382812 6.398438 33.417969 6.441406 33.433594 6.492188 L 33.195312 6.570312 Z M 41.128906 11.433594 C 41.085938 11.433594 41.042969 11.421875 41.003906 11.402344 C 39.441406 10.5 39.035156 10.285156 37.035156 9.230469 C 36.265625 10.027344 36.023438 10.226562 34.625 11.375 C 34.558594 11.433594 34.464844 11.449219 34.382812 11.417969 C 34.300781 11.390625 34.238281 11.320312 34.21875 11.234375 C 33.8125 9.25 33.714844 8.941406 32.980469 6.726562 C 31.4375 5.613281 30.910156 5.25 29.027344 3.949219 C 28.941406 3.890625 28.898438 3.785156 28.921875 3.6875 C 28.945312 3.585938 29.023438 3.507812 29.121094 3.492188 C 30.289062 3.285156 30.527344 3.238281 31.636719 3.015625 C 31.222656 1.980469 31.109375 1.820312 30.105469 0.429688 C 30.035156 0.332031 30.042969 0.195312 30.125 0.109375 C 30.210938 0.0195312 30.34375 0.00390625 30.445312 0.0703125 C 32.128906 1.15625 32.367188 1.335938 34.523438 2.96875 C 35.722656 3.179688 35.863281 3.207031 37.304688 3.492188 C 37.386719 3.507812 37.457031 3.566406 37.488281 3.644531 C 37.933594 4.761719 37.953125 4.910156 38.113281 6.472656 C 39.511719 8.222656 39.730469 8.5625 41.339844 11.046875 C 41.402344 11.144531 41.390625 11.269531 41.3125 11.355469 C 41.261719 11.40625 41.195312 11.433594 41.128906 11.433594 " fill-opacity="1" fill-rule="nonzero"/><g clip-path="url(#15ac0464c7)"><path fill="#0c5745" d="M 7.78125 39.980469 C 9.5625 41.234375 9.839844 41.425781 11.476562 42.410156 C 11.488281 42.417969 11.496094 42.421875 11.507812 42.429688 C 13.242188 43.828125 13.722656 44.214844 14.695312 44.808594 C 14.644531 44.699219 14.597656 44.574219 14.542969 44.417969 C 14.511719 44.324219 14.535156 44.222656 14.609375 44.152344 C 14.679688 44.085938 14.78125 44.066406 14.875 44.101562 C 15.597656 44.386719 16.058594 44.566406 16.4375 44.714844 C 15.625 44.140625 15.140625 43.742188 14.078125 42.816406 C 14.035156 42.78125 14.007812 42.730469 13.996094 42.679688 C 13.71875 41.359375 13.675781 41.167969 13.757812 40.175781 C 12.210938 39.910156 11.867188 39.851562 10.644531 39.617188 C 10.597656 39.609375 10.550781 39.585938 10.515625 39.550781 C 8.878906 37.972656 8.328125 37.441406 7.414062 36.4375 C 7.867188 37.671875 8.050781 38.019531 8.761719 39.246094 C 8.796875 39.308594 8.804688 39.382812 8.78125 39.453125 C 8.757812 39.519531 8.707031 39.574219 8.640625 39.605469 C 8.164062 39.800781 7.957031 39.886719 7.78125 39.980469 Z M 18.25 45.90625 C 18.222656 45.90625 18.195312 45.898438 18.167969 45.890625 C 16.863281 45.417969 16.628906 45.332031 15.253906 44.792969 C 15.363281 44.964844 15.519531 45.144531 15.816406 45.488281 C 15.898438 45.578125 15.902344 45.71875 15.824219 45.8125 C 15.746094 45.90625 15.609375 45.933594 15.5 45.871094 C 13.613281 44.777344 13.472656 44.664062 11.203125 42.832031 C 9.472656 41.792969 9.25 41.636719 7.179688 40.175781 C 7.113281 40.125 7.074219 40.046875 7.074219 39.964844 C 7.074219 39.882812 7.117188 39.804688 7.1875 39.757812 C 7.523438 39.535156 7.652344 39.46875 8.179688 39.25 C 7.390625 37.882812 7.304688 37.632812 6.5 35.390625 C 6.460938 35.273438 6.507812 35.148438 6.609375 35.085938 C 6.714844 35.027344 6.847656 35.046875 6.925781 35.136719 C 8.457031 36.863281 8.785156 37.183594 10.8125 39.136719 C 12.027344 39.367188 12.363281 39.425781 14.070312 39.71875 C 14.199219 39.742188 14.289062 39.859375 14.277344 39.988281 C 14.183594 41.09375 14.191406 41.167969 14.472656 42.492188 C 16.015625 43.832031 16.308594 44.03125 18.394531 45.445312 C 18.496094 45.515625 18.535156 45.652344 18.476562 45.765625 C 18.433594 45.851562 18.34375 45.90625 18.25 45.90625 " fill-opacity="1" fill-rule="nonzero"/></g><g clip-path="url(#df3c7fe793)"><path fill="#0c5745" d="M 16.792969 40.117188 C 17.398438 40.558594 18.003906 40.996094 18.609375 41.433594 C 19.066406 41.761719 19.519531 42.09375 19.976562 42.421875 C 20.023438 42.457031 20.058594 42.511719 20.074219 42.570312 C 20.425781 44.101562 20.5 44.433594 20.835938 45.257812 C 21.507812 44.765625 21.695312 44.640625 22.59375 44.117188 C 22.667969 44.078125 22.753906 44.074219 22.828125 44.105469 C 23.996094 44.648438 24.519531 44.890625 25.164062 45.214844 C 25.054688 44.175781 25.015625 43.910156 24.816406 42.667969 C 24.800781 42.582031 24.832031 42.492188 24.898438 42.4375 C 26.304688 41.207031 26.507812 41.027344 27.589844 40.136719 C 25.789062 39.882812 25.632812 39.863281 23.84375 39.621094 C 23.765625 39.609375 23.699219 39.566406 23.660156 39.496094 C 22.519531 37.542969 22.425781 37.382812 21.507812 35.867188 C 20.804688 37.628906 20.65625 38.023438 20.226562 39.445312 C 20.199219 39.539062 20.121094 39.605469 20.023438 39.621094 C 18.25 39.886719 17.789062 39.957031 16.792969 40.117188 Z M 25.464844 45.90625 C 25.425781 45.90625 25.386719 45.894531 25.351562 45.875 C 24.511719 45.445312 24.042969 45.226562 22.734375 44.621094 C 21.855469 45.132812 21.71875 45.234375 20.875 45.855469 C 20.8125 45.902344 20.730469 45.914062 20.65625 45.894531 C 20.582031 45.875 20.519531 45.820312 20.492188 45.75 C 20.039062 44.664062 19.984375 44.429688 19.601562 42.773438 C 19.171875 42.464844 18.742188 42.152344 18.316406 41.84375 C 17.546875 41.285156 16.777344 40.730469 16.007812 40.171875 C 15.925781 40.113281 15.886719 40.007812 15.910156 39.910156 C 15.933594 39.8125 16.015625 39.734375 16.117188 39.71875 C 17.546875 39.484375 17.839844 39.4375 19.789062 39.144531 C 20.226562 37.714844 20.382812 37.328125 21.230469 35.210938 C 21.265625 35.121094 21.347656 35.0625 21.441406 35.054688 C 21.539062 35.046875 21.628906 35.09375 21.679688 35.171875 C 22.832031 37.078125 22.851562 37.113281 24.03125 39.136719 C 25.875 39.386719 25.921875 39.390625 28.226562 39.71875 C 28.324219 39.730469 28.40625 39.804688 28.433594 39.898438 C 28.460938 39.996094 28.425781 40.097656 28.351562 40.164062 C 26.902344 41.355469 26.808594 41.4375 25.335938 42.722656 C 25.542969 44.019531 25.566406 44.210938 25.714844 45.625 C 25.726562 45.71875 25.683594 45.808594 25.609375 45.859375 C 25.566406 45.890625 25.515625 45.90625 25.464844 45.90625 " fill-opacity="1" fill-rule="nonzero"/></g><g clip-path="url(#229e6f57fc)"><path fill="#0c5745" d="M 31.558594 44.082031 C 31.601562 44.082031 31.644531 44.09375 31.679688 44.117188 C 31.746094 44.152344 31.792969 44.214844 31.808594 44.289062 C 31.875 44.644531 31.914062 44.863281 31.914062 45.058594 C 33.457031 43.902344 33.667969 43.710938 34.855469 42.453125 C 34.871094 42.4375 34.890625 42.421875 34.910156 42.410156 C 36.835938 41.242188 37.332031 40.941406 38.648438 40.054688 C 38.078125 39.878906 37.835938 39.8125 37.039062 39.617188 C 36.972656 39.597656 36.914062 39.554688 36.882812 39.496094 C 36.847656 39.433594 36.839844 39.363281 36.859375 39.296875 C 37.390625 37.542969 37.515625 37.140625 37.652344 36.089844 C 36.195312 37.761719 35.886719 38.097656 34.46875 39.546875 C 34.433594 39.585938 34.382812 39.609375 34.328125 39.621094 C 32.410156 39.925781 32.175781 39.964844 30.796875 40.167969 C 31.28125 41.351562 31.367188 41.613281 31.503906 42.589844 C 31.515625 42.667969 31.492188 42.746094 31.4375 42.800781 C 30.367188 43.925781 29.90625 44.410156 29.347656 44.917969 C 30.058594 44.652344 30.554688 44.457031 31.46875 44.101562 C 31.496094 44.089844 31.527344 44.082031 31.558594 44.082031 Z M 31.542969 45.90625 C 31.492188 45.90625 31.441406 45.890625 31.398438 45.859375 C 31.308594 45.792969 31.269531 45.679688 31.304688 45.574219 C 31.425781 45.199219 31.441406 45.109375 31.367188 44.683594 C 30.203125 45.136719 29.714844 45.320312 28.199219 45.886719 C 28.085938 45.929688 27.957031 45.886719 27.894531 45.777344 C 27.832031 45.671875 27.855469 45.539062 27.949219 45.460938 C 29.21875 44.394531 29.441406 44.167969 30.988281 42.542969 C 30.859375 41.65625 30.777344 41.457031 30.210938 40.0625 C 30.179688 39.992188 30.1875 39.910156 30.226562 39.84375 C 30.261719 39.777344 30.332031 39.730469 30.40625 39.71875 C 32.050781 39.472656 32.191406 39.449219 34.167969 39.136719 C 35.679688 37.585938 35.902344 37.332031 37.8125 35.140625 C 37.882812 35.054688 38.003906 35.027344 38.105469 35.074219 C 38.203125 35.117188 38.265625 35.222656 38.253906 35.332031 C 38.050781 37.0625 38.007812 37.25 37.417969 39.191406 C 38.199219 39.386719 38.390625 39.445312 39.296875 39.726562 C 39.390625 39.753906 39.460938 39.835938 39.472656 39.929688 C 39.488281 40.027344 39.445312 40.121094 39.367188 40.175781 C 37.699219 41.308594 37.308594 41.546875 35.199219 42.824219 C 33.878906 44.21875 33.746094 44.320312 31.695312 45.855469 C 31.648438 45.886719 31.597656 45.90625 31.542969 45.90625 " fill-opacity="1" fill-rule="nonzero"/></g></svg>